<svg width="36" height="36" viewBox="0 0 36 36" fill="none" xmlns="http://www.w3.org/2000/svg">
<rect width="36" height="36" rx="10" fill="#7F65D9"/>
<path d="M27.4219 26.0629C26.6698 24.7669 25.6592 23.6395 24.4528 22.7508C23.2464 21.8622 21.8701 21.2312 20.4094 20.8973C21.7775 20.3388 22.9091 19.3224 23.6106 18.0219C24.3122 16.7213 24.5402 15.2175 24.2557 13.7675C23.9711 12.3174 23.1916 11.0113 22.0506 10.0724C20.9095 9.13346 19.4777 8.62012 18 8.62012C16.5223 8.62012 15.0905 9.13346 13.9494 10.0724C12.8083 11.0113 12.0289 12.3174 11.7443 13.7675C11.4597 15.2175 11.6878 16.7213 12.3893 18.0219C13.0909 19.3224 14.2225 20.3388 15.5906 20.8973C14.1299 21.2312 12.7536 21.8622 11.5472 22.7508C10.3408 23.6395 9.33013 24.7669 8.57811 26.0629C8.52839 26.1499 8.51527 26.2531 8.54164 26.3498C8.56801 26.4465 8.63172 26.5288 8.71874 26.5785C8.80576 26.6283 8.90898 26.6414 9.00568 26.615C9.10238 26.5886 9.18464 26.5249 9.23436 26.4379C10.1215 24.8977 11.3988 23.6184 12.9376 22.7289C14.4765 21.8394 16.2225 21.371 18 21.371C19.7774 21.371 21.5235 21.8394 23.0623 22.7289C24.6012 23.6184 25.8785 24.8977 26.7656 26.4379C26.7995 26.4948 26.8476 26.5419 26.905 26.5748C26.9625 26.6076 27.0275 26.6251 27.0937 26.6254C27.159 26.6242 27.2231 26.6081 27.2812 26.5785C27.367 26.5276 27.4296 26.4454 27.4558 26.3492C27.4821 26.2529 27.4699 26.1503 27.4219 26.0629ZM12.375 15.0004C12.375 13.8879 12.7049 12.8004 13.323 11.8753C13.9411 10.9503 14.8196 10.2293 15.8474 9.80358C16.8752 9.37784 18.0062 9.26645 19.0974 9.48349C20.1885 9.70053 21.1908 10.2363 21.9775 11.0229C22.7641 11.8096 23.2999 12.8119 23.5169 13.903C23.7339 14.9942 23.6226 16.1252 23.1968 17.153C22.7711 18.1808 22.0501 19.0593 21.1251 19.6774C20.2 20.2955 19.1125 20.6254 18 20.6254C16.5081 20.6254 15.0774 20.0328 14.0225 18.9779C12.9676 17.923 12.375 16.4922 12.375 15.0004Z" fill="white"/>
</svg>
