<svg width="36" height="36" viewBox="0 0 36 36" fill="none" xmlns="http://www.w3.org/2000/svg">
<rect width="36" height="36" rx="10" fill="#7F65D9"/>
<path d="M27 10.875H21C20.3803 10.8749 19.7726 11.0455 19.2434 11.3679C18.7142 11.6904 18.284 12.1524 18 12.7031C17.716 12.1524 17.2858 11.6904 16.7566 11.3679C16.2274 11.0455 15.6197 10.8749 15 10.875H9C8.70163 10.875 8.41548 10.9935 8.2045 11.2045C7.99353 11.4155 7.875 11.7016 7.875 12V24C7.875 24.2984 7.99353 24.5845 8.2045 24.7955C8.41548 25.0065 8.70163 25.125 9 25.125H15C15.6954 25.1275 16.3617 25.4048 16.8534 25.8966C17.3452 26.3883 17.6225 27.0546 17.625 27.75C17.625 27.8495 17.6645 27.9448 17.7348 28.0152C17.8052 28.0855 17.9005 28.125 18 28.125C18.0995 28.125 18.1948 28.0855 18.2652 28.0152C18.3355 27.9448 18.375 27.8495 18.375 27.75C18.3775 27.0546 18.6548 26.3883 19.1466 25.8966C19.6383 25.4048 20.3046 25.1275 21 25.125H27C27.2984 25.125 27.5845 25.0065 27.7955 24.7955C28.0065 24.5845 28.125 24.2984 28.125 24V12C28.125 11.7016 28.0065 11.4155 27.7955 11.2045C27.5845 10.9935 27.2984 10.875 27 10.875ZM15 24.375H9C8.90054 24.375 8.80516 24.3355 8.73484 24.2652C8.66451 24.1948 8.625 24.0995 8.625 24V12C8.625 11.9005 8.66451 11.8052 8.73484 11.7348C8.80516 11.6645 8.90054 11.625 9 11.625H15C15.6954 11.6275 16.3617 11.9048 16.8534 12.3966C17.3452 12.8883 17.6225 13.5546 17.625 14.25V25.6312C17.3098 25.2383 16.9102 24.9213 16.4557 24.7038C16.0013 24.4864 15.5038 24.374 15 24.375ZM27.375 24C27.375 24.0995 27.3355 24.1948 27.2652 24.2652C27.1948 24.3355 27.0995 24.375 27 24.375H21C20.4962 24.374 19.9987 24.4864 19.5443 24.7038C19.0898 24.9213 18.6902 25.2383 18.375 25.6312V14.25C18.3775 13.5546 18.6548 12.8883 19.1466 12.3966C19.6383 11.9048 20.3046 11.6275 21 11.625H27C27.0995 11.625 27.1948 11.6645 27.2652 11.7348C27.3355 11.8052 27.375 11.9005 27.375 12V24Z" fill="white"/>
</svg>
