<svg width="53" height="51" viewBox="0 0 53 51" fill="none" xmlns="http://www.w3.org/2000/svg">
<g clip-path="url(#clip0_400_11435)">
<path d="M16.9985 12.1529L14.5972 46.8498C14.5972 46.8498 15.464 47.3664 16.1714 46.5084L18.4341 12.0494C18.4341 12.0494 17.7183 12.6122 16.9985 12.1529Z" fill="url(#paint0_linear_400_11435)"/>
<path d="M18.435 12.0358C18.4321 11.8658 18.1079 11.7518 17.711 11.7812C17.314 11.8106 16.9946 11.9723 16.9975 12.1423C17.0004 12.3124 17.3245 12.4263 17.7215 12.3969C18.1184 12.3675 18.4379 12.2058 18.435 12.0358Z" fill="#C6CFDC"/>
<path d="M18.7401 29.7223C18.7842 30.7935 18.8577 31.8318 18.9497 32.8139C18.5446 32.9674 18.1622 33.1015 17.8101 33.218C17.5285 33.3114 17.2657 33.3939 17.0265 33.4643C16.045 33.7563 15.441 33.8711 15.441 33.8711L15.6861 30.4906C16.2228 30.3903 16.7428 30.2733 17.2466 30.1456C17.504 30.0792 17.7564 30.0111 18.0051 29.9392C18.255 29.869 18.4993 29.7973 18.7401 29.7223Z" fill="url(#paint1_linear_400_11435)"/>
<path d="M16.6644 16.9888L16.4278 20.2575C17.4425 20.1996 18.4013 20.077 19.3089 19.915C19.3984 18.8149 19.441 17.7055 19.4886 16.6464C18.5966 16.8052 17.6583 16.9274 16.6644 16.9888Z" fill="url(#paint2_linear_400_11435)"/>
<path d="M16.1934 23.4835L15.9666 26.6243C16.9365 26.4967 17.8518 26.3223 18.7213 26.1216C18.7542 25.087 18.8262 24.0428 18.9442 23.007C18.0765 23.202 17.1611 23.3684 16.1934 23.4835Z" fill="url(#paint3_linear_400_11435)"/>
<path d="M39.9451 32.9352C41.2231 32.6702 42.3261 32.2915 42.9745 31.7997C42.9745 31.7997 42.9363 30.5651 42.9033 28.7583C42.2392 28.9536 41.1786 29.237 39.9078 29.471C40.1528 30.1871 40.0891 31.5993 39.9451 32.9352Z" fill="url(#paint4_linear_400_11435)"/>
<path d="M34.7431 19.6132C35.2861 19.8064 35.8353 19.9401 36.3785 20.0234C36.584 20.0553 36.7877 20.0792 36.9903 20.0985C37.1084 19.7016 37.2274 19.3101 37.3361 18.9182C37.5235 18.2479 37.6812 17.5759 37.7588 16.8682C37.0912 16.8469 36.4027 16.7618 35.7158 16.5908C35.5544 16.5509 35.3936 16.5053 35.2335 16.4554C35.2228 17.3176 35.1442 18.1854 34.9512 18.9506C34.8928 19.1832 34.8231 19.4047 34.7431 19.6132Z" fill="url(#paint5_linear_400_11435)"/>
<path d="M34.116 26.3464C33.1494 26.1437 32.1992 25.8031 31.3229 25.2728C31.3314 25.3178 31.3406 25.3614 31.3508 25.4062C31.5473 26.2962 31.6415 27.4007 31.6756 28.5428C31.6825 28.8012 31.6877 29.0626 31.6893 29.3234C32.5785 29.6129 33.5287 29.7735 34.4895 29.8439C34.4565 29.4692 34.4063 29.0275 34.3503 28.5388C34.2733 27.8744 34.1862 27.1256 34.116 26.3464Z" fill="url(#paint6_linear_400_11435)"/>
<path d="M22.1014 28.5568C22.1217 29.6241 22.1569 30.5944 22.1899 31.3451C22.2098 31.3354 22.2314 31.324 22.2515 31.3131C23.3825 30.7059 24.5378 30.5598 25.6514 30.6706C25.6376 29.9114 25.6042 29.2072 25.5615 28.551C25.539 28.2023 25.5133 27.8674 25.4869 27.5464C24.4387 27.7334 23.3217 28.1167 22.1014 28.5568Z" fill="url(#paint7_linear_400_11435)"/>
<path d="M39.3957 26.365C40.9667 26.1086 42.2431 25.7057 42.8674 25.487C42.8675 25.4335 42.8669 25.3811 42.8671 25.328C42.8647 24.5984 42.8643 23.8499 42.8701 23.1012C42.871 22.8628 42.8788 22.6279 42.8884 22.3965C42.3382 22.5977 41.0387 23.0293 39.4079 23.2963C39.3571 23.9689 39.342 24.6502 39.3545 25.3063C39.3595 25.6684 39.373 26.0234 39.3957 26.365Z" fill="url(#paint8_linear_400_11435)"/>
<path d="M35.2335 16.456C35.2372 16.1928 35.234 15.9306 35.2256 15.6728C35.1907 14.5178 35.0579 13.4359 34.9469 12.7044C34.556 12.4317 34.1902 12.0943 33.8603 11.6836C33.5458 11.2925 33.2029 11.0089 32.8313 10.8151C33.0543 12.3596 33.0208 13.8549 32.8602 15.2801C33.0697 15.4304 33.2828 15.5676 33.498 15.6925C34.0661 16.0251 34.6482 16.2737 35.2335 16.456Z" fill="url(#paint9_linear_400_11435)"/>
<path d="M26.158 18.101C26.2493 17.3095 26.2911 16.5265 26.3033 15.7815C26.3076 15.459 26.3072 15.1432 26.3006 14.8393C25.2692 15.1232 24.1651 15.4806 22.964 15.8217C22.9208 16.8787 22.8341 17.996 22.7087 19.1158C23.953 18.763 25.0944 18.3931 26.158 18.101Z" fill="url(#paint10_linear_400_11435)"/>
<path d="M29.0371 10.8403C29.2385 11.4706 29.5037 12.609 29.5207 14.2719C28.6734 14.2881 27.7842 14.4531 26.833 14.6992C26.831 14.6984 26.8281 14.6995 26.8261 14.7002C26.6537 14.7422 26.4774 14.7892 26.3011 14.8387C26.2796 13.6607 26.1913 12.6368 26.1089 11.9238C26.1049 11.8838 26.1016 11.8455 26.0967 11.8089L26.0982 11.8084C26.1218 11.8013 26.146 11.791 26.1717 11.7831C26.2373 11.7608 26.3029 11.7384 26.367 11.7166C26.7302 11.591 27.0839 11.4683 27.4274 11.3514C27.9931 11.1586 28.5294 10.9836 29.0371 10.8403Z" fill="url(#paint11_linear_400_11435)"/>
<path d="M18.7218 26.121C18.6812 27.3434 18.693 28.5532 18.7407 29.7218C19.951 29.3464 21.0637 28.9298 22.1019 28.557C22.0826 27.4924 22.0781 26.3304 22.1093 25.1974C21.0596 25.5122 19.9364 25.8402 18.7218 26.121Z" fill="url(#paint12_linear_400_11435)"/>
<path d="M22.403 21.396C22.5226 20.6453 22.6244 19.8799 22.7094 19.1155C21.6558 19.4135 20.5277 19.6988 19.3095 19.9147C19.258 20.5744 19.1884 21.2321 19.0926 21.873C19.037 22.2496 18.9867 22.6273 18.9447 23.0061C20.1515 22.7361 21.2663 22.4128 22.3067 22.0983C22.3356 21.8538 22.368 21.619 22.403 21.396Z" fill="url(#paint13_linear_400_11435)"/>
<path d="M22.9645 15.8208C23.0096 14.7166 23.0079 13.6774 22.9517 12.7693C21.9395 13.029 20.864 13.2425 19.7259 13.3621C19.5978 14.3423 19.5416 15.4637 19.4892 16.6459C20.7368 16.4233 21.8891 16.1278 22.9645 15.8208Z" fill="url(#paint14_linear_400_11435)"/>
<path d="M31.4826 22.1831C32.2706 22.6687 33.1127 22.9961 33.9735 23.2059C33.9794 22.8616 33.9964 22.5274 34.0264 22.2061C34.1026 21.3579 34.267 20.6015 34.5586 20.0288C34.6264 19.8975 34.6871 19.7586 34.7438 19.6136C34.2759 19.4473 33.8119 19.2361 33.3569 18.9715C33.1351 18.844 32.9156 18.703 32.6993 18.5477C32.5809 18.4634 32.4623 18.3847 32.3434 18.3127C32.2948 18.5402 32.2445 18.7657 32.1936 18.988C31.936 20.1316 31.6683 21.2011 31.4827 22.1816C31.3369 22.0911 31.1945 21.9963 31.0529 21.8957C30.2315 21.3091 29.3912 21.0144 28.5075 20.9195C28.4947 21.0333 28.4593 21.352 28.4229 21.8031C28.4139 21.912 28.4053 22.0294 28.3961 22.1545C28.3612 22.6833 28.3308 23.3368 28.3286 24.0352C28.5366 24.0571 28.743 24.0886 28.9463 24.1344C29.6151 24.2802 30.2624 24.5546 30.8972 24.9969C31.0271 25.0881 31.1601 25.1742 31.2939 25.2549C31.3022 25.2609 31.3122 25.2669 31.3222 25.2729L31.319 25.2548C31.1593 24.3723 31.2628 23.3398 31.4826 22.1831Z" fill="url(#paint15_linear_400_11435)"/>
<path d="M29.2669 17.5416C30.3507 17.5075 31.3621 17.7136 32.3422 18.3128C32.5224 17.4769 32.6877 16.6034 32.807 15.7016C32.8251 15.5626 32.8426 15.4218 32.8587 15.2804C31.7958 14.5214 30.7003 14.2498 29.5208 14.2712C29.526 14.7227 29.5114 15.2123 29.4739 15.7416C29.4341 16.2984 29.3668 16.8981 29.2669 17.5416Z" fill="url(#paint16_linear_400_11435)"/>
<path d="M34.5261 30.8546C34.4657 31.4423 34.3077 32.4359 34.1446 33.386C35.0165 33.427 36.0102 33.4111 37.0186 33.3342C37.0461 32.57 37.0274 31.4379 36.8733 29.8482C36.0897 29.8963 35.2846 29.9007 34.4887 29.8431C34.5306 30.2884 34.549 30.6381 34.5261 30.8546Z" fill="url(#paint17_linear_400_11435)"/>
<path d="M34.0301 25.2727C34.0535 25.6332 34.0836 25.9923 34.116 26.347C34.8924 26.5107 35.6794 26.5837 36.4498 26.596C36.4157 26.3809 36.3793 26.1611 36.3416 25.9363C36.3416 25.9363 36.3238 25.6925 36.3173 25.2864C36.3089 24.8487 36.3128 24.224 36.3611 23.5155C35.5716 23.4924 34.7646 23.3995 33.9738 23.2056C33.9604 23.8747 33.9852 24.5753 34.0301 25.2727Z" fill="url(#paint18_linear_400_11435)"/>
<path d="M36.4493 26.5956C36.5607 27.2946 36.6513 27.9395 36.7253 28.5343C36.7849 29.0035 36.8339 29.4405 36.8733 29.8483C37.3429 29.8199 37.8052 29.7775 38.2535 29.723C38.8312 29.6538 39.3862 29.567 39.9078 29.4712C39.9039 29.4575 39.8999 29.4433 39.8945 29.4301C39.8089 29.1994 39.7286 28.8929 39.6581 28.5304C39.5401 27.9359 39.4463 27.1886 39.3957 26.3649C38.8437 26.4541 38.2551 26.5253 37.6436 26.5643C37.253 26.5902 36.8534 26.6007 36.4493 26.5956Z" fill="url(#paint19_linear_400_11435)"/>
<path d="M36.8322 20.6282C36.7601 20.8784 36.6964 21.1346 36.6433 21.3925C36.5838 21.6695 36.5357 21.9488 36.4955 22.2268C36.4314 22.6692 36.3881 23.106 36.3606 23.5153C36.5934 23.5226 36.8249 23.5233 37.0542 23.5177C37.8804 23.502 38.6765 23.416 39.4074 23.2966C39.4342 22.9451 39.4686 22.5959 39.5154 22.2549C39.623 21.456 39.788 20.6983 40.023 20.0391C40.0329 20.0127 40.0426 19.9855 40.0504 19.9594C39.1185 20.1176 38.0725 20.197 36.9906 20.0979C36.9365 20.2733 36.884 20.4497 36.8322 20.6282Z" fill="url(#paint20_linear_400_11435)"/>
<path d="M40.453 15.6085C40.3974 14.8448 40.2997 14.1711 40.2156 13.6882C39.3997 13.7981 38.455 13.8397 37.5061 13.6932C37.6942 14.3881 37.7847 15.0314 37.8057 15.64C37.8214 16.0639 37.8021 16.4713 37.7586 16.8677C38.7346 16.8997 39.6669 16.7995 40.4969 16.6394C40.4923 16.2842 40.4764 15.9382 40.453 15.6085Z" fill="url(#paint21_linear_400_11435)"/>
<path d="M25.5124 21.1941C26.4704 20.9727 27.3659 20.848 28.2186 20.896L28.2191 20.8974C28.3151 20.9018 28.4116 20.9092 28.5075 20.9193C28.512 20.8888 28.5134 20.8726 28.5134 20.8726C28.7 20.2295 28.8565 19.614 28.9832 19.0305C29.0988 18.5097 29.1927 18.0141 29.2669 17.5412C28.703 17.5589 28.1221 17.6409 27.5155 17.7672C27.0768 17.8571 26.6244 17.9712 26.158 18.1005C26.1213 18.4233 26.0763 18.748 26.0222 19.0705C25.9019 19.7931 25.7364 20.5095 25.5124 21.1941Z" fill="url(#paint22_linear_400_11435)"/>
<path d="M40.4971 16.64C40.5056 17.3709 40.4615 18.1401 40.3266 18.8777C40.2598 19.2498 40.1688 19.6124 40.0506 19.9598C41.4636 19.719 42.6116 19.2996 43.2208 19.0455C43.2298 18.9766 43.2392 18.9074 43.2482 18.8384C43.3944 17.7111 43.5176 16.682 43.474 15.7395C42.9319 15.9707 41.8524 16.3818 40.4971 16.64Z" fill="url(#paint23_linear_400_11435)"/>
<path d="M25.4692 21.3239C25.4831 21.2809 25.4986 21.2373 25.5124 21.1939C24.5186 21.4216 23.4583 21.7535 22.3067 22.0983C22.1988 23.0298 22.1374 24.1 22.1086 25.1967C23.2202 24.8645 24.2474 24.5492 25.2137 24.3259C25.1642 23.5023 25.1649 22.7827 25.2727 22.1258C25.3177 21.8486 25.3808 21.5815 25.4692 21.3239Z" fill="url(#paint24_linear_400_11435)"/>
<path d="M28.6672 27.4964C28.4933 26.8066 28.4009 26.0203 28.3592 25.2363C28.3365 24.8301 28.3285 24.426 28.3286 24.0348C27.3529 23.9329 26.3248 24.0691 25.2138 24.3263C25.2303 24.611 25.2531 24.907 25.2801 25.2176C25.3383 25.9163 25.4176 26.6866 25.4869 27.5464C26.6357 27.3426 27.702 27.3726 28.7331 27.8172C28.715 27.706 28.6936 27.598 28.6672 27.4964Z" fill="url(#paint25_linear_400_11435)"/>
<path d="M31.6891 29.3229C31.697 30.6126 31.6414 31.8965 31.5757 32.9223C31.3527 32.821 31.1057 32.7011 30.8404 32.5662L30.8389 32.5667C30.5357 32.4137 30.2075 32.244 29.8584 32.0708C29.7125 31.9986 29.5611 31.9248 29.4064 31.8512C29.2541 31.7798 29.0972 31.7064 28.9385 31.6358C28.8041 31.575 28.6669 31.5158 28.5276 31.4568C28.606 31.0168 28.6741 30.576 28.7206 30.1451C28.7201 30.1438 28.7201 30.1438 28.7201 30.1438C28.7456 29.9298 28.7656 29.7193 28.7782 29.513C28.8019 29.1773 28.8097 28.852 28.8006 28.5475C28.7973 28.4663 28.7928 28.3865 28.7871 28.3077C28.7757 28.1369 28.7562 27.9727 28.7333 27.8178C29.0373 27.9482 29.3373 28.1171 29.6376 28.3252C29.7339 28.3917 29.8307 28.4551 29.9313 28.515C29.9427 28.5265 29.9603 28.5363 29.9791 28.5451C30.5094 28.8723 31.0843 29.1271 31.6891 29.3229Z" fill="url(#paint26_linear_400_11435)"/>
<path d="M36.8735 29.8489C37.0277 31.4391 37.0463 32.5707 37.0188 33.3349C37.6533 33.2869 38.2935 33.2162 38.91 33.1217C39.2646 33.0674 39.6108 33.0056 39.9453 32.936C40.0893 31.6001 40.153 30.1879 39.908 29.4718C39.3864 29.5676 38.8313 29.6544 38.2537 29.7236C37.8054 29.7781 37.3431 29.8205 36.8735 29.8489Z" fill="url(#paint27_linear_400_11435)"/>
<path d="M34.7431 19.6135C34.6864 19.7585 34.6258 19.8973 34.5579 20.0287C34.2662 20.6009 34.1023 21.3571 34.0257 22.2059C33.9962 22.527 33.9795 22.8616 33.9729 23.2058C34.7636 23.3997 35.5706 23.4926 36.3601 23.5157C36.3876 23.1063 36.4311 22.6699 36.495 22.2271C36.5357 21.9489 36.5831 21.6693 36.6428 21.3928C36.6959 21.1349 36.7596 20.8787 36.8317 20.6286C36.8835 20.45 36.9356 20.2738 36.9891 20.0986C36.7861 20.0795 36.5824 20.0556 36.3774 20.0235C35.8355 19.9407 35.2861 19.8066 34.7431 19.6135Z" fill="url(#paint28_linear_400_11435)"/>
<path d="M32.3427 18.3124C32.4617 18.3844 32.5802 18.463 32.6986 18.5473C32.9149 18.7026 33.1351 18.8439 33.3563 18.9712C33.8111 19.2353 34.2758 19.4468 34.7431 19.6133C34.8229 19.4043 34.8933 19.1831 34.9507 18.9509C35.1437 18.1856 35.2223 17.3179 35.2331 16.4557C34.6482 16.2733 34.0654 16.0244 33.4966 15.6926C33.2813 15.5677 33.0682 15.4305 32.8587 15.2802C32.8426 15.4216 32.825 15.562 32.807 15.7014C32.6879 16.6036 32.5224 17.4767 32.3427 18.3124Z" fill="url(#paint29_linear_400_11435)"/>
<path d="M37.7588 16.8683C37.8022 16.4719 37.8216 16.0645 37.8058 15.6406C37.7847 15.0315 37.6942 14.3882 37.5062 13.6938C36.63 13.5598 35.7518 13.2653 34.9686 12.7188C34.9605 12.7152 34.9537 12.7101 34.9468 12.705C35.0582 13.4363 35.1904 14.518 35.2255 15.6734C35.234 15.9316 35.2375 16.1932 35.2334 16.4565C35.3935 16.5065 35.5545 16.5515 35.7156 16.5919C36.4027 16.7619 37.0907 16.8471 37.7588 16.8683Z" fill="url(#paint30_linear_400_11435)"/>
<path d="M31.5765 32.9217C31.6322 32.9459 31.6868 32.97 31.7406 32.9919C32.2522 33.205 33.1132 33.337 34.1452 33.3865C34.3082 32.436 34.4658 31.4429 34.5268 30.8551C34.5496 30.6385 34.5313 30.2889 34.4894 29.8436C33.5285 29.7733 32.5783 29.6126 31.6891 29.3231C31.697 30.6128 31.6418 31.8961 31.5765 32.9217Z" fill="url(#paint31_linear_400_11435)"/>
<path d="M26.0967 11.8094C25.1214 12.1416 24.076 12.4836 22.9512 12.7702C23.0074 13.6783 23.0091 14.7175 22.964 15.8217C24.1651 15.4806 25.2692 15.1232 26.3006 14.8393C26.279 13.5966 26.1816 12.5246 26.0967 11.8094Z" fill="url(#paint32_linear_400_11435)"/>
<path d="M26.0222 19.0705C26.0763 18.748 26.1213 18.4233 26.158 18.1006C25.0946 18.3931 23.953 18.7626 22.7087 19.1154C22.6238 19.8798 22.5219 20.6453 22.4024 21.3959C22.368 21.6192 22.3356 21.854 22.3062 22.0987C23.4579 21.7538 24.5187 21.4218 25.5119 21.1943C25.7364 20.5095 25.902 19.7931 26.0222 19.0705Z" fill="url(#paint33_linear_400_11435)"/>
<path d="M25.2138 24.3266C24.2474 24.5494 23.2203 24.8651 22.1088 25.1974C22.0782 26.3307 22.0821 27.4924 22.1014 28.557C23.3217 28.1169 24.4387 27.7336 25.4869 27.5467C25.4176 26.6868 25.3388 25.9163 25.2801 25.2179C25.2531 24.9072 25.2301 24.6108 25.2138 24.3266Z" fill="url(#paint34_linear_400_11435)"/>
<path d="M18.3529 13.4584L18.1277 16.8522C17.6536 16.9111 17.1655 16.9578 16.6646 16.989L16.9208 13.4488C17.4299 13.8605 18.3529 13.4584 18.3529 13.4584Z" fill="url(#paint35_linear_400_11435)"/>
<path d="M19.7254 13.3627C19.5973 14.343 19.5411 15.4643 19.4887 16.6465C19.2588 16.6872 19.0273 16.725 18.7909 16.7615C18.5725 16.794 18.3513 16.8249 18.1276 16.8518L18.3529 13.4584C18.5669 13.4507 18.7789 13.4408 18.9887 13.4261C19.2374 13.4094 19.4828 13.3883 19.7254 13.3627Z" fill="url(#paint36_linear_400_11435)"/>
<path d="M28.4231 21.8036C28.4593 21.3521 28.4949 21.0339 28.5077 20.9201C28.4118 20.91 28.3153 20.9026 28.2192 20.8982L28.2188 20.8968C27.366 20.8488 26.4706 20.9735 25.5125 21.1949C25.4986 21.2379 25.4831 21.2814 25.4693 21.3248C25.381 21.5824 25.3178 21.8496 25.2729 22.1267C25.1651 22.7837 25.1644 23.5032 25.2139 24.3269C26.3248 24.0696 27.3531 23.9339 28.3286 24.0353C28.3304 23.3371 28.3612 22.6834 28.3961 22.1546C28.4048 22.0296 28.4136 21.9127 28.4231 21.8036Z" fill="url(#paint37_linear_400_11435)"/>
<path d="M28.5134 20.8724C28.5134 20.8724 28.5121 20.8886 28.5075 20.919C29.3912 21.0139 30.2315 21.3086 31.0529 21.8952C31.1945 21.9958 31.3369 22.0906 31.4827 22.1811C31.6678 21.2008 31.936 20.1311 32.1936 18.9875C32.2444 18.7648 32.2949 18.5397 32.3434 18.3123C31.3627 17.7133 30.3517 17.5066 29.2681 17.5411C29.1933 18.0141 29.0999 18.5096 28.9844 19.0304C28.856 19.6139 28.6995 20.2294 28.5134 20.8724Z" fill="url(#paint38_linear_400_11435)"/>
<path d="M32.8594 15.2806C33.0205 13.8552 33.054 12.3599 32.8304 10.8156C31.7959 10.2727 30.5367 10.4171 29.0374 10.8399C29.2382 11.47 29.5035 12.6103 29.521 14.2716C30.7009 14.25 31.7963 14.5211 32.8594 15.2806Z" fill="url(#paint39_linear_400_11435)"/>
<path d="M36.4493 26.5956C35.6794 26.5832 34.8919 26.5104 34.1155 26.3467C34.1857 27.1258 34.2728 27.8746 34.3495 28.5382C34.4055 29.0268 34.4553 29.4692 34.4887 29.8432C35.2846 29.9008 36.0897 29.8964 36.8733 29.8483C36.8337 29.4401 36.7849 29.0035 36.7253 28.5343C36.6514 27.94 36.5609 27.2951 36.4493 26.5956Z" fill="url(#paint40_linear_400_11435)"/>
<path d="M22.7092 19.1148C22.8345 17.9946 22.9211 16.8773 22.9645 15.8207C21.889 16.1277 20.7368 16.4233 19.4892 16.6458C19.4417 17.7049 19.3994 18.8137 19.3095 19.9145C20.5275 19.6981 21.6553 19.4135 22.7092 19.1148Z" fill="url(#paint41_linear_400_11435)"/>
<path d="M26.158 18.1009C26.6249 17.9715 27.0768 17.8575 27.5156 17.7676C28.1222 17.6413 28.703 17.5593 29.2669 17.5416C29.3669 16.8982 29.4341 16.2985 29.474 15.742C29.5116 15.2128 29.5261 14.7232 29.521 14.2717C28.6728 14.2882 27.7824 14.4546 26.8269 14.6997C26.6532 14.7428 26.4778 14.7904 26.3006 14.8392C26.3073 15.1431 26.3078 15.4594 26.3033 15.7815C26.291 16.526 26.2493 17.3095 26.158 18.1009Z" fill="url(#paint42_linear_400_11435)"/>
<path d="M42.6507 13.0998C42.6507 13.0998 41.6246 13.498 40.2151 13.6886C40.2992 14.1715 40.3969 14.8451 40.4526 15.6089C40.4759 15.9386 40.4919 16.2851 40.4966 16.6402C41.8521 16.3825 42.9315 15.9713 43.473 15.7399C43.4701 15.6843 43.4667 15.6274 43.4622 15.572C43.4032 14.6699 43.1757 13.8484 42.6507 13.0998Z" fill="url(#paint43_linear_400_11435)"/>
<path d="M17.9108 20.124L17.7029 23.2568C17.2139 23.3453 16.7108 23.4213 16.1934 23.4827L16.4279 20.2573C16.9369 20.2282 17.4311 20.1828 17.9108 20.124Z" fill="url(#paint44_linear_400_11435)"/>
<path d="M19.3094 19.9142C19.2578 20.5739 19.1883 21.2316 19.0925 21.8725C19.0368 22.2492 18.9866 22.6268 18.9445 23.0056C18.769 23.0452 18.5913 23.0836 18.4122 23.121C18.1793 23.1689 17.943 23.2134 17.7032 23.2562L17.9111 20.1234C18.1436 20.0959 18.3705 20.0654 18.5959 20.0308C18.8378 19.9954 19.0754 19.9559 19.3094 19.9142Z" fill="url(#paint45_linear_400_11435)"/>
<path d="M37.3361 18.9182C37.2274 19.3101 37.1084 19.7017 36.9903 20.0985C38.0727 20.1974 39.1185 20.1175 40.0501 19.9599C40.1683 19.6126 40.2593 19.2499 40.3261 18.8778C40.4613 18.1396 40.5056 17.3709 40.4966 16.6402C39.6666 16.8002 38.7343 16.9005 37.7583 16.8685C37.6808 17.5766 37.523 18.2482 37.3361 18.9182Z" fill="url(#paint46_linear_400_11435)"/>
<path d="M22.3062 22.0987C21.2657 22.4127 20.1511 22.7365 18.9442 23.0064C18.8267 24.042 18.7543 25.0864 18.7213 26.121C19.9364 25.8399 21.0589 25.5117 22.1082 25.1971C22.1371 24.1008 22.1989 23.0304 22.3062 22.0987Z" fill="url(#paint47_linear_400_11435)"/>
<path d="M39.5149 22.2551C39.4686 22.596 39.4337 22.9453 39.4069 23.2968C41.0379 23.0302 42.3377 22.5981 42.8874 22.397C42.8892 22.3604 42.891 22.3224 42.8933 22.2857C42.9468 21.1248 43.089 20.0464 43.2202 19.0453C42.6109 19.2994 41.4629 19.7188 40.0499 19.9596C40.0414 19.9854 40.032 20.0131 40.0225 20.0393C39.7876 20.6986 39.6225 21.4562 39.5149 22.2551Z" fill="url(#paint48_linear_400_11435)"/>
<path d="M33.9735 23.2056C33.1122 22.9959 32.2706 22.6683 31.4827 22.1827C31.2628 23.3394 31.1593 24.3719 31.3192 25.2549L31.3224 25.2729C32.1994 25.8035 33.149 26.1438 34.1155 26.3465C34.0831 25.9918 34.053 25.6328 34.0296 25.2723C33.9852 24.5747 33.9604 23.874 33.9735 23.2056Z" fill="url(#paint49_linear_400_11435)"/>
<path d="M36.3607 23.5158C36.3125 24.2244 36.3085 24.8491 36.317 25.2868C36.324 25.6927 36.3412 25.9366 36.3412 25.9366C36.3789 26.1615 36.4153 26.3813 36.4495 26.5963C36.8534 26.6009 37.2531 26.5909 37.6437 26.565C38.2548 26.5261 38.8439 26.4547 39.3958 26.3655C39.373 26.0235 39.3597 25.669 39.3542 25.3071C39.3416 24.651 39.3573 23.9694 39.4076 23.297C38.6768 23.4169 37.8811 23.5023 37.0544 23.5181C36.8249 23.5233 36.5934 23.5226 36.3607 23.5158Z" fill="url(#paint50_linear_400_11435)"/>
<path d="M18.9497 32.8129C19.9231 32.445 21.0316 31.9632 22.1899 31.3465C22.1895 31.3451 22.1895 31.3451 22.1895 31.3451C22.1564 30.5944 22.1212 29.624 22.1009 28.5568C21.0628 28.9296 19.9506 29.346 18.7397 29.7215C18.7842 30.7926 18.8577 31.8309 18.9497 32.8129Z" fill="url(#paint51_linear_400_11435)"/>
<path d="M17.4966 26.3788L17.2471 30.1449C16.7435 30.2732 16.2233 30.3897 15.6866 30.49L15.9671 26.6236C16.4916 26.554 17.0023 26.4712 17.4966 26.3788Z" fill="url(#paint52_linear_400_11435)"/>
<path d="M18.7218 26.121C18.6812 27.3433 18.693 28.5532 18.7406 29.7217C18.4998 29.7968 18.255 29.8687 18.0061 29.9385C17.7572 30.0099 17.5044 30.0782 17.2476 30.1449L17.4971 26.3787C17.7447 26.3315 17.9874 26.2816 18.2271 26.2308C18.3939 26.1948 18.5586 26.1591 18.7218 26.121Z" fill="url(#paint53_linear_400_11435)"/>
<path d="M25.5608 28.5513C25.6042 29.2078 25.6369 29.9117 25.6507 30.671C26.6586 30.7722 27.6337 31.0845 28.5266 31.4561C28.7079 30.4484 28.827 29.4203 28.7994 28.5463C28.7909 28.2881 28.7691 28.0438 28.7325 27.8175C27.7018 27.3727 26.6351 27.343 25.4863 27.5468C25.5128 27.8682 25.5384 28.2026 25.5608 28.5513Z" fill="url(#paint54_linear_400_11435)"/>
<path d="M31.3501 25.4061C31.3405 25.3611 31.3309 25.3181 31.3223 25.2727C31.3123 25.2667 31.3023 25.2608 31.2939 25.2547C31.1601 25.174 31.0269 25.0875 30.8972 24.9967C30.2625 24.5545 29.6149 24.2796 28.9463 24.1342C28.743 24.0884 28.5361 24.0571 28.3286 24.035C28.3281 24.4265 28.336 24.8305 28.3592 25.2366C28.401 26.0205 28.4933 26.8068 28.6673 27.4967C28.6936 27.5983 28.7149 27.7058 28.7327 27.8176C29.0368 27.9486 29.3376 28.1166 29.6373 28.3244C29.7329 28.3907 29.8297 28.4541 29.9308 28.5153C29.9431 28.526 29.9595 28.5357 29.979 28.5448C30.5087 28.8721 31.0854 29.1273 31.6886 29.3232C31.687 29.0625 31.6823 28.8008 31.675 28.5427C31.6413 27.4004 31.5467 26.296 31.3501 25.4061Z" fill="url(#paint55_linear_400_11435)"/>
<path d="M39.6581 28.5302C39.7286 28.8928 39.809 29.1996 39.8945 29.4299C39.9 29.4435 39.9039 29.4573 39.9078 29.471C41.1786 29.237 42.239 28.9531 42.9034 28.7583C42.902 28.681 42.9007 28.6036 42.8993 28.5247C42.8852 27.6155 42.8722 26.5774 42.8669 25.487C42.2426 25.7056 40.9667 26.1083 39.3952 26.3649C39.4463 27.1884 39.5401 27.9358 39.6581 28.5302Z" fill="url(#paint56_linear_400_11435)"/>
</g>
<defs>
<linearGradient id="paint0_linear_400_11435" x1="17.4162" y1="29.529" x2="15.9044" y2="29.4178" gradientUnits="userSpaceOnUse">
<stop stop-color="#686A80"/>
<stop offset="0.1376" stop-color="#6C6E84"/>
<stop offset="0.2849" stop-color="#767B91"/>
<stop offset="0.4362" stop-color="#8790A6"/>
<stop offset="0.5755" stop-color="#9DABC0"/>
<stop offset="0.7991" stop-color="#E3E3E3"/>
<stop offset="0.8949" stop-color="#C7CFD8"/>
<stop offset="1" stop-color="#A4B6CB"/>
</linearGradient>
<linearGradient id="paint1_linear_400_11435" x1="18.636" y1="31.676" x2="38.7696" y2="31.2322" gradientUnits="userSpaceOnUse">
<stop stop-color="#172129"/>
<stop offset="0.1912" stop-color="#293643"/>
<stop offset="0.3674" stop-color="#676771"/>
<stop offset="0.5849" stop-color="#394450"/>
<stop offset="0.6915" stop-color="#21313E"/>
<stop offset="0.9971" stop-color="#172129"/>
</linearGradient>
<linearGradient id="paint2_linear_400_11435" x1="18.3439" y1="18.4243" x2="38.4775" y2="17.9805" gradientUnits="userSpaceOnUse">
<stop stop-color="#172129"/>
<stop offset="0.1912" stop-color="#293643"/>
<stop offset="0.3674" stop-color="#676771"/>
<stop offset="0.5849" stop-color="#394450"/>
<stop offset="0.6915" stop-color="#21313E"/>
<stop offset="0.9971" stop-color="#172129"/>
</linearGradient>
<linearGradient id="paint3_linear_400_11435" x1="18.483" y1="24.7352" x2="38.6166" y2="24.2914" gradientUnits="userSpaceOnUse">
<stop stop-color="#172129"/>
<stop offset="0.1912" stop-color="#293643"/>
<stop offset="0.3674" stop-color="#676771"/>
<stop offset="0.5849" stop-color="#394450"/>
<stop offset="0.6915" stop-color="#21313E"/>
<stop offset="0.9971" stop-color="#172129"/>
</linearGradient>
<linearGradient id="paint4_linear_400_11435" x1="18.6571" y1="32.6316" x2="38.7906" y2="32.1878" gradientUnits="userSpaceOnUse">
<stop stop-color="#172129"/>
<stop offset="0.1912" stop-color="#293643"/>
<stop offset="0.3674" stop-color="#676771"/>
<stop offset="0.5849" stop-color="#394450"/>
<stop offset="0.6915" stop-color="#21313E"/>
<stop offset="0.9971" stop-color="#172129"/>
</linearGradient>
<linearGradient id="paint5_linear_400_11435" x1="18.3713" y1="19.6672" x2="38.5049" y2="19.2234" gradientUnits="userSpaceOnUse">
<stop stop-color="#172129"/>
<stop offset="0.1912" stop-color="#293643"/>
<stop offset="0.3674" stop-color="#676771"/>
<stop offset="0.5849" stop-color="#394450"/>
<stop offset="0.6915" stop-color="#21313E"/>
<stop offset="0.9971" stop-color="#172129"/>
</linearGradient>
<linearGradient id="paint6_linear_400_11435" x1="18.57" y1="28.682" x2="38.7036" y2="28.2382" gradientUnits="userSpaceOnUse">
<stop stop-color="#172129"/>
<stop offset="0.1912" stop-color="#293643"/>
<stop offset="0.3674" stop-color="#676771"/>
<stop offset="0.5849" stop-color="#394450"/>
<stop offset="0.6915" stop-color="#21313E"/>
<stop offset="0.9971" stop-color="#172129"/>
</linearGradient>
<linearGradient id="paint7_linear_400_11435" x1="18.5959" y1="29.8569" x2="38.7295" y2="29.4132" gradientUnits="userSpaceOnUse">
<stop stop-color="#172129"/>
<stop offset="0.1912" stop-color="#293643"/>
<stop offset="0.3674" stop-color="#676771"/>
<stop offset="0.5849" stop-color="#394450"/>
<stop offset="0.6915" stop-color="#21313E"/>
<stop offset="0.9971" stop-color="#172129"/>
</linearGradient>
<linearGradient id="paint8_linear_400_11435" x1="18.5143" y1="26.1544" x2="38.6479" y2="25.7106" gradientUnits="userSpaceOnUse">
<stop stop-color="#172129"/>
<stop offset="0.1912" stop-color="#293643"/>
<stop offset="0.3674" stop-color="#676771"/>
<stop offset="0.5849" stop-color="#394450"/>
<stop offset="0.6915" stop-color="#21313E"/>
<stop offset="0.9971" stop-color="#172129"/>
</linearGradient>
<linearGradient id="paint9_linear_400_11435" x1="18.2656" y1="14.8712" x2="38.3991" y2="14.4274" gradientUnits="userSpaceOnUse">
<stop stop-color="#172129"/>
<stop offset="0.1912" stop-color="#293643"/>
<stop offset="0.3674" stop-color="#676771"/>
<stop offset="0.5849" stop-color="#394450"/>
<stop offset="0.6915" stop-color="#21313E"/>
<stop offset="0.9971" stop-color="#172129"/>
</linearGradient>
<linearGradient id="paint10_linear_400_11435" x1="18.3227" y1="17.4617" x2="38.4563" y2="17.0179" gradientUnits="userSpaceOnUse">
<stop stop-color="#172129"/>
<stop offset="0.1912" stop-color="#293643"/>
<stop offset="0.3674" stop-color="#676771"/>
<stop offset="0.5849" stop-color="#394450"/>
<stop offset="0.6915" stop-color="#21313E"/>
<stop offset="0.9971" stop-color="#172129"/>
</linearGradient>
<linearGradient id="paint11_linear_400_11435" x1="18.0142" y1="15.0123" x2="38.5068" y2="11.1691" gradientUnits="userSpaceOnUse">
<stop stop-color="#172129"/>
<stop offset="0.1912" stop-color="#293643"/>
<stop offset="0.3674" stop-color="#676771"/>
<stop offset="0.5849" stop-color="#394450"/>
<stop offset="0.6915" stop-color="#21313E"/>
<stop offset="0.9971" stop-color="#172129"/>
</linearGradient>
<linearGradient id="paint12_linear_400_11435" x1="18.5463" y1="27.6071" x2="38.6799" y2="27.1633" gradientUnits="userSpaceOnUse">
<stop stop-color="#172129"/>
<stop offset="0.1912" stop-color="#293643"/>
<stop offset="0.3674" stop-color="#676771"/>
<stop offset="0.5849" stop-color="#394450"/>
<stop offset="0.6915" stop-color="#21313E"/>
<stop offset="0.9971" stop-color="#172129"/>
</linearGradient>
<linearGradient id="paint13_linear_400_11435" x1="18.4062" y1="21.2504" x2="38.5398" y2="20.8066" gradientUnits="userSpaceOnUse">
<stop stop-color="#172129"/>
<stop offset="0.1912" stop-color="#293643"/>
<stop offset="0.3674" stop-color="#676771"/>
<stop offset="0.5849" stop-color="#394450"/>
<stop offset="0.6915" stop-color="#21313E"/>
<stop offset="0.9971" stop-color="#172129"/>
</linearGradient>
<linearGradient id="paint14_linear_400_11435" x1="18.2671" y1="14.9387" x2="38.4007" y2="14.4949" gradientUnits="userSpaceOnUse">
<stop stop-color="#172129"/>
<stop offset="0.1912" stop-color="#293643"/>
<stop offset="0.3674" stop-color="#676771"/>
<stop offset="0.5849" stop-color="#394450"/>
<stop offset="0.6915" stop-color="#21313E"/>
<stop offset="0.9971" stop-color="#172129"/>
</linearGradient>
<linearGradient id="paint15_linear_400_11435" x1="18.4413" y1="22.8424" x2="38.5749" y2="22.3987" gradientUnits="userSpaceOnUse">
<stop stop-color="#172129"/>
<stop offset="0.1912" stop-color="#293643"/>
<stop offset="0.3674" stop-color="#676771"/>
<stop offset="0.5849" stop-color="#394450"/>
<stop offset="0.6915" stop-color="#21313E"/>
<stop offset="0.9971" stop-color="#172129"/>
</linearGradient>
<linearGradient id="paint16_linear_400_11435" x1="18.3187" y1="17.2804" x2="38.4523" y2="16.8366" gradientUnits="userSpaceOnUse">
<stop stop-color="#172129"/>
<stop offset="0.1912" stop-color="#293643"/>
<stop offset="0.3674" stop-color="#676771"/>
<stop offset="0.5849" stop-color="#394450"/>
<stop offset="0.6915" stop-color="#21313E"/>
<stop offset="0.9971" stop-color="#172129"/>
</linearGradient>
<linearGradient id="paint17_linear_400_11435" x1="18.6637" y1="32.9289" x2="38.7972" y2="32.4851" gradientUnits="userSpaceOnUse">
<stop stop-color="#172129"/>
<stop offset="0.1912" stop-color="#293643"/>
<stop offset="0.3674" stop-color="#676771"/>
<stop offset="0.5849" stop-color="#394450"/>
<stop offset="0.6915" stop-color="#21313E"/>
<stop offset="0.9971" stop-color="#172129"/>
</linearGradient>
<linearGradient id="paint18_linear_400_11435" x1="18.5155" y1="26.2098" x2="38.6491" y2="25.766" gradientUnits="userSpaceOnUse">
<stop stop-color="#172129"/>
<stop offset="0.1912" stop-color="#293643"/>
<stop offset="0.3674" stop-color="#676771"/>
<stop offset="0.5849" stop-color="#394450"/>
<stop offset="0.6915" stop-color="#21313E"/>
<stop offset="0.9971" stop-color="#172129"/>
</linearGradient>
<linearGradient id="paint19_linear_400_11435" x1="18.5912" y1="29.6406" x2="38.7247" y2="29.1968" gradientUnits="userSpaceOnUse">
<stop stop-color="#172129"/>
<stop offset="0.1912" stop-color="#293643"/>
<stop offset="0.3674" stop-color="#676771"/>
<stop offset="0.5849" stop-color="#394450"/>
<stop offset="0.6915" stop-color="#21313E"/>
<stop offset="0.9971" stop-color="#172129"/>
</linearGradient>
<linearGradient id="paint20_linear_400_11435" x1="18.4509" y1="23.2768" x2="38.5844" y2="22.833" gradientUnits="userSpaceOnUse">
<stop stop-color="#172129"/>
<stop offset="0.1912" stop-color="#293643"/>
<stop offset="0.3674" stop-color="#676771"/>
<stop offset="0.5849" stop-color="#394450"/>
<stop offset="0.6915" stop-color="#21313E"/>
<stop offset="0.9971" stop-color="#172129"/>
</linearGradient>
<linearGradient id="paint21_linear_400_11435" x1="18.3088" y1="16.8299" x2="38.4423" y2="16.3862" gradientUnits="userSpaceOnUse">
<stop stop-color="#172129"/>
<stop offset="0.1912" stop-color="#293643"/>
<stop offset="0.3674" stop-color="#676771"/>
<stop offset="0.5849" stop-color="#394450"/>
<stop offset="0.6915" stop-color="#21313E"/>
<stop offset="0.9971" stop-color="#172129"/>
</linearGradient>
<linearGradient id="paint22_linear_400_11435" x1="18.3802" y1="20.0694" x2="38.5137" y2="19.6256" gradientUnits="userSpaceOnUse">
<stop stop-color="#172129"/>
<stop offset="0.1912" stop-color="#293643"/>
<stop offset="0.3674" stop-color="#676771"/>
<stop offset="0.5849" stop-color="#394450"/>
<stop offset="0.6915" stop-color="#21313E"/>
<stop offset="0.9971" stop-color="#172129"/>
</linearGradient>
<linearGradient id="paint23_linear_400_11435" x1="18.3717" y1="19.6825" x2="38.5052" y2="19.2387" gradientUnits="userSpaceOnUse">
<stop stop-color="#172129"/>
<stop offset="0.1912" stop-color="#293643"/>
<stop offset="0.3674" stop-color="#676771"/>
<stop offset="0.5849" stop-color="#394450"/>
<stop offset="0.6915" stop-color="#21313E"/>
<stop offset="0.9971" stop-color="#172129"/>
</linearGradient>
<linearGradient id="paint24_linear_400_11435" x1="18.4584" y1="23.6151" x2="38.5919" y2="23.1713" gradientUnits="userSpaceOnUse">
<stop stop-color="#172129"/>
<stop offset="0.1912" stop-color="#293643"/>
<stop offset="0.3674" stop-color="#676771"/>
<stop offset="0.5849" stop-color="#394450"/>
<stop offset="0.6915" stop-color="#21313E"/>
<stop offset="0.9971" stop-color="#172129"/>
</linearGradient>
<linearGradient id="paint25_linear_400_11435" x1="18.5254" y1="26.6555" x2="38.6589" y2="26.2117" gradientUnits="userSpaceOnUse">
<stop stop-color="#172129"/>
<stop offset="0.1912" stop-color="#293643"/>
<stop offset="0.3674" stop-color="#676771"/>
<stop offset="0.5849" stop-color="#394450"/>
<stop offset="0.6915" stop-color="#21313E"/>
<stop offset="0.9971" stop-color="#172129"/>
</linearGradient>
<linearGradient id="paint26_linear_400_11435" x1="17.8413" y1="33.0544" x2="39.44" y2="29.0037" gradientUnits="userSpaceOnUse">
<stop stop-color="#172129"/>
<stop offset="0.1912" stop-color="#293643"/>
<stop offset="0.3674" stop-color="#676771"/>
<stop offset="0.5849" stop-color="#394450"/>
<stop offset="0.6915" stop-color="#21313E"/>
<stop offset="0.9971" stop-color="#172129"/>
</linearGradient>
<linearGradient id="paint27_linear_400_11435" x1="39.028" y1="31.4196" x2="20.1462" y2="29.4792" gradientUnits="userSpaceOnUse">
<stop stop-color="#C0D1E0"/>
<stop offset="0.0382" stop-color="#C5D5E3"/>
<stop offset="0.2586" stop-color="#DFE7EF"/>
<stop offset="0.4874" stop-color="#F1F5F8"/>
<stop offset="0.7277" stop-color="#FBFCFD"/>
<stop offset="0.9987" stop-color="white"/>
</linearGradient>
<linearGradient id="paint28_linear_400_11435" x1="40.0275" y1="21.6932" x2="21.1458" y2="19.7528" gradientUnits="userSpaceOnUse">
<stop stop-color="#C0D1E0"/>
<stop offset="0.0382" stop-color="#C5D5E3"/>
<stop offset="0.2586" stop-color="#DFE7EF"/>
<stop offset="0.4874" stop-color="#F1F5F8"/>
<stop offset="0.7277" stop-color="#FBFCFD"/>
<stop offset="0.9987" stop-color="white"/>
</linearGradient>
<linearGradient id="paint29_linear_400_11435" x1="40.4443" y1="17.6377" x2="21.5625" y2="15.6973" gradientUnits="userSpaceOnUse">
<stop stop-color="#C0D1E0"/>
<stop offset="0.0382" stop-color="#C5D5E3"/>
<stop offset="0.2586" stop-color="#DFE7EF"/>
<stop offset="0.4874" stop-color="#F1F5F8"/>
<stop offset="0.7277" stop-color="#FBFCFD"/>
<stop offset="0.9987" stop-color="white"/>
</linearGradient>
<linearGradient id="paint30_linear_400_11435" x1="40.7245" y1="14.9115" x2="21.8427" y2="12.9711" gradientUnits="userSpaceOnUse">
<stop stop-color="#C0D1E0"/>
<stop offset="0.0382" stop-color="#C5D5E3"/>
<stop offset="0.2586" stop-color="#DFE7EF"/>
<stop offset="0.4874" stop-color="#F1F5F8"/>
<stop offset="0.7277" stop-color="#FBFCFD"/>
<stop offset="0.9987" stop-color="white"/>
</linearGradient>
<linearGradient id="paint31_linear_400_11435" x1="39.0166" y1="31.5306" x2="20.1348" y2="29.5902" gradientUnits="userSpaceOnUse">
<stop stop-color="#C0D1E0"/>
<stop offset="0.0382" stop-color="#C5D5E3"/>
<stop offset="0.2586" stop-color="#DFE7EF"/>
<stop offset="0.4874" stop-color="#F1F5F8"/>
<stop offset="0.7277" stop-color="#FBFCFD"/>
<stop offset="0.9987" stop-color="white"/>
</linearGradient>
<linearGradient id="paint32_linear_400_11435" x1="40.7891" y1="14.2827" x2="21.9073" y2="12.3423" gradientUnits="userSpaceOnUse">
<stop stop-color="#C0D1E0"/>
<stop offset="0.0382" stop-color="#C5D5E3"/>
<stop offset="0.2586" stop-color="#DFE7EF"/>
<stop offset="0.4874" stop-color="#F1F5F8"/>
<stop offset="0.7277" stop-color="#FBFCFD"/>
<stop offset="0.9987" stop-color="white"/>
</linearGradient>
<linearGradient id="paint33_linear_400_11435" x1="40.1442" y1="20.5574" x2="21.2624" y2="18.617" gradientUnits="userSpaceOnUse">
<stop stop-color="#C0D1E0"/>
<stop offset="0.0382" stop-color="#C5D5E3"/>
<stop offset="0.2586" stop-color="#DFE7EF"/>
<stop offset="0.4874" stop-color="#F1F5F8"/>
<stop offset="0.7277" stop-color="#FBFCFD"/>
<stop offset="0.9987" stop-color="white"/>
</linearGradient>
<linearGradient id="paint34_linear_400_11435" x1="39.4927" y1="26.8976" x2="20.6109" y2="24.9572" gradientUnits="userSpaceOnUse">
<stop stop-color="#C0D1E0"/>
<stop offset="0.0382" stop-color="#C5D5E3"/>
<stop offset="0.2586" stop-color="#DFE7EF"/>
<stop offset="0.4874" stop-color="#F1F5F8"/>
<stop offset="0.7277" stop-color="#FBFCFD"/>
<stop offset="0.9987" stop-color="white"/>
</linearGradient>
<linearGradient id="paint35_linear_400_11435" x1="18.9944" y1="15.3527" x2="16.4157" y2="14.9136" gradientUnits="userSpaceOnUse">
<stop stop-color="#C0D1E0"/>
<stop offset="0.0382" stop-color="#C5D5E3"/>
<stop offset="0.2586" stop-color="#DFE7EF"/>
<stop offset="0.4874" stop-color="#F1F5F8"/>
<stop offset="0.7277" stop-color="#FBFCFD"/>
<stop offset="0.9987" stop-color="white"/>
</linearGradient>
<linearGradient id="paint36_linear_400_11435" x1="30.2548" y1="15.4329" x2="20.7134" y2="14.4523" gradientUnits="userSpaceOnUse">
<stop stop-color="#C0D1E0"/>
<stop offset="0.0382" stop-color="#C5D5E3"/>
<stop offset="0.2586" stop-color="#DFE7EF"/>
<stop offset="0.4874" stop-color="#F1F5F8"/>
<stop offset="0.7277" stop-color="#FBFCFD"/>
<stop offset="0.9987" stop-color="white"/>
</linearGradient>
<linearGradient id="paint37_linear_400_11435" x1="39.8943" y1="22.9897" x2="21.0125" y2="21.0493" gradientUnits="userSpaceOnUse">
<stop stop-color="#C0D1E0"/>
<stop offset="0.0382" stop-color="#C5D5E3"/>
<stop offset="0.2586" stop-color="#DFE7EF"/>
<stop offset="0.4874" stop-color="#F1F5F8"/>
<stop offset="0.7277" stop-color="#FBFCFD"/>
<stop offset="0.9987" stop-color="white"/>
</linearGradient>
<linearGradient id="paint38_linear_400_11435" x1="40.1874" y1="20.1367" x2="21.3056" y2="18.1963" gradientUnits="userSpaceOnUse">
<stop stop-color="#C0D1E0"/>
<stop offset="0.0382" stop-color="#C5D5E3"/>
<stop offset="0.2586" stop-color="#DFE7EF"/>
<stop offset="0.4874" stop-color="#F1F5F8"/>
<stop offset="0.7277" stop-color="#FBFCFD"/>
<stop offset="0.9987" stop-color="white"/>
</linearGradient>
<linearGradient id="paint39_linear_400_11435" x1="40.9081" y1="13.1245" x2="22.0263" y2="11.1841" gradientUnits="userSpaceOnUse">
<stop stop-color="#C0D1E0"/>
<stop offset="0.0382" stop-color="#C5D5E3"/>
<stop offset="0.2586" stop-color="#DFE7EF"/>
<stop offset="0.4874" stop-color="#F1F5F8"/>
<stop offset="0.7277" stop-color="#FBFCFD"/>
<stop offset="0.9987" stop-color="white"/>
</linearGradient>
<linearGradient id="paint40_linear_400_11435" x1="39.3539" y1="28.248" x2="20.4721" y2="26.3076" gradientUnits="userSpaceOnUse">
<stop stop-color="#C0D1E0"/>
<stop offset="0.0382" stop-color="#C5D5E3"/>
<stop offset="0.2586" stop-color="#DFE7EF"/>
<stop offset="0.4874" stop-color="#F1F5F8"/>
<stop offset="0.7277" stop-color="#FBFCFD"/>
<stop offset="0.9987" stop-color="white"/>
</linearGradient>
<linearGradient id="paint41_linear_400_11435" x1="40.3638" y1="18.4206" x2="21.482" y2="16.4802" gradientUnits="userSpaceOnUse">
<stop stop-color="#C0D1E0"/>
<stop offset="0.0382" stop-color="#C5D5E3"/>
<stop offset="0.2586" stop-color="#DFE7EF"/>
<stop offset="0.4874" stop-color="#F1F5F8"/>
<stop offset="0.7277" stop-color="#FBFCFD"/>
<stop offset="0.9987" stop-color="white"/>
</linearGradient>
<linearGradient id="paint42_linear_400_11435" x1="40.5559" y1="16.5518" x2="21.6741" y2="14.6113" gradientUnits="userSpaceOnUse">
<stop stop-color="#C0D1E0"/>
<stop offset="0.0382" stop-color="#C5D5E3"/>
<stop offset="0.2586" stop-color="#DFE7EF"/>
<stop offset="0.4874" stop-color="#F1F5F8"/>
<stop offset="0.7277" stop-color="#FBFCFD"/>
<stop offset="0.9987" stop-color="white"/>
</linearGradient>
<linearGradient id="paint43_linear_400_11435" x1="40.7313" y1="14.8448" x2="21.8495" y2="12.9044" gradientUnits="userSpaceOnUse">
<stop stop-color="#C0D1E0"/>
<stop offset="0.0382" stop-color="#C5D5E3"/>
<stop offset="0.2586" stop-color="#DFE7EF"/>
<stop offset="0.4874" stop-color="#F1F5F8"/>
<stop offset="0.7277" stop-color="#FBFCFD"/>
<stop offset="0.9987" stop-color="white"/>
</linearGradient>
<linearGradient id="paint44_linear_400_11435" x1="17.8837" y1="21.8758" x2="15.3049" y2="21.4367" gradientUnits="userSpaceOnUse">
<stop stop-color="#C0D1E0"/>
<stop offset="0.0382" stop-color="#C5D5E3"/>
<stop offset="0.2586" stop-color="#DFE7EF"/>
<stop offset="0.4874" stop-color="#F1F5F8"/>
<stop offset="0.7277" stop-color="#FBFCFD"/>
<stop offset="0.9987" stop-color="white"/>
</linearGradient>
<linearGradient id="paint45_linear_400_11435" x1="29.261" y1="21.895" x2="20.0921" y2="20.9528" gradientUnits="userSpaceOnUse">
<stop stop-color="#C0D1E0"/>
<stop offset="0.0382" stop-color="#C5D5E3"/>
<stop offset="0.2586" stop-color="#DFE7EF"/>
<stop offset="0.4874" stop-color="#F1F5F8"/>
<stop offset="0.7277" stop-color="#FBFCFD"/>
<stop offset="0.9987" stop-color="white"/>
</linearGradient>
<linearGradient id="paint46_linear_400_11435" x1="40.3634" y1="18.4253" x2="21.4816" y2="16.4849" gradientUnits="userSpaceOnUse">
<stop stop-color="#C0D1E0"/>
<stop offset="0.0382" stop-color="#C5D5E3"/>
<stop offset="0.2586" stop-color="#DFE7EF"/>
<stop offset="0.4874" stop-color="#F1F5F8"/>
<stop offset="0.7277" stop-color="#FBFCFD"/>
<stop offset="0.9987" stop-color="white"/>
</linearGradient>
<linearGradient id="paint47_linear_400_11435" x1="39.7224" y1="24.6627" x2="20.8406" y2="22.7223" gradientUnits="userSpaceOnUse">
<stop stop-color="#C0D1E0"/>
<stop offset="0.0382" stop-color="#C5D5E3"/>
<stop offset="0.2586" stop-color="#DFE7EF"/>
<stop offset="0.4874" stop-color="#F1F5F8"/>
<stop offset="0.7277" stop-color="#FBFCFD"/>
<stop offset="0.9987" stop-color="white"/>
</linearGradient>
<linearGradient id="paint48_linear_400_11435" x1="40.0849" y1="21.1354" x2="21.2031" y2="19.1949" gradientUnits="userSpaceOnUse">
<stop stop-color="#C0D1E0"/>
<stop offset="0.0382" stop-color="#C5D5E3"/>
<stop offset="0.2586" stop-color="#DFE7EF"/>
<stop offset="0.4874" stop-color="#F1F5F8"/>
<stop offset="0.7277" stop-color="#FBFCFD"/>
<stop offset="0.9987" stop-color="white"/>
</linearGradient>
<linearGradient id="paint49_linear_400_11435" x1="39.7427" y1="24.4643" x2="20.8609" y2="22.5238" gradientUnits="userSpaceOnUse">
<stop stop-color="#C0D1E0"/>
<stop offset="0.0382" stop-color="#C5D5E3"/>
<stop offset="0.2586" stop-color="#DFE7EF"/>
<stop offset="0.4874" stop-color="#F1F5F8"/>
<stop offset="0.7277" stop-color="#FBFCFD"/>
<stop offset="0.9987" stop-color="white"/>
</linearGradient>
<linearGradient id="paint50_linear_400_11435" x1="39.688" y1="24.9968" x2="20.8062" y2="23.0564" gradientUnits="userSpaceOnUse">
<stop stop-color="#C0D1E0"/>
<stop offset="0.0382" stop-color="#C5D5E3"/>
<stop offset="0.2586" stop-color="#DFE7EF"/>
<stop offset="0.4874" stop-color="#F1F5F8"/>
<stop offset="0.7277" stop-color="#FBFCFD"/>
<stop offset="0.9987" stop-color="white"/>
</linearGradient>
<linearGradient id="paint51_linear_400_11435" x1="39.0486" y1="31.2182" x2="20.1668" y2="29.2777" gradientUnits="userSpaceOnUse">
<stop stop-color="#C0D1E0"/>
<stop offset="0.0382" stop-color="#C5D5E3"/>
<stop offset="0.2586" stop-color="#DFE7EF"/>
<stop offset="0.4874" stop-color="#F1F5F8"/>
<stop offset="0.7277" stop-color="#FBFCFD"/>
<stop offset="0.9987" stop-color="white"/>
</linearGradient>
<linearGradient id="paint52_linear_400_11435" x1="16.7644" y1="28.4497" x2="14.1857" y2="28.0106" gradientUnits="userSpaceOnUse">
<stop stop-color="#C0D1E0"/>
<stop offset="0.0382" stop-color="#C5D5E3"/>
<stop offset="0.2586" stop-color="#DFE7EF"/>
<stop offset="0.4874" stop-color="#F1F5F8"/>
<stop offset="0.7277" stop-color="#FBFCFD"/>
<stop offset="0.9987" stop-color="white"/>
</linearGradient>
<linearGradient id="paint53_linear_400_11435" x1="29.3766" y1="28.4611" x2="19.6819" y2="27.4648" gradientUnits="userSpaceOnUse">
<stop stop-color="#C0D1E0"/>
<stop offset="0.0382" stop-color="#C5D5E3"/>
<stop offset="0.2586" stop-color="#DFE7EF"/>
<stop offset="0.4874" stop-color="#F1F5F8"/>
<stop offset="0.7277" stop-color="#FBFCFD"/>
<stop offset="0.9987" stop-color="white"/>
</linearGradient>
<linearGradient id="paint54_linear_400_11435" x1="39.1973" y1="29.7725" x2="20.3155" y2="27.8321" gradientUnits="userSpaceOnUse">
<stop stop-color="#C0D1E0"/>
<stop offset="0.0382" stop-color="#C5D5E3"/>
<stop offset="0.2586" stop-color="#DFE7EF"/>
<stop offset="0.4874" stop-color="#F1F5F8"/>
<stop offset="0.7277" stop-color="#FBFCFD"/>
<stop offset="0.9987" stop-color="white"/>
</linearGradient>
<linearGradient id="paint55_linear_400_11435" x1="39.4871" y1="26.9521" x2="20.6053" y2="25.0117" gradientUnits="userSpaceOnUse">
<stop stop-color="#C0D1E0"/>
<stop offset="0.0382" stop-color="#C5D5E3"/>
<stop offset="0.2586" stop-color="#DFE7EF"/>
<stop offset="0.4874" stop-color="#F1F5F8"/>
<stop offset="0.7277" stop-color="#FBFCFD"/>
<stop offset="0.9987" stop-color="white"/>
</linearGradient>
<linearGradient id="paint56_linear_400_11435" x1="39.4387" y1="27.423" x2="20.5569" y2="25.4826" gradientUnits="userSpaceOnUse">
<stop stop-color="#C0D1E0"/>
<stop offset="0.0382" stop-color="#C5D5E3"/>
<stop offset="0.2586" stop-color="#DFE7EF"/>
<stop offset="0.4874" stop-color="#F1F5F8"/>
<stop offset="0.7277" stop-color="#FBFCFD"/>
<stop offset="0.9987" stop-color="white"/>
</linearGradient>
<clipPath id="clip0_400_11435">
<rect width="42" height="38" fill="white" transform="translate(0.290802 15.2549) rotate(-20)"/>
</clipPath>
</defs>
</svg>
