<svg width="44" height="44" viewBox="0 0 44 44" fill="none" xmlns="http://www.w3.org/2000/svg">
<path d="M42.3728 19.9355C41.7308 19.8768 17.6332 21.0966 17.6332 21.0966L2.28845 18.081L23.1729 17.9658L42.3728 19.9355Z" fill="#D6E7FA"/>
<path d="M17.7489 29.6998L2.64033 26.3227C2.64033 26.3227 0.998801 24.4523 1.23283 21.8218C1.46631 19.1912 2.28845 18.0811 2.28845 18.0811L17.6338 21.0967C17.6338 21.0967 15.5919 22.5496 16.0594 25.6321C16.5236 28.7125 17.7489 29.6998 17.7489 29.6998Z" fill="url(#paint0_linear_400_11413)"/>
<path d="M6.93825 19.1377C6.93825 19.1377 6.11777 20.249 5.88428 22.8784C5.65631 25.4349 7.19817 27.2702 7.28902 27.375L5.91953 27.0695C5.91953 27.0695 4.27855 25.1991 4.51203 22.5669C4.74551 19.9374 5.566 18.8262 5.566 18.8262" fill="#FFD6B8"/>
<path d="M18.4262 21.8592C18.4262 21.8592 16.1585 25.2632 18.332 28.6666L41.092 27.84C41.092 27.84 42 27.682 42.3844 27.9042C42.766 28.1263 42.3734 28.7121 42.3734 28.7121L17.7494 29.6994C17.7494 29.6994 16.5242 28.7121 16.0594 25.6323C15.5919 22.5498 17.6338 21.0968 17.6338 21.0968C17.6338 21.0968 41.7313 19.8764 42.3734 19.9357C43.0154 19.9944 42.6068 20.8078 42.6068 20.8078L41.0914 20.8665L18.4262 21.8592Z" fill="#FFD6B8"/>
<path d="M40.4818 25.038C40.5837 26.4158 41.0914 27.8397 41.0914 27.8397L18.3314 28.6663C18.3314 28.6663 18.3287 28.6608 18.3232 28.6504C16.1657 25.2519 18.4251 21.859 18.4251 21.859L41.0909 20.8662C41.0909 20.8662 41.0777 21.0132 41.0397 21.2732C40.9725 21.7603 40.8299 22.6324 40.5644 23.6547C40.5512 23.7058 40.5402 23.7562 40.532 23.81C40.5132 23.89 40.4995 23.9734 40.4918 24.059C40.4593 24.3212 40.4571 24.5992 40.4703 24.8806C40.4736 24.9338 40.4763 24.9876 40.4818 25.038Z" fill="url(#paint1_linear_400_11413)"/>
<path d="M11.7956 19.299C11.7769 19.6336 11.7472 19.893 11.707 20.0938C11.7312 19.9281 11.7499 19.7274 11.7631 19.4915C11.7929 18.959 11.7015 18.603 11.5748 18.3677C11.3545 17.953 11.0241 17.9048 11.0241 17.9048L5.11444 16.2642V16.0635L11.0566 17.7117C11.0566 17.7117 11.387 17.76 11.6073 18.1746C11.734 18.4105 11.8254 18.7664 11.7956 19.299Z" fill="#9291A5"/>
<path d="M11.7631 19.4909C11.7499 19.7262 11.7306 19.9269 11.707 20.0931C11.707 20.0959 11.707 20.0986 11.7042 20.1013C11.5616 20.7705 11.2797 20.7541 10.8634 20.5752C10.5357 20.4359 7.48669 19.3954 5.11444 18.5924V16.2646L11.0247 17.9052C11.0247 17.9052 11.3551 17.9535 11.5754 18.3681C11.7015 18.6023 11.7929 18.9583 11.7631 19.4909Z" fill="url(#paint2_linear_400_11413)"/>
<path d="M38.9185 20.0721L11.6211 21.3753C11.6211 21.3753 12.3788 20.9234 12.3788 19.2587C12.3788 18.7985 12.3061 18.4425 12.2015 18.1721L38.9185 17C38.9185 17 39.5711 18.4875 38.9185 20.0721Z" fill="url(#paint3_linear_400_11413)"/>
<path d="M35.9747 19.8754L34.1668 19.9637C34.1019 20.0284 34.1668 19.9637 34.1668 19.9637C34.6085 18.8942 34.2869 17.7911 34.185 17.5087L35.9752 17.4297C35.9747 17.4302 36.4934 18.6133 35.9747 19.8754Z" fill="#718091"/>
<path d="M33.4444 19.959L32.6591 19.9968C33.1234 18.8362 32.744 17.7513 32.6619 17.5478L33.4444 17.5127C33.4444 17.5127 33.9609 18.6963 33.4444 19.959Z" fill="#718091"/>
<path d="M38.9185 17L12.2015 18.1722C11.9328 17.4684 11.4465 17.3264 11.4465 17.3264L3.67447 15.2311L5.11445 15.1829L31.1569 14.2998L38.9185 17Z" fill="url(#paint4_linear_400_11413)"/>
<path d="M12.3788 19.2585C12.3788 20.9226 11.6211 21.3751 11.6211 21.3751L5.11445 19.0605L3.76863 18.5816L3.75542 18.1319C4.1585 18.2684 4.62051 18.4264 5.115 18.5921C7.48726 19.395 10.5363 20.4355 10.8639 20.5749C11.4063 20.8074 11.718 20.7674 11.7962 19.2985C11.8259 18.7659 11.7345 18.41 11.6079 18.1747C11.3876 17.76 11.0572 17.7117 11.0572 17.7117L5.11445 16.0635L3.68768 15.6675L3.67447 15.2314L11.4465 17.3267C11.4465 17.3267 12.3788 17.5971 12.3788 19.2585Z" fill="url(#paint5_linear_400_11413)"/>
<path d="M21.8805 24.42L40.4923 24.0586C40.5006 23.973 40.5138 23.8902 40.5325 23.8096L21.8805 24.42Z" fill="#ABB5CA"/>
<path d="M31.3882 25.209L40.4819 25.0378C40.4764 24.9868 40.4736 24.9336 40.4709 24.8799L31.3882 25.209Z" fill="#ABB5CA"/>
<path d="M41.0914 20.8672C41.0914 20.8672 41.0782 21.0142 41.0402 21.2742L18.5357 22.2774C16.7466 25.0522 18.2053 28.3892 18.3237 28.6514C16.1662 25.2529 18.4256 21.86 18.4256 21.86L41.0914 20.8672Z" fill="url(#paint6_linear_400_11413)"/>
<path d="M6.38263 17.5566C6.38263 17.5566 6.20697 17.5649 6.20697 17.7651C6.20697 17.9653 6.20697 18.3026 6.20697 18.3026L6.52691 18.1715L6.83142 18.4276V17.9033C6.83142 17.9033 6.84684 17.7492 6.95532 17.7338L6.38263 17.5566Z" fill="#EC5E0F"/>
<path d="M8.02634 18.0775L5.11444 17.2131V17.082L8.02634 18.0775Z" fill="url(#paint7_linear_400_11413)"/>
<path d="M15.1376 15.6137C14.7384 15.6488 14.4664 15.7107 14.3072 15.7969C13.941 15.7354 13.5242 15.7053 13.0913 15.7113C13.2329 15.6373 13.4641 15.5884 13.7923 15.5627C14.2521 15.527 14.6872 15.5457 15.1376 15.6137Z" fill="#545F68"/>
<path d="M15.7598 15.9C15.7565 15.9055 15.7532 15.9115 15.7571 15.9142C15.7559 15.9162 15.7541 15.918 15.7526 15.9195C15.75 15.9221 15.748 15.924 15.7505 15.9258C15.501 15.9389 15.294 15.9641 15.1304 16.0003C15.0743 16.0119 15.0297 16.0223 14.9895 16.0355L14.9691 16.0228C14.8981 15.9543 14.7521 15.8923 14.5236 15.8407C14.6343 15.7623 14.8535 15.7064 15.1695 15.6729C15.2108 15.668 15.2676 15.6647 15.3127 15.6625L15.3579 15.6603C15.653 15.7305 15.7824 15.8128 15.7598 15.9Z" fill="#545F68"/>
<path d="M14.0324 16.2477C14.0914 16.2307 14.1624 16.2132 14.2521 16.2C14.2433 16.1996 14.2343 16.1992 14.2253 16.1987L14.2132 16.1981C14.1995 16.1974 14.1856 16.1967 14.1718 16.1962C13.8783 16.1808 13.5941 16.149 13.3579 16.1002C13.3392 16.104 13.3166 16.1051 13.294 16.1062C13.2373 16.1095 13.196 16.1144 13.1547 16.1194C12.8386 16.1528 12.6304 16.2082 12.5313 16.2861C12.6514 16.3075 12.7786 16.3262 12.924 16.3404C13.1883 16.3678 13.4741 16.3777 13.7659 16.3678C13.8078 16.3234 13.9025 16.2823 14.0324 16.2477Z" fill="#545F68"/>
<path d="M15.7907 16.5384C16.0902 16.5724 16.4025 16.5834 16.7241 16.5691C16.7912 16.471 16.6657 16.3832 16.3435 16.3037H16.294C16.2263 16.307 16.1541 16.3081 16.082 16.3092C15.8502 16.3102 15.6139 16.3004 15.3727 16.2801L15.3734 16.2805L15.3735 16.2805C15.4172 16.3083 15.4533 16.3313 15.4862 16.3602C15.5203 16.4051 15.528 16.4496 15.4867 16.4934C15.5908 16.5126 15.6982 16.5269 15.7907 16.5384Z" fill="#545F68"/>
<path d="M14.2593 15.9855C14.2098 15.9384 14.2059 15.8967 14.2362 15.8534C14.1316 15.8342 14.0203 15.8177 13.897 15.8018C13.6062 15.7727 13.316 15.7607 13.0132 15.7711C12.9862 15.8084 12.9972 15.8468 13.0423 15.8835C13.0974 15.9422 13.2274 15.9932 13.4212 16.0387L13.4779 16.0355C13.501 16.0369 13.5299 16.0354 13.5519 16.0343L13.5519 16.0343L13.5611 16.0338C13.8381 16.03 14.1084 16.0376 14.3689 16.0629C14.3171 16.0382 14.2769 16.0124 14.2593 15.9855Z" fill="#545F68"/>
<path d="M13.1486 16.053C12.7494 16.0881 12.4774 16.1501 12.3182 16.2362C12.0957 16.1731 11.9316 16.076 12.0253 15.979C12.1233 15.8846 12.3606 15.8248 12.745 15.7875C12.7229 15.8841 12.8645 15.974 13.1486 16.053Z" fill="#545F68"/>
<path d="M14.1183 16.6942C13.9818 16.6542 13.8788 16.6125 13.8105 16.5686C13.7378 16.5225 13.7108 16.4737 13.7218 16.426C13.2819 16.4359 12.8694 16.4073 12.4917 16.347C12.4818 16.4501 12.6569 16.5384 13.0087 16.6059C13.3298 16.6695 13.7086 16.6991 14.1183 16.6942Z" fill="#545F68"/>
<path d="M16.6707 15.9323C16.8656 15.9471 17.0616 15.9702 17.2428 15.9992C17.256 15.8983 17.0963 15.8122 16.7367 15.7398C16.4273 15.6756 16.06 15.6449 15.6459 15.6477C15.9234 15.7299 16.0528 15.8204 16.0159 15.9142C16.2318 15.9109 16.4487 15.9164 16.6707 15.9323Z" fill="#545F68"/>
<path d="M17.191 16.0601C17.1415 16.0991 17.0682 16.1309 16.9532 16.1589C16.8122 16.194 16.636 16.223 16.4019 16.2384C16.2549 16.2071 16.0776 16.1808 15.8898 16.1627C15.7593 16.1501 15.6332 16.1402 15.4922 16.1364C15.664 16.1051 15.794 16.07 15.8926 16.0234C15.9074 16.0171 15.9185 16.0083 15.9296 15.9995L15.9333 15.9967C15.9346 15.9956 15.9359 15.9946 15.9372 15.9936C15.9401 15.9914 15.943 15.9893 15.946 15.9872C15.9464 15.987 15.9469 15.9868 15.9473 15.9865L15.948 15.9862L15.9487 15.9857C15.9497 15.9852 15.9507 15.9845 15.9517 15.9839C15.9563 15.9809 15.9618 15.9773 15.9752 15.9746C16.1492 15.968 16.3397 15.9718 16.511 15.9795C16.756 15.9943 16.9939 16.0206 17.191 16.0601Z" fill="#545F68"/>
<path d="M14.5154 16.6733C14.8584 16.641 15.077 16.585 15.1993 16.5061C14.9939 16.4611 14.8485 16.4079 14.7709 16.3508C14.751 16.3382 14.7268 16.3223 14.718 16.3091C14.5291 16.3612 14.289 16.3964 13.9867 16.415C13.9713 16.4518 13.9779 16.4879 14.0159 16.5274C14.082 16.585 14.2009 16.6371 14.3948 16.6827L14.4289 16.681C14.4443 16.68 14.4565 16.6787 14.4686 16.6773C14.4829 16.6758 14.4968 16.6742 14.5154 16.6733Z" fill="#545F68"/>
<path d="M16.6348 16.6295C16.479 16.7101 16.202 16.7611 15.8281 16.7809L15.8166 16.7814C15.4085 16.8033 15.0115 16.7852 14.6337 16.7249C14.9994 16.6914 15.2637 16.6328 15.4157 16.5499C15.6007 16.5817 15.8083 16.6042 16.022 16.6152C16.2285 16.6289 16.4339 16.635 16.6348 16.6295Z" fill="#545F68"/>
<path d="M17.0033 16.5516C17.3425 16.517 17.5903 16.4485 17.6778 16.3629C17.7538 16.2779 17.658 16.1857 17.392 16.1106C17.3199 16.1506 17.2279 16.1863 17.0903 16.2159C16.9642 16.245 16.8028 16.2675 16.6106 16.2861C16.8838 16.3662 17.0253 16.4556 17.0033 16.5516Z" fill="#545F68"/>
<path d="M15.2488 16.4282C15.2495 16.4287 15.2499 16.4292 15.25 16.4297C15.2501 16.4301 15.2501 16.4304 15.25 16.4308C15.25 16.4311 15.2499 16.4314 15.2499 16.4317C15.2494 16.4336 15.2489 16.4359 15.2538 16.4391C15.0236 16.3706 14.9129 16.285 14.946 16.2274C14.9523 16.2297 14.9586 16.2319 14.965 16.2342L14.9751 16.2377L14.9873 16.242C15.001 16.2468 15.0148 16.2516 15.0286 16.2565C15.185 16.3092 15.251 16.3667 15.2488 16.4282Z" fill="#545F68"/>
<path d="M15.1288 16.1874C15.3331 16.2236 15.7164 16.2559 16.0919 16.2527C15.9218 16.2225 15.734 16.2049 15.5209 16.1945C15.376 16.1879 15.2505 16.1863 15.1288 16.1874Z" fill="#545F68"/>
<path d="M15.6618 15.9943C15.5715 16.0464 15.2659 16.1101 15.0473 16.1271C15.0726 16.1117 15.1205 16.0952 15.1684 16.0788C15.305 16.0409 15.4697 16.013 15.6618 15.9943Z" fill="#545F68"/>
<path d="M14.7676 16.1062C14.7615 16.0788 14.7439 16.0519 14.7108 16.0228C14.6618 15.9839 14.5902 15.9455 14.4768 15.9131C14.4641 15.9834 14.5963 16.0596 14.7676 16.1062Z" fill="#545F68"/>
<path d="M14.5512 16.1479C14.2477 16.1501 13.957 16.1292 13.6833 16.0887C13.8199 16.0898 14.0368 16.0947 14.1943 16.109C14.332 16.1183 14.4509 16.1314 14.5512 16.1479Z" fill="#545F68"/>
<path d="M14.0754 16.3459C14.3612 16.3168 14.5688 16.2609 14.6519 16.2121C14.517 16.228 14.397 16.2455 14.3001 16.2702C14.1998 16.2921 14.1299 16.3179 14.0754 16.3459Z" fill="#545F68"/>
<defs>
<linearGradient id="paint0_linear_400_11413" x1="1.21004" y1="23.8902" x2="17.7489" y2="23.8902" gradientUnits="userSpaceOnUse">
<stop stop-color="#FFD6B8"/>
<stop offset="0.447917" stop-color="#F6AD77"/>
<stop offset="0.859375" stop-color="#EC5E0F"/>
</linearGradient>
<linearGradient id="paint1_linear_400_11413" x1="39.4381" y1="39.6843" x2="23.652" y2="15.2803" gradientUnits="userSpaceOnUse">
<stop offset="0.00121702" stop-color="#C2D5E4"/>
<stop offset="1" stop-color="#E4E2F1"/>
</linearGradient>
<linearGradient id="paint2_linear_400_11413" x1="5.11423" y1="18.4721" x2="11.7688" y2="18.4721" gradientUnits="userSpaceOnUse">
<stop stop-color="#D7DFFF"/>
<stop offset="1" stop-color="#CCD0D3"/>
</linearGradient>
<linearGradient id="paint3_linear_400_11413" x1="25.4148" y1="20.0536" x2="25.4148" y2="18.2856" gradientUnits="userSpaceOnUse">
<stop stop-color="#132534"/>
<stop offset="1" stop-color="#354249"/>
</linearGradient>
<linearGradient id="paint4_linear_400_11413" x1="3.67453" y1="16.236" x2="38.9183" y2="16.236" gradientUnits="userSpaceOnUse">
<stop stop-color="#132534"/>
<stop offset="1" stop-color="#354249"/>
</linearGradient>
<linearGradient id="paint5_linear_400_11413" x1="3.67453" y1="18.3034" x2="12.3787" y2="18.3034" gradientUnits="userSpaceOnUse">
<stop stop-color="#132534"/>
<stop offset="1" stop-color="#354249"/>
</linearGradient>
<linearGradient id="paint6_linear_400_11413" x1="39.8848" y1="37.7923" x2="23.1184" y2="16.1501" gradientUnits="userSpaceOnUse">
<stop offset="0.00121702" stop-color="#C2D5E4"/>
<stop offset="0.3123" stop-color="#A8BACF"/>
<stop offset="1" stop-color="#7283A3"/>
</linearGradient>
<linearGradient id="paint7_linear_400_11413" x1="5.11423" y1="17.5799" x2="8.02636" y2="17.5799" gradientUnits="userSpaceOnUse">
<stop offset="0.00121702" stop-color="#C2D5E4"/>
<stop offset="0.3123" stop-color="#A8BACF"/>
<stop offset="1" stop-color="#7283A3"/>
</linearGradient>
</defs>
</svg>
