<svg width="24" height="24" viewBox="0 0 24 24" fill="none" xmlns="http://www.w3.org/2000/svg">
<path d="M12 21.9426C10.0336 21.9426 8.11146 21.3595 6.47651 20.2671C4.84156 19.1746 3.56726 17.6219 2.81478 15.8052C2.06229 13.9886 1.86541 11.9896 2.24902 10.061C2.63263 8.13245 3.57952 6.36096 4.96993 4.97054C6.36035 3.58013 8.13184 2.63325 10.0604 2.24963C11.989 1.86602 13.988 2.0629 15.8046 2.81539C17.6213 3.56787 19.174 4.84217 20.2665 6.47712C21.3589 8.11207 21.942 10.0343 21.942 12.0006C21.9391 14.6365 20.8907 17.1636 19.0268 19.0274C17.163 20.8913 14.6359 21.9397 12 21.9426ZM12 3.0586C10.2314 3.0586 8.50258 3.58304 7.03208 4.5656C5.56157 5.54816 4.41546 6.94471 3.73866 8.57864C3.06186 10.2126 2.88478 12.0105 3.22981 13.7451C3.57484 15.4797 4.42648 17.073 5.67704 18.3235C6.9276 19.5741 8.52091 20.4258 10.2555 20.7708C11.9901 21.1158 13.788 20.9387 15.4219 20.2619C17.0559 19.5851 18.4524 18.439 19.435 16.9685C20.4175 15.498 20.942 13.7692 20.942 12.0006C20.9393 9.62984 19.9964 7.35695 18.32 5.68057C16.6436 4.0042 14.3707 3.06125 12 3.0586Z" fill="url(#paint0_linear_301_8089)"/>
<path d="M16.693 13.7431C16.3232 14.6867 15.6776 15.497 14.8403 16.0682C14.003 16.6393 13.0131 16.9449 11.9995 16.9449C10.986 16.9449 9.996 16.6393 9.15873 16.0682C8.32147 15.497 7.67581 14.6867 7.30602 13.7431C7.05702 13.1531 6.19502 13.6621 6.44302 14.2481C6.90224 15.3429 7.67465 16.2778 8.66329 16.9352C9.65193 17.5926 10.8127 17.9433 12 17.9433C13.1873 17.9433 14.3481 17.5926 15.3368 16.9352C16.3254 16.2778 17.0978 15.3429 17.557 14.2481C17.804 13.6621 16.943 13.1481 16.693 13.7431Z" fill="url(#paint1_linear_301_8089)"/>
<path d="M9 10.2617C9.69036 10.2617 10.25 9.70207 10.25 9.01172C10.25 8.32136 9.69036 7.76172 9 7.76172C8.30964 7.76172 7.75 8.32136 7.75 9.01172C7.75 9.70207 8.30964 10.2617 9 10.2617Z" fill="url(#paint2_linear_301_8089)"/>
<path d="M15 10.2617C15.6904 10.2617 16.25 9.70207 16.25 9.01172C16.25 8.32136 15.6904 7.76172 15 7.76172C14.3096 7.76172 13.75 8.32136 13.75 9.01172C13.75 9.70207 14.3096 10.2617 15 10.2617Z" fill="url(#paint3_linear_301_8089)"/>
<defs>
<linearGradient id="paint0_linear_301_8089" x1="3.46156" y1="2.05859" x2="32.9524" y2="18.3252" gradientUnits="userSpaceOnUse">
<stop stop-color="#3A3086"/>
<stop offset="1" stop-color="#1756FD"/>
</linearGradient>
<linearGradient id="paint1_linear_301_8089" x1="7.18944" y1="13.4785" x2="14.6225" y2="23.7655" gradientUnits="userSpaceOnUse">
<stop stop-color="#3A3086"/>
<stop offset="1" stop-color="#1756FD"/>
</linearGradient>
<linearGradient id="paint2_linear_301_8089" x1="7.92647" y1="7.76172" x2="11.6343" y2="9.8069" gradientUnits="userSpaceOnUse">
<stop stop-color="#3A3086"/>
<stop offset="1" stop-color="#1756FD"/>
</linearGradient>
<linearGradient id="paint3_linear_301_8089" x1="13.9265" y1="7.76172" x2="17.6343" y2="9.8069" gradientUnits="userSpaceOnUse">
<stop stop-color="#3A3086"/>
<stop offset="1" stop-color="#1756FD"/>
</linearGradient>
</defs>
</svg>
