<svg width="24" height="24" viewBox="0 0 24 24" fill="none" xmlns="http://www.w3.org/2000/svg">
<path d="M16.25 6.75C16.9404 6.75 17.5 6.19036 17.5 5.5C17.5 4.80964 16.9404 4.25 16.25 4.25C15.5596 4.25 15 4.80964 15 5.5C15 6.19036 15.5596 6.75 16.25 6.75Z" stroke="white" stroke-width="0.5" stroke-linecap="round" stroke-linejoin="round"/>
<path d="M7.75 6.75C8.44036 6.75 9 6.19036 9 5.5C9 4.80964 8.44036 4.25 7.75 4.25C7.05964 4.25 6.5 4.80964 6.5 5.5C6.5 6.19036 7.05964 6.75 7.75 6.75Z" stroke="white" stroke-width="0.5" stroke-linecap="round" stroke-linejoin="round"/>
<path d="M3.75 2.75C3.48478 2.75 3.23043 2.85536 3.04289 3.04289C2.85536 3.23043 2.75 3.48478 2.75 3.75V20.25C2.75 20.5152 2.85536 20.7696 3.04289 20.9571C3.23043 21.1446 3.48478 21.25 3.75 21.25H20.25C20.5152 21.25 20.7696 21.1446 20.9571 20.9571C21.1446 20.7696 21.25 20.5152 21.25 20.25V3.75C21.25 3.48478 21.1446 3.23043 20.9571 3.04289C20.7696 2.85536 20.5152 2.75 20.25 2.75H3.75Z" stroke="white" stroke-width="0.5" stroke-linecap="round" stroke-linejoin="round"/>
<path d="M7.62695 14.8044L10.3395 17.5164L17.373 10.4834" stroke="white" stroke-width="0.5" stroke-linecap="round" stroke-linejoin="round"/>
</svg>
