<svg width="41" height="41" viewBox="0 0 41 41" fill="none" xmlns="http://www.w3.org/2000/svg">
<g clip-path="url(#clip0_400_10003)">
<path d="M34.1188 31.5278C34.4165 32.9284 30.5729 34.9315 25.5349 36.0024C20.4969 37.0732 16.1709 36.8066 15.8732 35.4061C15.8607 35.3474 15.8558 35.2876 15.8573 35.2274C16.5503 35.5867 17.4889 35.8716 18.617 35.9908C19.7567 36.1113 21.0902 36.0625 22.561 35.7499C26.1935 34.9778 28.2811 33.5647 29.0045 31.7329C29.094 31.5062 29.1631 31.2729 29.2113 31.0337C29.2115 31.0328 29.2117 31.0314 29.2116 31.031C29.2186 30.9965 29.2269 30.9622 29.2353 30.9278C29.2924 30.7123 29.3346 30.4996 29.3625 30.2894C32.0388 30.1885 33.9258 30.6199 34.1188 31.5278Z" fill="url(#paint0_radial_400_10003)"/>
<path d="M25.0411 11.0025C24.507 12.045 22.3588 13.0848 19.6817 13.5016C16.4657 14.003 13.7044 13.4178 13.514 12.1945C13.4897 12.0391 13.5084 11.8812 13.5652 11.7226C13.6519 11.6781 13.7409 11.6339 13.8326 11.5901C13.8935 11.561 13.9561 11.5321 14.0196 11.5034C14.0832 11.4746 14.148 11.446 14.2139 11.4181C14.2794 11.3903 14.3462 11.3626 14.4143 11.3347L14.4147 11.3346C14.5846 11.2658 14.7614 11.1987 14.9439 11.1334C14.9443 11.1333 14.9447 11.1332 14.9447 11.1332C15.0175 11.1073 15.0913 11.0816 15.1664 11.0561C15.2424 11.0308 15.3184 11.0055 15.3955 10.9808C15.4722 10.9567 15.55 10.9319 15.6286 10.9082C15.629 10.9082 15.6294 10.9081 15.6294 10.9081C15.7079 10.884 15.7878 10.8605 15.8682 10.8373C15.8682 10.8373 15.8686 10.8372 15.869 10.8371C15.949 10.8141 16.0304 10.7915 16.1126 10.7688C16.7747 10.5889 17.49 10.436 18.2407 10.3187C18.8855 10.2186 19.514 10.1511 20.1127 10.1152C20.2051 10.1094 20.2963 10.1044 20.3869 10.1004C20.4326 10.0985 20.4775 10.0968 20.5227 10.0945C20.6126 10.0915 20.7018 10.0891 20.7901 10.0869C20.9227 10.0839 21.0534 10.0826 21.1824 10.0835C21.2683 10.0839 21.3533 10.0846 21.4377 10.0862C21.5216 10.0879 21.6047 10.0898 21.6868 10.0933C22.1796 10.1116 22.6378 10.1542 23.0507 10.2209C23.1196 10.2315 23.187 10.2437 23.2536 10.256C23.3198 10.2685 23.3848 10.2812 23.4482 10.2951C23.4801 10.3018 23.5116 10.3086 23.5428 10.3159C23.605 10.3301 23.666 10.3449 23.7255 10.3606C23.9337 10.4146 24.1248 10.4762 24.2963 10.5454C24.3453 10.565 24.3927 10.5854 24.4385 10.6065C24.5074 10.6375 24.5727 10.6706 24.6339 10.7046C24.6753 10.7271 24.7142 10.7506 24.7515 10.7744C24.8644 10.8448 24.9611 10.9208 25.0411 11.0025Z" fill="#FFD6B8"/>
<path d="M14.9438 11.1326C14.8681 11.1596 14.7939 11.1871 14.7201 11.2149C14.7939 11.1875 14.8682 11.16 14.9438 11.1326Z" fill="#EC5E0F"/>
<path d="M14.6319 11.2485C14.6613 11.2371 14.6907 11.226 14.7201 11.215C14.6907 11.226 14.6613 11.2375 14.6319 11.2485Z" fill="#EC5E0F"/>
<path d="M14.4146 11.3343C14.486 11.3057 14.5583 11.2773 14.6319 11.249C14.5587 11.2772 14.4855 11.3058 14.4146 11.3343Z" fill="#EC5E0F"/>
<path d="M25.3021 11.487C25.493 12.7107 22.6406 14.1711 18.9322 14.7493C15.2233 15.3276 12.0618 14.8049 11.8713 13.5811C11.7772 12.9744 12.4302 12.3094 13.5651 11.7224C13.5083 11.881 13.4901 12.0389 13.514 12.1943C13.7048 13.418 16.4657 14.0032 19.6816 13.5014C22.3592 13.0845 24.507 12.0448 25.0411 11.0027C25.1855 11.1495 25.2742 11.3107 25.3021 11.487Z" fill="#FFD6B8"/>
<path d="M20.6036 19.311C20.6094 19.3424 20.6175 19.3746 20.6168 19.3956C20.6108 19.7504 20.4221 20.1428 20.4454 20.805C20.4564 21.1254 20.5167 21.591 20.5643 21.9092C20.4299 21.3628 20.1132 21.2288 20.1287 20.7936C20.1287 20.7936 20.2706 20.1302 20.3869 19.9402C20.5385 19.6932 20.6094 19.4428 20.6036 19.311Z" fill="url(#paint1_linear_400_10003)"/>
<path d="M25.3104 12.0504C24.5532 13.3269 23.2823 14.8022 21.2521 15.492C21.1685 15.5207 21.0839 15.5482 20.9974 15.5736C17.7652 16.5372 17.8967 17.987 18.1212 18.593C16.6321 17.6692 14.7162 16.6073 13.6342 15.7396C12.5448 14.8656 12.1254 14.2828 11.9658 13.9458C11.8471 13.6966 11.871 13.5815 11.871 13.5815C12.0619 14.8052 15.2227 15.3284 18.9314 14.7497C20.4169 14.5179 21.7649 14.1448 22.8349 13.7026C24.4369 13.0398 25.4159 12.2211 25.3013 11.4874C25.2802 11.3514 25.2227 11.2241 25.1309 11.1057C25.1035 11.0711 25.0736 11.0366 25.0408 11.0031C25.0753 11.0344 25.1068 11.0678 25.1348 11.1014C25.3634 11.3742 25.3843 11.7159 25.3104 12.0504Z" fill="url(#paint2_linear_400_10003)"/>
<path d="M15.078 34.2603C15.0781 34.2607 15.0781 34.2607 15.0786 34.2611C15.0758 34.2621 15.0753 34.2618 15.078 34.2603Z" fill="#EC5E0F"/>
<path d="M29.6655 32.1341C28.9405 33.9678 26.8485 35.3828 23.2095 36.1563C19.0848 37.033 16.0355 35.8406 15.3129 34.6525C15.246 34.5428 15.1652 34.4121 15.0782 34.261C15.1154 34.2496 15.5995 34.0245 16.23 33.4177C16.4075 33.2469 16.596 33.0464 16.7899 32.8121C17.5687 32.0303 18.9926 30.7526 20.3525 30.3209C20.5114 30.2697 20.669 30.231 20.8255 30.2055C22.8561 29.8761 23.5276 28.6653 23.4823 28.063C23.7627 28.2269 24.0763 28.3777 24.4327 28.4916C28.1751 29.6871 29.1842 30.6808 29.6655 32.1341Z" fill="url(#paint3_linear_400_10003)"/>
<path d="M20.6915 18.9081C20.6906 18.9101 20.6902 18.9119 20.6896 18.9133C20.6469 19.0298 20.6163 19.1398 20.598 19.2442C20.5951 19.2613 20.599 19.2857 20.6035 19.3113C20.6094 19.4431 20.5385 19.6935 20.3874 19.9409C20.2712 20.1313 20.1292 20.7943 20.1292 20.7943C20.1319 20.7193 20.1273 20.6503 20.1175 20.5858C20.0745 20.3057 19.929 20.1209 19.8342 19.9554C19.8337 19.9551 19.8336 19.9546 19.8331 19.9543C19.8164 19.9248 19.8011 19.8959 19.7886 19.8677C19.788 19.8669 19.7878 19.8661 19.7876 19.8653C19.7288 19.6908 19.7753 19.3403 20.6915 18.9081Z" fill="url(#paint4_linear_400_10003)"/>
<path d="M19.7881 19.8672C19.8011 19.8957 19.8159 19.9248 19.8326 19.9538C19.8183 19.9338 19.8009 19.9049 19.7881 19.8672Z" fill="url(#paint5_linear_400_10003)"/>
<path d="M20.6951 18.9058L20.6896 18.9126C20.6902 18.9112 20.6906 18.9094 20.6915 18.9074C20.6927 18.9068 20.6939 18.9065 20.6951 18.9058Z" fill="#EFEDE8"/>
<path d="M23.4827 28.0623C23.5281 28.6646 22.8561 29.8755 20.8259 30.2048C20.6698 30.2302 20.5118 30.269 20.3529 30.3202C18.993 30.7519 17.5692 32.0296 16.7903 32.8114C17.0845 32.4549 17.4869 32.0114 17.8626 31.5406C19.0953 29.9964 20.0126 28.883 20.8924 28.1545C21.5872 27.5793 22.2873 27.3409 23.4134 28.0209C23.436 28.0348 23.4594 28.0486 23.4827 28.0623Z" fill="#FFD6B8"/>
<path d="M25.3104 12.0504C25.163 12.7206 24.6362 13.361 24.6362 13.361C22.3965 16.3421 21.0708 17.8825 20.6915 18.9077C19.7752 19.3399 19.7287 19.6903 19.7871 19.8645C19.7841 19.8586 19.7821 19.8534 19.7796 19.8478C19.7592 19.7969 19.7603 19.681 19.7331 19.6333C19.5636 19.3353 19.2497 19.3229 18.8156 19.0355C18.6743 18.942 18.5259 18.8461 18.3716 18.7489C18.2897 18.6971 18.2062 18.6444 18.1211 18.5921C17.8965 17.9861 17.7652 16.5367 20.9972 15.5727C21.0836 15.5469 21.1684 15.5198 21.252 15.4911C23.2823 14.8017 24.5531 13.3264 25.3104 12.0504Z" fill="url(#paint6_linear_400_10003)"/>
<path d="M26.4565 23.9915C27.9382 25.1731 30.4352 27.6397 30.0248 30.6895C29.9968 30.8998 29.9545 31.1123 29.8973 31.3285C29.8884 31.3625 29.8802 31.3974 29.8736 31.4318C29.8733 31.4327 29.8732 31.4341 29.8733 31.4345C29.8249 31.674 29.7557 31.9074 29.666 32.1344C28.941 33.9681 26.8494 35.3829 23.2103 36.1564C21.7369 36.4696 20.401 36.5187 19.2593 36.3983C18.1293 36.2792 17.1893 35.9937 16.4949 35.6346C16.1682 35.4653 15.8959 35.28 15.6839 35.0872C15.5266 34.9454 15.4023 34.7987 15.3138 34.6527C15.2469 34.543 15.1664 34.4118 15.0789 34.2603C14.9261 33.9962 14.7522 33.6696 14.5938 33.2845C13.9808 31.7973 13.5954 29.4394 15.5406 26.447C16.8589 24.4189 17.958 22.8114 18.7438 21.6898C19.279 20.925 19.0648 19.8684 18.2733 19.3739C16.7212 18.4039 14.6505 17.0787 13.7912 16.3942C12.2064 15.131 9.46335 12.3997 10.3505 9.05764C10.3593 9.02357 10.3676 8.98876 10.3742 8.95431C10.8113 6.77994 12.9465 5.09924 17.0382 4.2295C21.1625 3.35287 23.5787 4.25185 24.9348 5.73323C25.7559 6.63075 27.446 9.72681 24.7081 13.9393C23.3898 15.9674 22.2903 17.575 21.505 18.697C20.9697 19.4614 21.1838 20.5179 21.9754 21.0125C23.5261 21.9819 25.597 23.3065 26.4565 23.9915Z" fill="url(#paint7_radial_400_10003)"/>
<path opacity="0.6" d="M29.2714 28.2978C29.2714 28.2978 27.3499 25.9237 24.8829 24.2022C22.8686 22.7964 21.5408 22.2814 21.1806 21.0576C21.2881 21.2992 21.5337 21.6092 22.0899 21.8668C23.1738 22.3688 28.6856 25.5419 29.2714 28.2978Z" fill="white"/>
<path opacity="0.5" d="M11.0482 11.0459C11.0482 11.0459 12.9697 13.42 15.4367 15.1415C17.4509 16.5473 18.7787 17.0623 19.139 18.286C19.0315 18.0445 18.7858 17.7344 18.2296 17.4769C17.1458 16.9753 11.634 13.8018 11.0482 11.0459Z" fill="white"/>
<path opacity="0.3" d="M17.5698 7.54728C20.4553 6.93396 22.6496 5.75567 22.471 4.91549C22.2924 4.07531 19.8085 3.8914 16.9231 4.50472C14.0377 5.11804 11.8433 6.29633 12.0219 7.13651C12.2005 7.97669 14.6844 8.1606 17.5698 7.54728Z" fill="white"/>
<path d="M20.1957 22.3483L20.3268 22.3874L20.2229 22.4765L20.1838 22.6074L20.0947 22.5037L19.9636 22.4646L20.0674 22.3756L20.1066 22.2446L20.1957 22.3483Z" fill="#FFD6B8"/>
<path d="M21.3714 23.8168L21.449 23.8399L21.3875 23.8926L21.3645 23.9705L21.3113 23.9088L21.2337 23.8857L21.2952 23.833L21.3187 23.7554L21.3714 23.8168Z" fill="#FFD6B8"/>
<path d="M20.6612 25.8452L20.7392 25.8682L20.6774 25.9214L20.6542 25.9989L20.6016 25.9375L20.5239 25.914L20.5854 25.8613L20.6085 25.7838L20.6612 25.8452Z" fill="#FFD6B8"/>
</g>
<defs>
<radialGradient id="paint0_radial_400_10003" cx="0" cy="0" r="1" gradientUnits="userSpaceOnUse" gradientTransform="translate(24.8226 32.6528) rotate(-12) scale(14.5319 14.5319)">
<stop stop-color="#98A3B3" stop-opacity="0.54"/>
<stop offset="0.2615" stop-color="#BBC3CD" stop-opacity="0.3988"/>
<stop offset="0.5791" stop-color="#E0E3E8" stop-opacity="0.2273"/>
<stop offset="0.8366" stop-color="#F7F8F9" stop-opacity="0.0882"/>
<stop offset="1" stop-color="white" stop-opacity="0"/>
</radialGradient>
<linearGradient id="paint1_linear_400_10003" x1="20.0879" y1="20.7155" x2="20.8669" y2="20.5499" gradientUnits="userSpaceOnUse">
<stop stop-color="#FFD6B8"/>
<stop offset="0.447917" stop-color="#F6AD77"/>
<stop offset="0.859375" stop-color="#EC5E0F"/>
</linearGradient>
<linearGradient id="paint2_linear_400_10003" x1="12.4993" y1="16.6178" x2="25.8129" y2="13.7879" gradientUnits="userSpaceOnUse">
<stop stop-color="#FFD6B8"/>
<stop offset="0.447917" stop-color="#F6AD77"/>
<stop offset="0.859375" stop-color="#EC5E0F"/>
</linearGradient>
<linearGradient id="paint3_linear_400_10003" x1="14.9981" y1="33.8839" x2="29.3873" y2="30.8254" gradientUnits="userSpaceOnUse">
<stop stop-color="#FFD6B8"/>
<stop offset="0.447917" stop-color="#F6AD77"/>
<stop offset="0.859375" stop-color="#EC5E0F"/>
</linearGradient>
<linearGradient id="paint4_linear_400_10003" x1="19.8095" y1="19.9789" x2="20.8712" y2="19.7532" gradientUnits="userSpaceOnUse">
<stop stop-color="#FFD6B8"/>
<stop offset="0.447917" stop-color="#F6AD77"/>
<stop offset="0.859375" stop-color="#EC5E0F"/>
</linearGradient>
<linearGradient id="paint5_linear_400_10003" x1="19.7978" y1="19.9132" x2="19.8228" y2="19.9079" gradientUnits="userSpaceOnUse">
<stop stop-color="#FFD6B8"/>
<stop offset="0.447917" stop-color="#F6AD77"/>
<stop offset="0.859375" stop-color="#EC5E0F"/>
</linearGradient>
<linearGradient id="paint6_linear_400_10003" x1="17.7597" y1="16.9753" x2="25.9856" y2="15.2268" gradientUnits="userSpaceOnUse">
<stop stop-color="#FFD6B8"/>
<stop offset="0.447917" stop-color="#F6AD77"/>
<stop offset="0.859375" stop-color="#EC5E0F"/>
</linearGradient>
<radialGradient id="paint7_radial_400_10003" cx="0" cy="0" r="1" gradientUnits="userSpaceOnUse" gradientTransform="translate(20.1667 20.1834) rotate(-12) scale(12.9115 12.9003)">
<stop offset="0.1806" stop-color="white" stop-opacity="0.1"/>
<stop offset="0.5028" stop-color="#CCE3DF" stop-opacity="0.2"/>
<stop offset="0.7967" stop-color="#EEE5DF" stop-opacity="0.62"/>
<stop offset="1" stop-color="#C1C3CA" stop-opacity="0.6"/>
</radialGradient>
<clipPath id="clip0_400_10003">
<rect width="34" height="34" fill="white" transform="translate(0 7.06934) rotate(-12)"/>
</clipPath>
</defs>
</svg>
