<svg width="24" height="24" viewBox="0 0 24 24" fill="none" xmlns="http://www.w3.org/2000/svg">
<path d="M5.625 14.625V5.25C5.625 5.15054 5.66451 5.05516 5.73484 4.98484C5.80516 4.91451 5.90054 4.875 6 4.875H15.375C15.4745 4.875 15.5698 4.91451 15.6402 4.98484C15.7105 5.05516 15.75 5.15054 15.75 5.25C15.75 5.34946 15.7105 5.44484 15.6402 5.51516C15.5698 5.58549 15.4745 5.625 15.375 5.625H6.90937L16.7625 15.4875C16.7977 15.5216 16.8256 15.5624 16.8447 15.6075C16.8638 15.6526 16.8736 15.701 16.8736 15.75C16.8736 15.799 16.8638 15.8474 16.8447 15.8925C16.8256 15.9376 16.7977 15.9784 16.7625 16.0125C16.7284 16.0477 16.6876 16.0756 16.6425 16.0947C16.5974 16.1138 16.549 16.1236 16.5 16.1236C16.451 16.1236 16.4026 16.1138 16.3575 16.0947C16.3124 16.0756 16.2716 16.0477 16.2375 16.0125L6.375 6.15937V14.625C6.375 14.7245 6.33549 14.8198 6.26517 14.8902C6.19484 14.9605 6.09946 15 6 15C5.90054 15 5.80516 14.9605 5.73484 14.8902C5.66451 14.8198 5.625 14.7245 5.625 14.625ZM20.25 19.875H3.75C3.65054 19.875 3.55516 19.9145 3.48484 19.9848C3.41451 20.0552 3.375 20.1505 3.375 20.25C3.375 20.3495 3.41451 20.4448 3.48484 20.5152C3.55516 20.5855 3.65054 20.625 3.75 20.625H20.25C20.3495 20.625 20.4448 20.5855 20.5152 20.5152C20.5855 20.4448 20.625 20.3495 20.625 20.25C20.625 20.1505 20.5855 20.0552 20.5152 19.9848C20.4448 19.9145 20.3495 19.875 20.25 19.875Z" fill="white"/>
</svg>
