<svg width="24" height="24" viewBox="0 0 24 24" fill="none" xmlns="http://www.w3.org/2000/svg">
<path d="M9.25203 17.704C9.08409 17.5067 9.00012 17.2556 9.00012 16.9507C9.00012 16.6457 9.08409 16.3946 9.25203 16.1973L12.8245 12L9.25203 7.80269C9.08409 7.60538 9.00012 7.35426 9.00012 7.04933C9.00012 6.74439 9.08409 6.49327 9.25203 6.29596C9.41997 6.09865 9.63371 6 9.89325 6C10.1528 6 10.3665 6.09865 10.5345 6.29596L14.7482 11.2466C14.8398 11.3543 14.9049 11.4709 14.9433 11.5964C14.9812 11.722 15.0001 11.8565 15.0001 12C15.0001 12.1435 14.9812 12.278 14.9433 12.4036C14.9049 12.5291 14.8398 12.6457 14.7482 12.7534L10.5345 17.704C10.3665 17.9013 10.1528 18 9.89325 18C9.63371 18 9.41997 17.9013 9.25203 17.704Z" fill="white"/>
</svg>
