<svg width="12" height="12" viewBox="0 0 12 12" fill="none" xmlns="http://www.w3.org/2000/svg">
<path d="M6 10.118L10.5 9.47523V1.99023L6.159 2.61048C6.05353 2.62553 5.94647 2.62553 5.841 2.61048L1.5 1.99023V9.47523L6 10.118ZM1.60575 1.24773L5.94675 1.86798C5.98207 1.87304 6.01793 1.87304 6.05325 1.86798L10.3943 1.24773C10.5006 1.23258 10.609 1.24046 10.712 1.27083C10.8151 1.30119 10.9104 1.35334 10.9915 1.42375C11.0727 1.49415 11.1377 1.58116 11.1823 1.67889C11.2269 1.77663 11.25 1.8828 11.25 1.99023V9.47523C11.25 9.65582 11.1848 9.83034 11.0665 9.96674C10.9481 10.1031 10.7845 10.1923 10.6057 10.2177L6.05325 10.868C6.01793 10.873 5.98207 10.873 5.94675 10.868L1.39425 10.2177C1.21546 10.1923 1.05187 10.1031 0.933516 9.96674C0.815164 9.83034 0.750002 9.65582 0.75 9.47523V1.99023C0.750001 1.8828 0.77308 1.77663 0.817675 1.67889C0.86227 1.58116 0.92734 1.49415 1.00848 1.42375C1.08962 1.35334 1.18494 1.30119 1.28799 1.27083C1.39103 1.24046 1.4994 1.23258 1.60575 1.24773V1.24773Z" fill="url(#paint0_linear_495_10473)"/>
<path d="M5.625 2.25H6.375V10.5H5.625V2.25Z" fill="url(#paint1_linear_495_10473)"/>
<defs>
<linearGradient id="paint0_linear_495_10473" x1="0.75" y1="6.05601" x2="11.25" y2="6.05601" gradientUnits="userSpaceOnUse">
<stop stop-color="#7F65D9"/>
<stop offset="1" stop-color="#6A74CC"/>
</linearGradient>
<linearGradient id="paint1_linear_495_10473" x1="5.625" y1="6.375" x2="6.375" y2="6.375" gradientUnits="userSpaceOnUse">
<stop stop-color="#7F65D9"/>
<stop offset="1" stop-color="#6A74CC"/>
</linearGradient>
</defs>
</svg>
