<svg width="24" height="24" viewBox="0 0 24 24" fill="none" xmlns="http://www.w3.org/2000/svg">
<path d="M14.7481 6.29597C14.916 6.49328 15 6.74439 15 7.04933C15 7.35426 14.916 7.60538 14.7481 7.80269L11.1756 12L14.7481 16.1973C14.916 16.3946 15 16.6457 15 16.9507C15 17.2556 14.916 17.5067 14.7481 17.704C14.5802 17.9013 14.3664 18 14.1069 18C13.8473 18 13.6336 17.9013 13.4656 17.704L9.25191 12.7534C9.16031 12.6457 9.09527 12.5291 9.05679 12.4036C9.01893 12.278 9 12.1435 9 12C9 11.8565 9.01893 11.722 9.05679 11.5964C9.09527 11.4709 9.16031 11.3543 9.25191 11.2466L13.4656 6.29597C13.6336 6.09866 13.8473 6 14.1069 6C14.3664 6 14.5802 6.09866 14.7481 6.29597V6.29597Z" fill="black"/>
</svg>
