<svg width="24" height="24" viewBox="0 0 24 24" fill="none" xmlns="http://www.w3.org/2000/svg">
<path d="M17.25 3.1875H6.75C6.4019 3.1875 6.06806 3.32578 5.82192 3.57192C5.57578 3.81806 5.4375 4.1519 5.4375 4.5V21C5.43739 21.0999 5.46435 21.198 5.51552 21.2839C5.56669 21.3697 5.64016 21.4401 5.72813 21.4875C5.80915 21.5393 5.9039 21.5654 6 21.5625C6.10582 21.5622 6.20954 21.533 6.3 21.4781L12 17.9156L17.7 21.4781C17.7861 21.5298 17.8843 21.5578 17.9847 21.5594C18.0851 21.5611 18.1841 21.5363 18.2719 21.4875C18.3598 21.4401 18.4333 21.3697 18.4845 21.2839C18.5357 21.198 18.5626 21.0999 18.5625 21V4.5C18.5625 4.1519 18.4242 3.81806 18.1781 3.57192C17.9319 3.32578 17.5981 3.1875 17.25 3.1875ZM17.4375 19.9875L12.3 16.7719C12.2098 16.7163 12.1059 16.6869 12 16.6869C11.8941 16.6869 11.7902 16.7163 11.7 16.7719L6.5625 19.9875V4.5C6.5625 4.45027 6.58225 4.40258 6.61742 4.36742C6.65258 4.33225 6.70027 4.3125 6.75 4.3125H17.25C17.2997 4.3125 17.3474 4.33225 17.3826 4.36742C17.4177 4.40258 17.4375 4.45027 17.4375 4.5V19.9875Z" fill="#2F313A"/>
</svg>
