<svg width="22" height="22" viewBox="0 0 22 22" fill="none" xmlns="http://www.w3.org/2000/svg">
<path d="M11 2.23438C9.47152 2.23462 7.96965 2.63456 6.64343 3.3945C5.31721 4.15443 4.21277 5.24795 3.43968 6.56654C2.66659 7.88513 2.25174 9.38296 2.23629 10.9114C2.22084 12.4398 2.60532 13.9457 3.3516 15.2797L2.59535 17.918C2.53359 18.1245 2.52885 18.3438 2.58163 18.5528C2.63441 18.7617 2.74274 18.9525 2.89513 19.1049C3.04753 19.2573 3.23832 19.3656 3.44728 19.4184C3.65624 19.4712 3.87558 19.4664 4.08207 19.4047L6.72035 18.6484C7.88936 19.3029 9.19284 19.6808 10.5307 19.7529C11.8685 19.825 13.205 19.5896 14.4376 19.0645C15.6702 18.5395 16.7661 17.7389 17.641 16.7243C18.5159 15.7097 19.1466 14.508 19.4846 13.2116C19.8227 11.9151 19.859 10.5585 19.5909 9.24582C19.3228 7.93316 18.7573 6.69942 17.938 5.63939C17.1187 4.57936 16.0673 3.72125 14.8645 3.13098C13.6618 2.54071 12.3398 2.23399 11 2.23438ZM11 18.7344C9.61127 18.7382 8.24766 18.3639 7.0555 17.6516C6.97344 17.6078 6.88211 17.5842 6.7891 17.5828C6.74258 17.5794 6.69584 17.5852 6.6516 17.6L3.79847 18.4164C3.76861 18.4256 3.73681 18.4265 3.70648 18.419C3.67615 18.4114 3.64845 18.3958 3.62636 18.3737C3.60427 18.3516 3.58861 18.3239 3.58108 18.2936C3.57355 18.2632 3.57443 18.2314 3.58363 18.2016L4.40004 15.3484C4.41931 15.2811 4.42468 15.2106 4.41581 15.1412C4.40695 15.0717 4.38404 15.0048 4.34847 14.9445C3.47816 13.4766 3.11774 11.7621 3.32336 10.0681C3.52897 8.37402 4.28908 6.79552 5.48528 5.57846C6.68147 4.3614 8.24659 3.57411 9.93685 3.33924C11.6271 3.10436 13.3476 3.43508 14.8303 4.27988C16.313 5.12468 17.4747 6.43613 18.1344 8.00994C18.7941 9.58376 18.9148 11.3316 18.4777 12.9811C18.0406 14.6307 17.0702 16.0894 15.7177 17.13C14.3652 18.1706 12.7065 18.7347 11 18.7344ZM7.73441 11C7.73441 11.17 7.68401 11.3361 7.58958 11.4774C7.49515 11.6188 7.36094 11.7289 7.20391 11.794C7.04687 11.859 6.87408 11.876 6.70738 11.8429C6.54068 11.8097 6.38755 11.7279 6.26737 11.6077C6.14718 11.4875 6.06533 11.3344 6.03217 11.1677C5.99901 11.001 6.01603 10.8282 6.08108 10.6711C6.14612 10.5141 6.25627 10.3799 6.39759 10.2855C6.53892 10.191 6.70507 10.1406 6.87504 10.1406C7.10296 10.1406 7.32154 10.2312 7.48271 10.3923C7.64387 10.5535 7.73441 10.7721 7.73441 11ZM11.8594 11C11.8594 11.17 11.809 11.3361 11.7146 11.4774C11.6202 11.6188 11.4859 11.7289 11.3289 11.794C11.1719 11.859 10.9991 11.876 10.8324 11.8429C10.6657 11.8097 10.5126 11.7279 10.3924 11.6077C10.2722 11.4875 10.1903 11.3344 10.1572 11.1677C10.124 11.001 10.141 10.8282 10.2061 10.6711C10.2711 10.5141 10.3813 10.3799 10.5226 10.2855C10.6639 10.191 10.8301 10.1406 11 10.1406C11.228 10.1406 11.4465 10.2312 11.6077 10.3923C11.7689 10.5535 11.8594 10.7721 11.8594 11ZM15.9844 11C15.9844 11.17 15.934 11.3361 15.8396 11.4774C15.7452 11.6188 15.6109 11.7289 15.4539 11.794C15.2969 11.859 15.1241 11.876 14.9574 11.8429C14.7907 11.8097 14.6376 11.7279 14.5174 11.6077C14.3972 11.4875 14.3153 11.3344 14.2822 11.1677C14.249 11.001 14.266 10.8282 14.3311 10.6711C14.3961 10.5141 14.5063 10.3799 14.6476 10.2855C14.7889 10.191 14.9551 10.1406 15.125 10.1406C15.353 10.1406 15.5715 10.2312 15.7327 10.3923C15.8939 10.5535 15.9844 10.7721 15.9844 11Z" fill="#919191"/>
</svg>
