<?xml version="1.0" encoding="iso-8859-1"?>
<!-- Uploaded to: SVG Repo, www.svgrepo.com, Generator: SVG Repo Mixer Tools -->
<svg fill="#000000" height="800px" width="800px" version="1.1" id="Layer_1" xmlns="http://www.w3.org/2000/svg" xmlns:xlink="http://www.w3.org/1999/xlink" 
	 viewBox="0 0 512 512" xml:space="preserve">
<g>
	<g>
		<circle cx="221.091" cy="209.455" r="11.636"/>
	</g>
</g>
<g>
	<g>
		<circle cx="267.636" cy="209.455" r="11.636"/>
	</g>
</g>
<g>
	<g>
		<circle cx="314.182" cy="209.455" r="11.636"/>
	</g>
</g>
<g>
	<g>
		<circle cx="221.091" cy="256" r="11.636"/>
	</g>
</g>
<g>
	<g>
		<circle cx="267.636" cy="256" r="11.636"/>
	</g>
</g>
<g>
	<g>
		<circle cx="314.182" cy="256" r="11.636"/>
	</g>
</g>
<g>
	<g>
		<circle cx="267.636" cy="302.545" r="11.636"/>
	</g>
</g>
<g>
	<g>
		<circle cx="314.182" cy="302.545" r="11.636"/>
	</g>
</g>
<g>
	<g>
		<circle cx="267.636" cy="349.091" r="11.636"/>
	</g>
</g>
<g>
	<g>
		<circle cx="314.182" cy="349.091" r="11.636"/>
	</g>
</g>
<g>
	<g>
		<circle cx="407.273" cy="349.091" r="11.636"/>
	</g>
</g>
<g>
	<g>
		<circle cx="442.182" cy="349.091" r="11.636"/>
	</g>
</g>
<g>
	<g>
		<circle cx="407.273" cy="395.636" r="11.636"/>
	</g>
</g>
<g>
	<g>
		<circle cx="442.182" cy="395.636" r="11.636"/>
	</g>
</g>
<g>
	<g>
		<circle cx="407.273" cy="442.182" r="11.636"/>
	</g>
</g>
<g>
	<g>
		<circle cx="442.182" cy="442.182" r="11.636"/>
	</g>
</g>
<g>
	<g>
		<circle cx="267.636" cy="395.636" r="11.636"/>
	</g>
</g>
<g>
	<g>
		<circle cx="314.182" cy="395.636" r="11.636"/>
	</g>
</g>
<g>
	<g>
		<circle cx="267.636" cy="442.182" r="11.636"/>
	</g>
</g>
<g>
	<g>
		<circle cx="139.636" cy="349.091" r="11.636"/>
	</g>
</g>
<g>
	<g>
		<circle cx="139.636" cy="395.636" r="11.636"/>
	</g>
</g>
<g>
	<g>
		<circle cx="139.636" cy="442.182" r="11.636"/>
	</g>
</g>
<g>
	<g>
		<circle cx="174.545" cy="349.091" r="11.636"/>
	</g>
</g>
<g>
	<g>
		<circle cx="174.545" cy="395.636" r="11.636"/>
	</g>
</g>
<g>
	<g>
		<circle cx="174.545" cy="442.182" r="11.636"/>
	</g>
</g>
<g>
	<g>
		<circle cx="314.182" cy="442.182" r="11.636"/>
	</g>
</g>
<g>
	<g>
		<path d="M320,102.4l-5.818-30.255c-1.164-5.818-5.818-9.309-11.636-9.309h-23.273v-51.2C279.273,4.655,274.618,0,267.636,0
			S256,4.655,256,11.636v50.036h-23.273c-5.818,0-10.473,3.491-11.636,9.309L211.782,128h-37.236
			c-6.982,0-11.636,4.655-11.636,11.636v104.727c0,6.982,4.655,11.636,11.636,11.636s11.636-4.655,11.636-11.636v-93.091h34.909
			c5.818,0,10.473-3.491,11.636-9.309L243.2,86.109h50.036l3.491,20.945c1.164,5.818,6.982,10.473,13.964,9.309
			C316.509,115.2,321.164,109.382,320,102.4z"/>
	</g>
</g>
<g>
	<g>
		<path d="M360.727,128h-46.545H256c-6.982,0-11.636,4.655-11.636,11.636s4.655,11.636,11.636,11.636h58.182h34.909v302.545
			c0,6.982,4.655,11.636,11.636,11.636s11.636-4.655,11.636-11.636V139.636C372.364,132.655,367.709,128,360.727,128z"/>
	</g>
</g>
<g>
	<g>
		<path d="M488.727,290.909h-23.273V256c0-3.491-2.327-6.982-4.655-9.309l-30.255-19.782v-29.091c0-4.655-2.327-8.145-6.982-10.473
			l-23.273-11.636c-5.818-2.327-12.8,0-15.127,4.655c-2.327,4.655,0,12.8,4.655,15.127l16.291,8.145v29.091
			c0,3.491,2.327,6.982,4.655,9.309l30.255,19.782v29.091h-20.945l-20.945-10.473c-5.818-2.327-12.8,0-15.127,4.655
			c-2.327,5.818,0,12.8,4.655,15.127l23.273,11.636c3.491,2.327,4.654,2.327,6.982,2.327h58.182v174.545H34.909V151.273h46.545
			v46.545c0,6.982,4.655,11.636,11.636,11.636h23.273v34.909c0,6.982,4.655,11.636,11.636,11.636s11.636-4.655,11.636-11.636
			v-46.545c0-6.982-4.655-11.636-11.636-11.636h-23.273v-46.545c0-6.982-4.655-11.636-11.636-11.636H23.273
			c-6.982,0-11.636,4.655-11.636,11.636v360.727c0,6.982,4.655,11.636,11.636,11.636h465.455c6.982,0,11.636-4.655,11.636-11.636
			V302.545C500.364,295.564,495.709,290.909,488.727,290.909z"/>
	</g>
</g>
<g>
	<g>
		<path d="M221.091,279.273h-128c-6.982,0-11.636,4.655-11.636,11.636v162.909c0,6.982,4.655,11.636,11.636,11.636
			c6.982,0,11.636-4.655,11.636-11.636V302.545h104.727v151.273c0,6.982,4.655,11.636,11.636,11.636
			c6.982,0,11.636-4.655,11.636-11.636V290.909C232.727,283.927,228.073,279.273,221.091,279.273z"/>
	</g>
</g>
</svg>