<svg width="23" height="22" viewBox="0 0 23 22" fill="none" xmlns="http://www.w3.org/2000/svg">

<defs>
<linearGradient id="paint0_linear_300_6009" x1="2.38318" y1="7.24643" x2="20.6151" y2="7.24643" gradientUnits="userSpaceOnUse">
<stop stop-color="#8063D4"/>
<stop offset="1" stop-color="#7271F2"/>
</linearGradient>
</defs>
<path d="M11.5002 2.0625C9.94799 2.06238 8.42252 2.46652 7.07397 3.23511C5.72542 4.00371 4.60029 5.11026 3.80936 6.44583C3.01842 7.7814 2.58896 9.29993 2.56324 10.8519C2.53752 12.4039 2.91644 13.9358 3.66269 15.2969L2.93222 17.8664C2.86352 18.1028 2.85916 18.3533 2.91959 18.592C2.98001 18.8307 3.10304 19.049 3.27597 19.2242C3.44889 19.398 3.66562 19.5217 3.90317 19.5822C4.14071 19.6427 4.39021 19.6378 4.62519 19.568L7.20332 18.8375C8.39809 19.4923 9.72677 19.8654 11.0878 19.928C12.4488 19.9907 13.8062 19.7414 15.0561 19.1991C16.306 18.6569 17.4154 17.836 18.2994 16.7994C19.1835 15.7627 19.8189 14.5376 20.1569 13.2177C20.495 11.8979 20.5269 10.5182 20.25 9.18414C19.9732 7.85009 19.3951 6.59699 18.5598 5.52062C17.7245 4.44424 16.6542 3.57308 15.4306 2.97373C14.207 2.37437 12.8627 2.06269 11.5002 2.0625ZM7.37519 12.0312C7.17123 12.0312 6.97185 11.9708 6.80226 11.8575C6.63267 11.7441 6.50049 11.5831 6.42244 11.3946C6.34439 11.2062 6.32396 10.9989 6.36376 10.7988C6.40355 10.5988 6.50176 10.415 6.64599 10.2708C6.79021 10.1266 6.97396 10.0284 7.174 9.98856C7.37405 9.94877 7.5814 9.9692 7.76983 10.0472C7.95827 10.1253 8.11933 10.2575 8.23264 10.4271C8.34596 10.5967 8.40644 10.796 8.40644 11C8.40644 11.2735 8.29779 11.5358 8.10439 11.7292C7.911 11.9226 7.64869 12.0312 7.37519 12.0312ZM11.5002 12.0312C11.2962 12.0312 11.0968 11.9708 10.9273 11.8575C10.7577 11.7441 10.6255 11.5831 10.5474 11.3946C10.4694 11.2062 10.449 10.9989 10.4888 10.7988C10.5285 10.5988 10.6268 10.415 10.771 10.2708C10.9152 10.1266 11.099 10.0284 11.299 9.98856C11.499 9.94877 11.7064 9.9692 11.8948 10.0472C12.0833 10.1253 12.2443 10.2575 12.3576 10.4271C12.471 10.5967 12.5314 10.796 12.5314 11C12.5314 11.2735 12.4228 11.5358 12.2294 11.7292C12.036 11.9226 11.7737 12.0312 11.5002 12.0312ZM15.6252 12.0312C15.4212 12.0312 15.2218 11.9708 15.0523 11.8575C14.8827 11.7441 14.7505 11.5831 14.6724 11.3946C14.5944 11.2062 14.574 10.9989 14.6138 10.7988C14.6535 10.5988 14.7518 10.415 14.896 10.2708C15.0402 10.1266 15.224 10.0284 15.424 9.98856C15.624 9.94877 15.8314 9.9692 16.0198 10.0472C16.2083 10.1253 16.3693 10.2575 16.4826 10.4271C16.596 10.5967 16.6564 10.796 16.6564 11C16.6564 11.2735 16.5478 11.5358 16.3544 11.7292C16.161 11.9226 15.8987 12.0312 15.6252 12.0312Z" fill="url(#paint0_linear_300_6009)"/>

</svg>
