<svg width="18" height="18" viewBox="0 0 18 18" fill="none" xmlns="http://www.w3.org/2000/svg">
<path d="M9.28125 15.6094H3.35391C3.22741 15.6094 3.10215 15.5845 2.98527 15.5361C2.8684 15.4876 2.76221 15.4167 2.67276 15.3272C2.49211 15.1466 2.39063 14.9016 2.39063 14.6461V8.71875C2.39062 7.35592 2.79475 6.02368 3.5519 4.89053C4.30906 3.75737 5.38523 2.87418 6.64432 2.35265C7.90342 1.83111 9.28889 1.69465 10.6255 1.96053C11.9622 2.22641 13.19 2.88267 14.1537 3.84635C15.1173 4.81002 15.7736 6.03781 16.0395 7.37446C16.3054 8.71111 16.1689 10.0966 15.6474 11.3557C15.1258 12.6148 14.2426 13.6909 13.1095 14.4481C11.9763 15.2052 10.6441 15.6094 9.28125 15.6094ZM9.28125 2.67188C7.67809 2.67374 6.14112 3.31142 5.00752 4.44502C3.87391 5.57863 3.23624 7.11559 3.23438 8.71875V14.6461C3.23438 14.6778 3.24697 14.7082 3.26938 14.7306C3.2918 14.753 3.3222 14.7656 3.35391 14.7656H9.28125C10.885 14.7656 12.423 14.1285 13.557 12.9945C14.691 11.8605 15.3281 10.3225 15.3281 8.71875C15.3281 7.11502 14.691 5.57698 13.557 4.44297C12.423 3.30896 10.885 2.67188 9.28125 2.67188Z" fill="#0E1031"/>
</svg>
