<svg width="14" height="18" viewBox="0 0 14 18" fill="none" xmlns="http://www.w3.org/2000/svg">
<g clip-path="url(#clip0_339_7519)">
<path d="M0.875 18H13.125C13.6074 18 14 17.6214 14 17.1562V5.34375C14 5.33419 13.9953 5.32631 13.9947 5.31731C13.9936 5.30438 13.9901 5.29312 13.9872 5.28075C13.978 5.24167 13.9601 5.205 13.9347 5.17331C13.9306 5.16825 13.9312 5.16206 13.9271 5.157L9.26042 0.0945C9.25867 0.0928125 9.25633 0.0928125 9.25458 0.091125C9.21898 0.0552433 9.17407 0.0292157 9.1245 0.01575C9.11342 0.012375 9.1035 0.01125 9.09183 0.0095625C9.07492 0.00675 9.05917 0 9.04167 0H0.875C0.392583 0 0 0.378562 0 0.84375V17.1562C0 17.6214 0.392583 18 0.875 18ZM9.33333 1.02094L13.0591 5.0625H9.625C9.49667 5.0625 9.33333 4.82625 9.33333 4.64062V1.02094ZM0.583333 0.84375C0.583333 0.769158 0.614062 0.697621 0.66876 0.644876C0.723459 0.592132 0.797645 0.5625 0.875 0.5625H8.75V4.64062C8.75 5.09569 9.13208 5.625 9.625 5.625H13.4167V17.1562C13.4167 17.2308 13.3859 17.3024 13.3312 17.3551C13.2765 17.4079 13.2024 17.4375 13.125 17.4375H0.875C0.711667 17.4375 0.583333 17.3137 0.583333 17.1562V0.84375Z" fill="white"/>
<path d="M3.20841 7.875H10.7917C10.8691 7.875 10.9433 7.84537 10.998 7.79262C11.0527 7.73988 11.0834 7.66834 11.0834 7.59375C11.0834 7.51916 11.0527 7.44762 10.998 7.39488C10.9433 7.34213 10.8691 7.3125 10.7917 7.3125H3.20841C3.13106 7.3125 3.05687 7.34213 3.00218 7.39488C2.94748 7.44762 2.91675 7.51916 2.91675 7.59375C2.91675 7.66834 2.94748 7.73988 3.00218 7.79262C3.05687 7.84537 3.13106 7.875 3.20841 7.875ZM3.20841 10.125H10.7917C10.8691 10.125 10.9433 10.0954 10.998 10.0426C11.0527 9.98988 11.0834 9.91834 11.0834 9.84375C11.0834 9.76916 11.0527 9.69762 10.998 9.64488C10.9433 9.59213 10.8691 9.5625 10.7917 9.5625H3.20841C3.13106 9.5625 3.05687 9.59213 3.00218 9.64488C2.94748 9.69762 2.91675 9.76916 2.91675 9.84375C2.91675 9.91834 2.94748 9.98988 3.00218 10.0426C3.05687 10.0954 3.13106 10.125 3.20841 10.125ZM3.20841 5.625H6.70842C6.78577 5.625 6.85996 5.59537 6.91465 5.54262C6.96935 5.48988 7.00008 5.41834 7.00008 5.34375C7.00008 5.26916 6.96935 5.19762 6.91465 5.14488C6.85996 5.09213 6.78577 5.0625 6.70842 5.0625H3.20841C3.13106 5.0625 3.05687 5.09213 3.00218 5.14488C2.94748 5.19762 2.91675 5.26916 2.91675 5.34375C2.91675 5.41834 2.94748 5.48988 3.00218 5.54262C3.05687 5.59537 3.13106 5.625 3.20841 5.625ZM3.20841 12.375H10.7917C10.8691 12.375 10.9433 12.3454 10.998 12.2926C11.0527 12.2399 11.0834 12.1683 11.0834 12.0938C11.0834 12.0192 11.0527 11.9476 10.998 11.8949C10.9433 11.8421 10.8691 11.8125 10.7917 11.8125H3.20841C3.13106 11.8125 3.05687 11.8421 3.00218 11.8949C2.94748 11.9476 2.91675 12.0192 2.91675 12.0938C2.91675 12.1683 2.94748 12.2399 3.00218 12.2926C3.05687 12.3454 3.13106 12.375 3.20841 12.375ZM3.20841 14.625H10.7917C10.8691 14.625 10.9433 14.5954 10.998 14.5426C11.0527 14.4899 11.0834 14.4183 11.0834 14.3438C11.0834 14.2692 11.0527 14.1976 10.998 14.1449C10.9433 14.0921 10.8691 14.0625 10.7917 14.0625H3.20841C3.13106 14.0625 3.05687 14.0921 3.00218 14.1449C2.94748 14.1976 2.91675 14.2692 2.91675 14.3438C2.91675 14.4183 2.94748 14.4899 3.00218 14.5426C3.05687 14.5954 3.13106 14.625 3.20841 14.625Z" fill="white"/>
</g>
<defs>
<clipPath id="clip0_339_7519">
<rect width="14" height="18" fill="white"/>
</clipPath>
</defs>
</svg>
