<svg width="24" height="24" viewBox="0 0 24 24" fill="none" xmlns="http://www.w3.org/2000/svg">
<path d="M20.179 6.29037L13.1815 3.01987C12.8013 2.84221 12.3869 2.75009 11.9673 2.75C11.5477 2.74991 11.1332 2.84187 10.753 3.01937L3.82146 6.25437C3.62361 6.3467 3.4562 6.49355 3.33888 6.67769C3.22157 6.86184 3.15923 7.07563 3.15918 7.29396C3.15913 7.5123 3.22137 7.72612 3.33859 7.91032C3.45581 8.09452 3.62315 8.24146 3.82096 8.33387L10.8185 11.6044C11.1986 11.7821 11.613 11.8743 12.0326 11.8745C12.4522 11.8747 12.8667 11.7828 13.247 11.6054L20.1785 8.36987C20.3763 8.27755 20.5437 8.1307 20.661 7.94655C20.7784 7.76241 20.8407 7.54862 20.8408 7.33028C20.8408 7.11195 20.7786 6.89813 20.6613 6.71393C20.5441 6.52973 20.3768 6.38279 20.179 6.29037V6.29037Z" stroke="white" stroke-width="0.5" stroke-linecap="round" stroke-linejoin="round"/>
<path d="M6.61351 9.63867L3.82151 10.9417C3.62352 11.0339 3.45597 11.1808 3.33856 11.365C3.22114 11.5492 3.15874 11.7631 3.15869 11.9815C3.15864 12.2 3.22093 12.4139 3.33826 12.5981C3.45558 12.7824 3.62306 12.9293 3.82101 13.0217L10.8185 16.2917C11.1986 16.4694 11.6131 16.5616 12.0327 16.5618C12.4522 16.562 12.8668 16.4701 13.247 16.2927L20.1785 13.0577C20.3764 12.9653 20.5438 12.8185 20.6611 12.6344C20.7784 12.4502 20.8407 12.2364 20.8408 12.0181C20.8409 11.7997 20.7786 11.5859 20.6614 11.4017C20.5442 11.2175 20.3768 11.0706 20.179 10.9782L17.3865 9.67317" stroke="white" stroke-width="0.5" stroke-linecap="round" stroke-linejoin="round"/>
<path d="M6.61351 14.3271L3.82151 15.6301C3.62352 15.7224 3.45597 15.8693 3.33856 16.0535C3.22114 16.2377 3.15874 16.4516 3.15869 16.67C3.15864 16.8884 3.22093 17.1023 3.33826 17.2866C3.45558 17.4709 3.62306 17.6178 3.82101 17.7101L10.8185 20.9801C11.1986 21.1578 11.6131 21.2499 12.0327 21.25C12.4523 21.2501 12.8668 21.1582 13.247 20.9806L20.1785 17.7456C20.3764 17.6533 20.5438 17.5065 20.6611 17.3223C20.7784 17.1382 20.8407 16.9244 20.8408 16.7061C20.8409 16.4877 20.7786 16.2739 20.6614 16.0897C20.5442 15.9055 20.3768 15.7586 20.179 15.6661L17.3865 14.3611" stroke="white" stroke-width="0.5" stroke-linecap="round" stroke-linejoin="round"/>
</svg>
