<svg width="18" height="18" viewBox="0 0 18 18" fill="none" xmlns="http://www.w3.org/2000/svg">
<path d="M16.9641 8.81538C16.937 8.75385 16.3744 7.33077 15.1137 5.90769C13.853 4.48462 11.9416 3 9 3C6.05837 3 4.0521 4.57692 2.88629 5.90769C1.72049 7.23846 1.06303 8.75385 1.03592 8.81538C1.01226 8.87323 1 8.93623 1 9C1 9.06377 1.01226 9.12677 1.03592 9.18462C1.06303 9.24615 1.6256 10.6692 2.88629 12.0923C4.14699 13.5154 6.05837 15 9 15C11.9416 15 13.9479 13.4231 15.1137 12.0923C16.2795 10.7615 16.937 9.24615 16.9641 9.18462C16.9877 9.12677 17 9.06377 17 9C17 8.93623 16.9877 8.87323 16.9641 8.81538ZM9 14.0769C6.87173 14.0769 5.01457 13.2 3.48275 11.4692C2.83683 10.7429 2.29076 9.91053 1.86283 9C2.29076 8.08947 2.83683 7.2571 3.48275 6.53077C5.01457 4.8 6.87173 3.92308 9 3.92308C11.1283 3.92308 12.9854 4.8 14.5172 6.53077C15.1632 7.2571 15.7092 8.08947 16.1372 9C15.7034 9.93846 13.5412 14.0769 9 14.0769ZM9 5.46154C8.38335 5.46154 7.78054 5.66907 7.26781 6.05788C6.75508 6.44669 6.35546 6.99932 6.11948 7.64589C5.88349 8.29246 5.82175 9.00393 5.94205 9.69032C6.06236 10.3767 6.3593 11.0072 6.79534 11.5021C7.23138 11.9969 7.78693 12.3339 8.39174 12.4705C8.99654 12.607 9.62344 12.5369 10.1932 12.2691C10.7629 12.0013 11.2498 11.5478 11.5924 10.9659C11.935 10.384 12.1179 9.69984 12.1179 9C12.1179 8.06154 11.7894 7.16152 11.2047 6.49793C10.6199 5.83434 9.82691 5.46154 9 5.46154ZM9 11.6154C8.54421 11.6154 8.09866 11.462 7.71969 11.1746C7.34071 10.8872 7.04534 10.4788 6.87092 10.0009C6.6965 9.52296 6.65086 8.9971 6.73978 8.48976C6.8287 7.98243 7.04818 7.51641 7.37047 7.15064C7.69276 6.78488 8.10338 6.53578 8.55041 6.43487C8.99744 6.33395 9.4608 6.38575 9.88189 6.5837C10.303 6.78165 10.6629 7.11687 10.9161 7.54697C11.1693 7.97707 11.3045 8.48273 11.3045 9C11.3027 9.69302 11.0593 10.3571 10.6276 10.8471C10.1958 11.3372 9.61064 11.6134 9 11.6154Z" fill="#0E1031"/>
</svg>
