<svg width="203" height="170" viewBox="0 0 203 170" fill="none" xmlns="http://www.w3.org/2000/svg">
<rect x="0.5" width="202" height="170" fill="white"/>
<path fill-rule="evenodd" clip-rule="evenodd" d="M167.756 55.25C170.88 55.25 173.412 57.9139 173.412 61.2C173.412 64.4861 170.88 67.15 167.756 67.15H135.436C138.56 67.15 141.092 69.8139 141.092 73.1C141.092 76.3861 138.56 79.05 135.436 79.05H153.212C156.336 79.05 158.868 81.7139 158.868 85C158.868 88.2861 156.336 90.95 153.212 90.95H144.991C141.053 90.95 137.86 93.6139 137.86 96.9C137.86 99.0907 139.476 101.074 142.708 102.85C145.832 102.85 148.364 105.514 148.364 108.8C148.364 112.086 145.832 114.75 142.708 114.75H75.644C72.5202 114.75 69.988 112.086 69.988 108.8C69.988 105.514 72.5202 102.85 75.644 102.85H44.132C41.0082 102.85 38.476 100.186 38.476 96.9C38.476 93.6139 41.0082 90.95 44.132 90.95H76.452C79.5757 90.95 82.108 88.2861 82.108 85C82.108 81.7139 79.5757 79.05 76.452 79.05H56.252C53.1282 79.05 50.596 76.3861 50.596 73.1C50.596 69.8139 53.1282 67.15 56.252 67.15H88.572C85.4482 67.15 82.916 64.4861 82.916 61.2C82.916 57.9139 85.4482 55.25 88.572 55.25H167.756ZM167.756 79.05C170.88 79.05 173.412 81.7139 173.412 85C173.412 88.2861 170.88 90.95 167.756 90.95C164.632 90.95 162.1 88.2861 162.1 85C162.1 81.7139 164.632 79.05 167.756 79.05Z" fill="#F3F7FF"/>
<path fill-rule="evenodd" clip-rule="evenodd" d="M124.992 54.4018L132.228 111.794L132.875 117.553C133.083 119.408 131.807 121.106 130.024 121.345L82.4145 127.734C80.6319 127.973 79.0179 126.663 78.8095 124.808L71.8325 62.6853C71.7284 61.7578 72.3665 60.9089 73.2578 60.7893C73.2634 60.7885 73.2691 60.7878 73.2747 60.7871L77.2243 60.3007M80.3623 59.6521L84.073 59.1989L80.3623 59.6521Z" fill="white"/>
<path d="M126.23 54.2302C126.144 53.5454 125.52 53.067 124.836 53.1618C124.152 53.2565 123.667 53.8885 123.754 54.5734L126.23 54.2302ZM132.228 111.794L133.468 111.64C133.468 111.634 133.467 111.628 133.466 111.623L132.228 111.794ZM132.875 117.553L134.115 117.398L132.875 117.553ZM130.024 121.345L129.873 120.104L130.024 121.345ZM82.4145 127.734L82.5656 128.974L82.4145 127.734ZM78.8095 124.808L80.0498 124.653L78.8095 124.808ZM71.8325 62.6853L70.5922 62.84L71.8325 62.6853ZM73.2747 60.7871L73.1371 59.5446L73.2747 60.7871ZM77.3619 61.5432C78.047 61.4589 78.5408 60.8342 78.4649 60.148C78.3889 59.4617 77.7719 58.9739 77.0868 59.0582L77.3619 61.5432ZM80.226 58.4094C79.5408 58.4931 79.0463 59.1173 79.1216 59.8036C79.1969 60.4899 79.8134 60.9784 80.4986 60.8947L80.226 58.4094ZM84.2093 60.4416C84.8945 60.3579 85.389 59.7337 85.3137 59.0474C85.2384 58.3611 84.6219 57.8726 83.9367 57.9563L84.2093 60.4416ZM123.754 54.5734L130.99 111.966L133.466 111.623L126.23 54.2302L123.754 54.5734ZM130.988 111.949L131.634 117.707L134.115 117.398L133.468 111.64L130.988 111.949ZM131.634 117.707C131.771 118.924 130.934 119.962 129.873 120.104L130.175 122.585C132.68 122.249 134.395 119.891 134.115 117.398L131.634 117.707ZM129.873 120.104L82.2635 126.493L82.5656 128.974L130.175 122.585L129.873 120.104ZM82.2635 126.493C81.2132 126.634 80.1856 125.862 80.0498 124.653L77.5692 124.962C77.8501 127.464 80.0505 129.312 82.5656 128.974L82.2635 126.493ZM80.0498 124.653L73.0729 62.5306L70.5922 62.84L77.5692 124.962L80.0498 124.653ZM73.0729 62.5306C73.0404 62.2413 73.2397 62.0528 73.4088 62.0301L73.1068 59.5485C71.4932 59.765 70.4164 61.2743 70.5922 62.84L73.0729 62.5306ZM73.4088 62.0301C73.41 62.0299 73.4111 62.0298 73.4123 62.0296L73.1371 59.5446C73.127 59.5459 73.1169 59.5472 73.1068 59.5485L73.4088 62.0301ZM73.4123 62.0296L77.3619 61.5432L77.0868 59.0582L73.1371 59.5446L73.4123 62.0296ZM80.4986 60.8947L84.2093 60.4416L83.9367 57.9563L80.226 58.4094L80.4986 60.8947ZM83.9367 57.9563L80.226 58.4094L80.4986 60.8947L84.2093 60.4416L83.9367 57.9563Z" fill="url(#paint0_linear_594_13594)"/>
<path fill-rule="evenodd" clip-rule="evenodd" d="M122.621 58.0285L129.424 110.29L130.036 115.533C130.233 117.222 129.107 118.757 127.52 118.962L85.1471 124.435C83.5605 124.64 82.1145 123.437 81.9174 121.748L75.3671 65.6271C75.2391 64.53 76.0233 63.5259 77.1188 63.3844L81.9812 62.7564" fill="#E8F0FE"/>
<path d="M87.9409 46.5C87.9409 44.9812 89.1721 43.75 90.6909 43.75H126.355C127.108 43.75 127.829 44.0589 128.348 44.6047L138.819 55.614C139.306 56.1252 139.577 56.8037 139.577 57.5093V109.9C139.577 111.419 138.346 112.65 136.827 112.65H90.6909C89.1721 112.65 87.9409 111.419 87.9409 109.9V46.5Z" fill="white" stroke="url(#paint1_linear_594_13594)" stroke-width="2.5"/>
<path d="M127.091 44.542V54.3996C127.091 55.8079 128.176 56.9496 129.515 56.9496H135.925" stroke="url(#paint2_linear_594_13594)" stroke-width="2.5" stroke-linecap="round" stroke-linejoin="round"/>
<path d="M95.844 100.3H116.852M95.844 56.9502H116.852H95.844ZM95.844 67.1502H130.588H95.844ZM95.844 78.2002H130.588H95.844ZM95.844 89.2502H130.588H95.844Z" stroke="#75A4FE" stroke-width="2.5" stroke-linecap="round" stroke-linejoin="round"/>
<defs>
<linearGradient id="paint0_linear_594_13594" x1="75.2701" y1="94.4831" x2="129.469" y2="88.1571" gradientUnits="userSpaceOnUse">
<stop stop-color="#7F65D9"/>
<stop offset="1" stop-color="#6A74CC"/>
</linearGradient>
<linearGradient id="paint1_linear_594_13594" x1="86.6909" y1="78.2" x2="140.827" y2="78.2" gradientUnits="userSpaceOnUse">
<stop stop-color="#7F65D9"/>
<stop offset="1" stop-color="#6A74CC"/>
</linearGradient>
<linearGradient id="paint2_linear_594_13594" x1="127.091" y1="50.7458" x2="135.925" y2="50.7458" gradientUnits="userSpaceOnUse">
<stop stop-color="#7F65D9"/>
<stop offset="1" stop-color="#6A74CC"/>
</linearGradient>
</defs>
</svg>
