<svg width="16" height="16" viewBox="0 0 16 16" fill="none" xmlns="http://www.w3.org/2000/svg">
<path d="M5.36799 3.89125C6.19659 3.52307 7.09327 3.33296 7.99999 3.33325C9.96999 3.33325 11.5393 4.20992 12.7067 5.24259C13.8773 6.27792 14.6173 7.44725 14.9113 7.96259C14.9181 7.97365 14.9217 7.9863 14.922 7.99925C14.9217 8.01334 14.9178 8.02713 14.9107 8.03925C14.6109 8.55871 14.2698 9.05319 13.8907 9.51792C13.8466 9.5685 13.8132 9.62743 13.7924 9.69119C13.7716 9.75496 13.7639 9.82225 13.7696 9.88907C13.7754 9.95589 13.7945 10.0209 13.8259 10.0802C13.8573 10.1394 13.9002 10.1918 13.9523 10.2341C14.0043 10.2764 14.0643 10.3078 14.1287 10.3265C14.1932 10.3451 14.2607 10.3506 14.3273 10.3427C14.3939 10.3347 14.4582 10.3134 14.5164 10.2801C14.5745 10.2467 14.6254 10.202 14.666 10.1486C15.0799 9.64162 15.4522 9.10209 15.7793 8.53525C15.8728 8.37284 15.9221 8.18875 15.9222 8.00134C15.9223 7.81393 15.8733 7.62978 15.78 7.46725C15.4567 6.90059 14.6533 5.62925 13.3693 4.49392C12.0827 3.35592 10.288 2.33325 7.99999 2.33325C6.86999 2.33325 5.85666 2.58259 4.96532 2.97525C4.8446 3.02907 4.7501 3.12851 4.70248 3.25182C4.65487 3.37513 4.65802 3.51227 4.71125 3.63326C4.76447 3.75425 4.86344 3.84924 4.98651 3.89746C5.10958 3.94568 5.24674 3.94388 5.36799 3.89125ZM12.7773 11.9913C11.552 12.9199 9.95532 13.6666 7.99999 13.6666C5.71199 13.6666 3.91666 12.6439 2.63066 11.5066C1.34666 10.3706 0.542657 9.09859 0.219991 8.53192C0.126862 8.36957 0.0779167 8.18565 0.0780337 7.9985C0.0781506 7.81134 0.127326 7.62748 0.220657 7.46525C0.817084 6.43133 1.56215 5.49062 2.43199 4.67325L0.877991 3.57459C0.822309 3.53755 0.774622 3.48972 0.737753 3.43393C0.700884 3.37814 0.675581 3.31552 0.663342 3.24977C0.651103 3.18403 0.652176 3.1165 0.666499 3.05118C0.680822 2.98585 0.708103 2.92407 0.746727 2.86948C0.785351 2.81489 0.834534 2.7686 0.891365 2.73335C0.948196 2.6981 1.01152 2.67462 1.07759 2.66428C1.14366 2.65394 1.21113 2.65696 1.27601 2.67316C1.3409 2.68935 1.40187 2.7184 1.45532 2.75859L15.122 12.4253C15.1777 12.4623 15.2254 12.5101 15.2622 12.5659C15.2991 12.6217 15.3244 12.6843 15.3366 12.7501C15.3489 12.8158 15.3478 12.8833 15.3335 12.9487C15.3192 13.014 15.2919 13.0758 15.2533 13.1304C15.2146 13.185 15.1654 13.2312 15.1086 13.2665C15.0518 13.3017 14.9885 13.3252 14.9224 13.3356C14.8563 13.3459 14.7889 13.3429 14.724 13.3267C14.6591 13.3105 14.5981 13.2814 14.5447 13.2413L12.7773 11.9913ZM3.26799 5.26525C2.11466 6.29258 1.38266 7.44725 1.08932 7.96125C1.08196 7.97305 1.07803 7.98667 1.07799 8.00059C1.07799 8.01059 1.07999 8.02325 1.08866 8.03725C1.38266 8.55325 2.12266 9.72192 3.29332 10.7573C4.45999 11.7899 6.02999 12.6666 7.99999 12.6666C9.55599 12.6666 10.86 12.1199 11.916 11.3819L9.57199 9.72392C9.1789 10.0828 8.67494 10.2965 8.14371 10.3295C7.61248 10.3626 7.08591 10.213 6.65137 9.90566C6.21682 9.59829 5.90042 9.1516 5.75466 8.63969C5.6089 8.12778 5.64254 7.58142 5.84999 7.09125L3.26799 5.26592V5.26525Z" fill="black"/>
</svg>
