<svg width="24" height="24" viewBox="0 0 24 24" fill="none" xmlns="http://www.w3.org/2000/svg">
<path d="M12 21.5625C13.8913 21.5625 15.7401 21.0017 17.3126 19.9509C18.8852 18.9002 20.1108 17.4067 20.8346 15.6594C21.5584 13.9121 21.7477 11.9894 21.3788 10.1344C21.0098 8.2795 20.099 6.57563 18.7617 5.23829C17.4244 3.90095 15.7205 2.99021 13.8655 2.62124C12.0106 2.25227 10.0879 2.44164 8.34059 3.1654C6.59327 3.88916 5.09981 5.11481 4.04907 6.68736C2.99833 8.2599 2.4375 10.1087 2.4375 12C2.44245 14.5346 3.45152 16.964 5.24376 18.7562C7.036 20.5485 9.46539 21.5575 12 21.5625ZM12 3.5625C13.6688 3.5625 15.3001 4.05735 16.6876 4.98448C18.0752 5.9116 19.1566 7.22936 19.7952 8.77111C20.4338 10.3129 20.6009 12.0094 20.2754 13.6461C19.9498 15.2828 19.1462 16.7862 17.9662 17.9662C16.7862 19.1462 15.2828 19.9498 13.6461 20.2754C12.0094 20.6009 10.3129 20.4338 8.7711 19.7952C7.22935 19.1566 5.9116 18.0752 4.98447 16.6876C4.05735 15.3001 3.5625 13.6688 3.5625 12C3.56498 9.763 4.45472 7.61833 6.03652 6.03653C7.61832 4.45473 9.76299 3.56498 12 3.5625ZM7.6875 12C7.6875 11.8508 7.74676 11.7077 7.85225 11.6023C7.95774 11.4968 8.10081 11.4375 8.25 11.4375H14.3906L12.1687 9.21563C12.0651 9.1089 12.0071 8.96597 12.0071 8.81719C12.0071 8.6684 12.0651 8.52548 12.1687 8.41875C12.2217 8.36641 12.2848 8.32531 12.354 8.29793C12.4233 8.27054 12.4974 8.25743 12.5719 8.25938C12.6448 8.25816 12.7173 8.27164 12.785 8.29902C12.8526 8.3264 12.914 8.36712 12.9656 8.41875L16.1437 11.6063C16.1971 11.657 16.2395 11.7181 16.2685 11.7858C16.2975 11.8535 16.3125 11.9264 16.3125 12C16.3125 12.0736 16.2975 12.1465 16.2685 12.2142C16.2395 12.2819 16.1971 12.343 16.1437 12.3937L12.9656 15.5812C12.9133 15.6336 12.8512 15.6751 12.7828 15.7034C12.7145 15.7317 12.6412 15.7463 12.5672 15.7463C12.4932 15.7463 12.4199 15.7317 12.3516 15.7034C12.2832 15.6751 12.2211 15.6336 12.1687 15.5812C12.1164 15.5289 12.0749 15.4668 12.0466 15.3984C12.0183 15.3301 12.0037 15.2568 12.0037 15.1828C12.0037 15.1088 12.0183 15.0355 12.0466 14.9672C12.0749 14.8988 12.1164 14.8367 12.1687 14.7844L14.3906 12.5625H8.25C8.10081 12.5625 7.95774 12.5032 7.85225 12.3977C7.74676 12.2923 7.6875 12.1492 7.6875 12Z" fill="white"/>
</svg>
