<svg width="12" height="12" viewBox="0 0 12 12" fill="none" xmlns="http://www.w3.org/2000/svg">
<path d="M8.625 9.49899C7.69531 9.49899 6.90039 9.15827 6.24023 8.47681C5.58008 7.79536 5.25 6.9748 5.25 6.01512C5.25 5.48286 5.06641 5.02722 4.69922 4.64819C4.33203 4.26915 3.89062 4.07964 3.375 4.07964C2.85938 4.07964 2.41797 4.26915 2.05078 4.64819C1.68359 5.02722 1.5 5.48286 1.5 6.01512C1.5 6.54738 1.68359 7.00302 2.05078 7.38206C2.41797 7.76109 2.85938 7.9506 3.375 7.9506C3.89844 7.9506 4.34375 7.75706 4.71094 7.36996C4.88281 7.87802 5.13281 8.3377 5.46094 8.74899C4.85156 9.24899 4.15625 9.49899 3.375 9.49899C2.44531 9.49899 1.65039 9.15827 0.990234 8.47681C0.330078 7.79536 0 6.9748 0 6.01512C0 5.05544 0.330078 4.23488 0.990234 3.55343C1.65039 2.87198 2.44531 2.53125 3.375 2.53125C4.30469 2.53125 5.09961 2.87198 5.75977 3.55343C6.41992 4.23488 6.75 5.05544 6.75 6.01512C6.75 6.54738 6.93359 7.00302 7.30078 7.38206C7.66797 7.76109 8.10938 7.9506 8.625 7.9506C9.14062 7.9506 9.58203 7.76109 9.94922 7.38206C10.3164 7.00302 10.5 6.54738 10.5 6.01512C10.5 5.48286 10.3164 5.02722 9.94922 4.64819C9.58203 4.26915 9.14062 4.07964 8.625 4.07964C8.10156 4.07964 7.65625 4.27319 7.28906 4.66028C7.11719 4.15222 6.86719 3.69254 6.53906 3.28125C7.14844 2.78125 7.84375 2.53125 8.625 2.53125C9.55469 2.53125 10.3496 2.87198 11.0098 3.55343C11.6699 4.23488 12 5.05544 12 6.01512C12 6.9748 11.6699 7.79536 11.0098 8.47681C10.3496 9.15827 9.55469 9.49899 8.625 9.49899Z" fill="#2F313A"/>
</svg>
