<svg width="20" height="20" viewBox="0 0 20 20" fill="none" xmlns="http://www.w3.org/2000/svg">
<path d="M10 16.8624L17.5 15.7912V3.31615L10.265 4.3499C10.0892 4.37499 9.91078 4.37499 9.735 4.3499L2.5 3.31615V15.7912L10 16.8624ZM2.67625 2.07865L9.91125 3.1124C9.97012 3.12084 10.0299 3.12084 10.0887 3.1124L17.3237 2.07865C17.501 2.0534 17.6816 2.06653 17.8534 2.11715C18.0251 2.16776 18.184 2.25468 18.3192 2.37202C18.4544 2.48935 18.5629 2.63437 18.6372 2.79726C18.7115 2.96015 18.75 3.13711 18.75 3.31615V15.7912C18.75 16.0921 18.6414 16.383 18.4441 16.6103C18.2469 16.8377 17.9742 16.9862 17.6763 17.0287L10.0887 18.1124C10.0299 18.1208 9.97012 18.1208 9.91125 18.1124L2.32375 17.0287C2.02577 16.9862 1.75312 16.8377 1.55586 16.6103C1.35861 16.383 1.25 16.0921 1.25 15.7912V3.31615C1.25 3.13711 1.28847 2.96015 1.36279 2.79726C1.43712 2.63437 1.54557 2.48935 1.6808 2.37202C1.81604 2.25468 1.9749 2.16776 2.14664 2.11715C2.31838 2.06653 2.49899 2.0534 2.67625 2.07865Z" fill="#919191"/>
<path d="M9.375 3.75H10.625V17.5H9.375V3.75Z" fill="#919191"/>
</svg>
