<svg width="20" height="20" viewBox="0 0 20 20" fill="none" xmlns="http://www.w3.org/2000/svg">
<path d="M14.9 10.3687V10.3684V8.3421C14.9 7.78523 14.465 7.28947 13.875 7.28947C13.2851 7.28947 12.85 7.78523 12.85 8.3421V10.3684C12.85 11.948 11.6397 13.1842 10.2 13.1842C8.7603 13.1842 7.55 11.948 7.55 10.3684V8.3421C7.55 7.78523 7.11495 7.28947 6.525 7.28947C5.93505 7.28947 5.5 7.78523 5.5 8.3421L5.5 10.3684L5.5 10.3687C5.50107 12.6737 7.03247 14.6708 9.175 15.1692V16.475C9.175 17.0411 9.63391 17.5 10.2 17.5C10.7661 17.5 11.225 17.0411 11.225 16.475V15.1692C13.3675 14.6708 14.8989 12.6737 14.9 10.3687ZM12.7999 5.21053C12.7999 3.73802 11.6597 2.5 10.1999 2.5C8.74012 2.5 7.59992 3.73802 7.59992 5.21053V10.3684C7.59992 11.8409 8.74012 13.0789 10.1999 13.0789C11.6597 13.0789 12.7999 11.8409 12.7999 10.3684V5.21053Z" fill="#35B7F1"/>
<path d="M14.9 10.3687V10.3684V8.3421C14.9 7.78523 14.465 7.28947 13.875 7.28947C13.2851 7.28947 12.85 7.78523 12.85 8.3421V10.3684C12.85 11.948 11.6397 13.1842 10.2 13.1842C8.7603 13.1842 7.55 11.948 7.55 10.3684V8.3421C7.55 7.78523 7.11495 7.28947 6.525 7.28947C5.93505 7.28947 5.5 7.78523 5.5 8.3421L5.5 10.3684L5.5 10.3687C5.50107 12.6737 7.03247 14.6708 9.175 15.1692V16.475C9.175 17.0411 9.63391 17.5 10.2 17.5C10.7661 17.5 11.225 17.0411 11.225 16.475V15.1692C13.3675 14.6708 14.8989 12.6737 14.9 10.3687ZM12.7999 5.21053C12.7999 3.73802 11.6597 2.5 10.1999 2.5C8.74012 2.5 7.59992 3.73802 7.59992 5.21053V10.3684C7.59992 11.8409 8.74012 13.0789 10.1999 13.0789C11.6597 13.0789 12.7999 11.8409 12.7999 10.3684V5.21053Z" fill="#35B7F1"/>
<path d="M14.9 10.3687V10.3684V8.3421C14.9 7.78523 14.465 7.28947 13.875 7.28947C13.2851 7.28947 12.85 7.78523 12.85 8.3421V10.3684C12.85 11.948 11.6397 13.1842 10.2 13.1842C8.7603 13.1842 7.55 11.948 7.55 10.3684V8.3421C7.55 7.78523 7.11495 7.28947 6.525 7.28947C5.93505 7.28947 5.5 7.78523 5.5 8.3421L5.5 10.3684L5.5 10.3687C5.50107 12.6737 7.03247 14.6708 9.175 15.1692V16.475C9.175 17.0411 9.63391 17.5 10.2 17.5C10.7661 17.5 11.225 17.0411 11.225 16.475V15.1692C13.3675 14.6708 14.8989 12.6737 14.9 10.3687ZM12.7999 5.21053C12.7999 3.73802 11.6597 2.5 10.1999 2.5C8.74012 2.5 7.59992 3.73802 7.59992 5.21053V10.3684C7.59992 11.8409 8.74012 13.0789 10.1999 13.0789C11.6597 13.0789 12.7999 11.8409 12.7999 10.3684V5.21053Z" stroke="white"/>
</svg>
