<svg width="17" height="16" viewBox="0 0 17 16" fill="none" xmlns="http://www.w3.org/2000/svg">
<g clip-path="url(#clip0_221_1722)">
<path d="M11.7 12.6668L9.83329 15.0002L7.96663 12.6668H4.49996C4.32315 12.6668 4.15358 12.5966 4.02855 12.4716C3.90353 12.3465 3.83329 12.177 3.83329 12.0002V4.7355C3.83329 4.55869 3.90353 4.38912 4.02855 4.26409C4.15358 4.13907 4.32315 4.06883 4.49996 4.06883H15.1666C15.3434 4.06883 15.513 4.13907 15.638 4.26409C15.7631 4.38912 15.8333 4.55869 15.8333 4.7355V12.0002C15.8333 12.177 15.7631 12.3465 15.638 12.4716C15.513 12.5966 15.3434 12.6668 15.1666 12.6668H11.7ZM1.83329 1.3335H13.1666V2.66683H2.49996V10.0002H1.16663V2.00016C1.16663 1.82335 1.23686 1.65378 1.36189 1.52876C1.48691 1.40373 1.65648 1.3335 1.83329 1.3335Z" fill="#2F313A"/>
</g>
<defs>
<clipPath id="clip0_221_1722">
<rect width="16" height="16" fill="white" transform="translate(0.5)"/>
</clipPath>
</defs>
</svg>
