<svg width="22" height="22" viewBox="0 0 22 22" fill="none" xmlns="http://www.w3.org/2000/svg">
<path d="M19.25 4.46875H2.75C2.65883 4.46875 2.5714 4.50497 2.50693 4.56943C2.44247 4.6339 2.40625 4.72133 2.40625 4.8125V16.5C2.40625 16.7735 2.5149 17.0358 2.7083 17.2292C2.90169 17.4226 3.164 17.5312 3.4375 17.5312H18.5625C18.836 17.5312 19.0983 17.4226 19.2917 17.2292C19.4851 17.0358 19.5938 16.7735 19.5938 16.5V4.8125C19.5938 4.72133 19.5575 4.6339 19.4931 4.56943C19.4286 4.50497 19.3412 4.46875 19.25 4.46875ZM3.09375 9.28125H7.21875V12.7188H3.09375V9.28125ZM7.90625 9.28125H18.9062V12.7188H7.90625V9.28125ZM18.9062 5.15625V8.59375H3.09375V5.15625H18.9062ZM3.09375 16.5V13.4062H7.21875V16.8438H3.4375C3.34633 16.8438 3.2589 16.8075 3.19443 16.7431C3.12997 16.6786 3.09375 16.5912 3.09375 16.5ZM18.5625 16.8438H7.90625V13.4062H18.9062V16.5C18.9062 16.5912 18.87 16.6786 18.8056 16.7431C18.7411 16.8075 18.6537 16.8438 18.5625 16.8438Z" fill="#253070"/>
</svg>
