<svg width="18" height="18" viewBox="0 0 18 18" fill="none" xmlns="http://www.w3.org/2000/svg">
<g clip-path="url(#clip0_303_6453)">
<path d="M16.2549 13.9152C15.7727 13.4854 15.3506 12.9926 14.9999 12.4502C14.617 11.7015 14.3875 10.8838 14.3249 10.0452V7.5752C14.3282 6.258 13.8504 4.98493 12.9813 3.99518C12.1121 3.00543 10.9115 2.36713 9.6049 2.2002V1.5552C9.6049 1.37816 9.53458 1.20838 9.4094 1.0832C9.28421 0.958021 9.11443 0.887695 8.9374 0.887695C8.76037 0.887695 8.59059 0.958021 8.46541 1.0832C8.34023 1.20838 8.2699 1.37816 8.2699 1.5552V2.2102C6.97503 2.38916 5.78889 3.03132 4.93117 4.01775C4.07345 5.00417 3.60227 6.26802 3.6049 7.5752V10.0452C3.54228 10.8838 3.31279 11.7015 2.9299 12.4502C2.58534 12.9914 2.17 13.4841 1.6949 13.9152C1.64157 13.9621 1.59882 14.0197 1.56951 14.0844C1.5402 14.149 1.52499 14.2192 1.5249 14.2902V14.9702C1.5249 15.1028 1.57758 15.23 1.67135 15.3237C1.76512 15.4175 1.89229 15.4702 2.0249 15.4702H15.9249C16.0575 15.4702 16.1847 15.4175 16.2785 15.3237C16.3722 15.23 16.4249 15.1028 16.4249 14.9702V14.2902C16.4248 14.2192 16.4096 14.149 16.3803 14.0844C16.351 14.0197 16.3082 13.9621 16.2549 13.9152ZM2.5649 14.4702C3.03011 14.0208 3.4397 13.5172 3.7849 12.9702C4.26721 12.0659 4.54862 11.0682 4.6099 10.0452V7.5752C4.59007 6.98921 4.68836 6.40523 4.89892 5.85803C5.10949 5.31082 5.42801 4.81159 5.83553 4.39005C6.24304 3.9685 6.73122 3.63328 7.27099 3.40433C7.81076 3.17539 8.39108 3.0574 8.9774 3.0574C9.56372 3.0574 10.144 3.17539 10.6838 3.40433C11.2236 3.63328 11.7118 3.9685 12.1193 4.39005C12.5268 4.81159 12.8453 5.31082 13.0559 5.85803C13.2664 6.40523 13.3647 6.98921 13.3449 7.5752V10.0452C13.4062 11.0682 13.6876 12.0659 14.1699 12.9702C14.5151 13.5172 14.9247 14.0208 15.3899 14.4702H2.5649Z" fill="#0E1031"/>
<path d="M8.99991 17.14C9.31488 17.1327 9.61713 17.0143 9.85321 16.8057C10.0893 16.5971 10.244 16.3117 10.2899 16H7.65991C7.70715 16.3202 7.86907 16.6123 8.11556 16.822C8.36205 17.0317 8.67632 17.1447 8.99991 17.14Z" fill="#0E1031"/>
</g>
<defs>
<clipPath id="clip0_303_6453">
<rect width="18" height="18" fill="white"/>
</clipPath>
</defs>
</svg>
