<svg width="16" height="15" viewBox="0 0 16 15" fill="none" xmlns="http://www.w3.org/2000/svg">
<path d="M14.25 2.53125H12L10.8906 0.867188C10.848 0.802486 10.79 0.749354 10.7219 0.712544C10.6537 0.675733 10.5775 0.656392 10.5 0.65625H5.5C5.42253 0.656392 5.3463 0.675733 5.27813 0.712544C5.20997 0.749354 5.15198 0.802486 5.10938 0.867188L4 2.53125H1.75C1.29479 2.53331 0.858814 2.71505 0.536931 3.03693C0.215047 3.35881 0.0333051 3.79479 0.03125 4.25V13C0.0333051 13.4552 0.215047 13.8912 0.536931 14.2131C0.858814 14.535 1.29479 14.7167 1.75 14.7188H14.25C14.7052 14.7167 15.1412 14.535 15.4631 14.2131C15.785 13.8912 15.9667 13.4552 15.9688 13V4.25C15.9667 3.79479 15.785 3.35881 15.4631 3.03693C15.1412 2.71505 14.7052 2.53331 14.25 2.53125ZM15.0312 13C15.0312 13.2072 14.9489 13.4059 14.8024 13.5524C14.6559 13.6989 14.4572 13.7812 14.25 13.7812H1.75C1.5428 13.7812 1.34409 13.6989 1.19757 13.5524C1.05106 13.4059 0.96875 13.2072 0.96875 13V4.25C0.96875 4.0428 1.05106 3.84409 1.19757 3.69757C1.34409 3.55106 1.5428 3.46875 1.75 3.46875H4.25C4.32747 3.46861 4.4037 3.44927 4.47187 3.41246C4.54003 3.37565 4.59802 3.32251 4.64062 3.25781L5.75 1.59375H10.25L11.3594 3.25781C11.402 3.32251 11.46 3.37565 11.5281 3.41246C11.5963 3.44927 11.6725 3.46861 11.75 3.46875H14.25C14.4572 3.46875 14.6559 3.55106 14.8024 3.69757C14.9489 3.84409 15.0312 4.0428 15.0312 4.25V13ZM8 5.03125C7.35103 5.03125 6.71663 5.22369 6.17704 5.58424C5.63744 5.94479 5.21687 6.45725 4.96852 7.05682C4.72017 7.65639 4.65519 8.31614 4.7818 8.95264C4.90841 9.58914 5.22091 10.1738 5.67981 10.6327C6.1387 11.0916 6.72336 11.4041 7.35986 11.5307C7.99636 11.6573 8.65611 11.5923 9.25568 11.344C9.85525 11.0956 10.3677 10.6751 10.7283 10.1355C11.0888 9.59587 11.2812 8.96147 11.2812 8.3125C11.2812 7.44226 10.9355 6.60766 10.3202 5.99231C9.70484 5.37695 8.87024 5.03125 8 5.03125ZM8 10.6562C7.53645 10.6562 7.08331 10.5188 6.69788 10.2613C6.31245 10.0037 6.01205 9.63768 5.83466 9.20941C5.65726 8.78115 5.61085 8.3099 5.70128 7.85526C5.79172 7.40061 6.01494 6.983 6.34272 6.65522C6.6705 6.32744 7.08811 6.10422 7.54276 6.01378C7.9974 5.92335 8.46865 5.96976 8.89691 6.14716C9.32518 6.32455 9.69122 6.62495 9.94876 7.01038C10.2063 7.39581 10.3438 7.84895 10.3438 8.3125C10.3417 8.93347 10.0941 9.52841 9.65501 9.96751C9.21591 10.4066 8.62097 10.6542 8 10.6562Z" fill="url(#paint0_linear_410_9165)"/>
<defs>
<linearGradient id="paint0_linear_410_9165" x1="0.03125" y1="7.6875" x2="15.9688" y2="7.6875" gradientUnits="userSpaceOnUse">
<stop stop-color="#7F65D9"/>
<stop offset="1" stop-color="#6A74CC"/>
</linearGradient>
</defs>
</svg>
