<svg width="24" height="24" viewBox="0 0 24 24" fill="none" xmlns="http://www.w3.org/2000/svg">
<path d="M18.0749 1.55371L22.2479 5.90371V22.4457H6.65918V22.4997H22.3012V5.95846L18.0749 1.55371Z" fill="#909090"/>
<path d="M18.0232 1.5H6.60596V22.446H22.248V5.90475L18.0225 1.5" fill="white"/>
<path d="M6.49123 2.625H1.69873V7.74525H16.7737V2.625H6.49123Z" fill="#7A7B7C"/>
<path d="M16.8541 7.65818H1.79639V2.53418H16.8541V7.65818Z" fill="#FD2A2A"/>
<path d="M6.78884 3.40039H5.80859V7.00039H6.57959V5.78614L6.74984 5.79589C6.91527 5.79304 7.07915 5.76341 7.23509 5.70814C7.37182 5.66111 7.4976 5.58687 7.60484 5.48989C7.71397 5.39751 7.8 5.28091 7.85609 5.14939C7.93132 4.93076 7.95818 4.69842 7.93484 4.46839C7.93016 4.30407 7.90135 4.14133 7.84934 3.98539C7.802 3.87282 7.73174 3.77134 7.64303 3.68741C7.55432 3.60348 7.44911 3.53894 7.33409 3.49789C7.23465 3.46189 7.13191 3.43576 7.02734 3.41989C6.94816 3.40767 6.86821 3.40116 6.78809 3.40039H6.78884ZM6.64634 5.12089H6.57959V4.01089H6.72434C6.78823 4.00628 6.85233 4.01609 6.91192 4.03959C6.9715 4.06308 7.02505 4.09967 7.06859 4.14664C7.15883 4.2674 7.20704 4.41439 7.20584 4.56514C7.20584 4.74964 7.20584 4.91689 7.03934 5.03464C6.91939 5.10061 6.78286 5.13032 6.64634 5.12014" fill="#464648"/>
<path d="M9.39979 3.39028C9.31654 3.39028 9.23554 3.39628 9.17854 3.39853L9.00004 3.40303H8.41504V7.00303H9.10354C9.36666 7.01024 9.62863 6.96564 9.87454 6.87178C10.0725 6.79327 10.2477 6.66671 10.3845 6.50353C10.5176 6.33887 10.613 6.14716 10.6643 5.94178C10.7232 5.70918 10.7519 5.46996 10.7498 5.23003C10.7643 4.94665 10.7424 4.66257 10.6845 4.38478C10.6296 4.1803 10.5268 3.99185 10.3845 3.83503C10.2729 3.7084 10.1363 3.60626 9.98329 3.53503C9.85187 3.47422 9.71364 3.42939 9.57154 3.40153C9.51503 3.39219 9.45781 3.38793 9.40054 3.38878L9.39979 3.39028ZM9.26404 6.34153H9.18904V4.04353H9.19879C9.35341 4.02574 9.50985 4.05364 9.64879 4.12378C9.75054 4.20502 9.83344 4.30738 9.89179 4.42378C9.95476 4.54628 9.99105 4.68073 9.99829 4.81828C10.005 4.98328 9.99829 5.11828 9.99829 5.23003C10.0013 5.35876 9.99306 5.4875 9.97354 5.61478C9.95042 5.74545 9.90769 5.87188 9.84679 5.98978C9.77786 6.09939 9.68472 6.19176 9.57454 6.25978C9.48201 6.31963 9.37243 6.34755 9.26254 6.33928" fill="#464648"/>
<path d="M13.0725 3.40332H11.25V7.00332H12.021V5.57532H12.996V4.90632H12.021V4.07232H13.071V3.40332" fill="#464648"/>
<path d="M16.3355 15.1911C16.3355 15.1911 18.7265 14.7576 18.7265 15.5744C18.7265 16.3911 17.2453 16.0589 16.3355 15.1911ZM14.5678 15.2534C14.1879 15.3373 13.8177 15.4602 13.463 15.6201L13.763 14.9451C14.063 14.2701 14.3743 13.3499 14.3743 13.3499C14.7323 13.9524 15.1488 14.5181 15.6178 15.0389C15.2641 15.0916 14.9136 15.1637 14.5678 15.2549V15.2534ZM13.6213 10.3784C13.6213 9.66664 13.8515 9.47239 14.0308 9.47239C14.21 9.47239 14.4118 9.55864 14.4185 10.1766C14.3601 10.7981 14.23 11.4106 14.0308 12.0021C13.7579 11.5055 13.6166 10.9473 13.6205 10.3806L13.6213 10.3784ZM10.1345 18.2654C9.40102 17.8266 11.6728 16.4759 12.0845 16.4324C12.0823 16.4331 10.9025 18.7244 10.1345 18.2654ZM19.4248 15.6711C19.4173 15.5961 19.3498 14.7659 17.8723 14.8011C17.2564 14.7912 16.6409 14.8346 16.0325 14.9309C15.4432 14.3372 14.9357 13.6675 14.5235 12.9396C14.7832 12.1892 14.9404 11.4071 14.9908 10.6146C14.969 9.71464 14.7538 9.19864 14.0638 9.20614C13.3738 9.21364 13.2733 9.81739 13.364 10.7159C13.4529 11.3197 13.6206 11.9092 13.8628 12.4694C13.8628 12.4694 13.544 13.4616 13.1225 14.4486C12.701 15.4356 12.413 15.9531 12.413 15.9531C11.6801 16.1917 10.9901 16.5462 10.3693 17.0031C9.75127 17.5784 9.50002 18.0201 9.82552 18.4619C10.106 18.8429 11.0878 18.9291 11.9653 17.7794C12.4315 17.1855 12.8575 16.5611 13.2403 15.9104C13.2403 15.9104 14.5783 15.5436 14.9945 15.4431C15.4108 15.3426 15.914 15.2631 15.914 15.2631C15.914 15.2631 17.1358 16.4924 18.314 16.4489C19.4923 16.4054 19.4353 15.7446 19.4278 15.6726" fill="#FD2A2A"/>
<path d="M17.9653 1.55762V5.96237H22.1901L17.9653 1.55762Z" fill="#909090"/>
<path d="M18.0234 1.5V5.90475H22.2482L18.0234 1.5Z" fill="#F4F4F4"/>
<path d="M6.73123 3.34277H5.75098V6.94277H6.52498V5.72927L6.69598 5.73902C6.86141 5.73618 7.02528 5.70654 7.18123 5.65127C7.31795 5.60423 7.44372 5.52999 7.55098 5.43302C7.65928 5.34039 7.74453 5.22381 7.79998 5.09252C7.8752 4.8739 7.90207 4.64155 7.87873 4.41152C7.87404 4.2472 7.84524 4.08447 7.79323 3.92852C7.74588 3.81595 7.67562 3.71447 7.58691 3.63054C7.4982 3.54661 7.39299 3.48207 7.27798 3.44102C7.17808 3.40467 7.07482 3.37829 6.96973 3.36227C6.89055 3.35006 6.81059 3.34354 6.73048 3.34277H6.73123ZM6.58873 5.06327H6.52198V3.95327H6.66748C6.73136 3.94867 6.79547 3.95847 6.85505 3.98197C6.91464 4.00547 6.96818 4.04205 7.01173 4.08902C7.10197 4.20978 7.15017 4.35678 7.14898 4.50752C7.14898 4.69202 7.14898 4.85927 6.98248 4.97702C6.86253 5.043 6.72599 5.0727 6.58948 5.06252" fill="white"/>
<path d="M9.34188 3.33266C9.25863 3.33266 9.17763 3.33866 9.12063 3.34091L8.94438 3.34541H8.35938V6.94541H9.04788C9.31099 6.95262 9.57296 6.90803 9.81888 6.81416C10.0168 6.73565 10.1921 6.6091 10.3289 6.44591C10.4619 6.28125 10.5574 6.08954 10.6086 5.88416C10.6675 5.65156 10.6963 5.41235 10.6941 5.17241C10.7087 4.88903 10.6867 4.60495 10.6289 4.32716C10.574 4.12268 10.4711 3.93423 10.3289 3.77741C10.2173 3.65078 10.0807 3.54864 9.92763 3.47741C9.79621 3.4166 9.65797 3.37178 9.51588 3.34391C9.45937 3.33458 9.40214 3.33031 9.34488 3.33116L9.34188 3.33266ZM9.20838 6.28391H9.13338V3.98591H9.14313C9.29774 3.96812 9.45419 3.99602 9.59313 4.06616C9.69487 4.14741 9.77778 4.24976 9.83613 4.36616C9.89909 4.48866 9.93539 4.62311 9.94263 4.76066C9.94938 4.92566 9.94263 5.06066 9.94263 5.17241C9.94568 5.30114 9.9374 5.42989 9.91788 5.55716C9.89476 5.68783 9.85203 5.81426 9.79113 5.93216C9.72219 6.04178 9.62906 6.13414 9.51888 6.20216C9.42634 6.26201 9.31677 6.28993 9.20688 6.28166" fill="white"/>
<path d="M13.0149 3.3457H11.1924V6.9457H11.9634V5.5177H12.9384V4.8487H11.9634V4.0147H13.0134V3.3457" fill="white"/>
</svg>
