<svg width="14" height="14" viewBox="0 0 14 14" fill="none" xmlns="http://www.w3.org/2000/svg">
<path d="M9.625 12.2502C5.28281 12.2502 1.75 8.71735 1.75 4.37516C1.75164 3.63035 2.0237 2.91147 2.51558 2.35219C3.00747 1.79291 3.68571 1.43128 4.42422 1.33453C4.61248 1.31366 4.80249 1.35329 4.96671 1.44769C5.13092 1.54209 5.2608 1.68634 5.3375 1.85953L6.43672 4.42438C6.49374 4.55751 6.5166 4.70277 6.50323 4.84698C6.48986 4.99119 6.44068 5.12978 6.36016 5.25016L5.45234 6.63922C5.86342 7.47347 6.54076 8.14697 7.37734 8.55328L8.75 7.64C8.87025 7.55894 9.00919 7.50987 9.15368 7.49743C9.29817 7.48499 9.44344 7.50959 9.57578 7.56891L12.1406 8.66266C12.3138 8.73936 12.4581 8.86924 12.5525 9.03345C12.6469 9.19766 12.6865 9.38768 12.6656 9.57594C12.5689 10.3144 12.2072 10.9927 11.648 11.4846C11.0887 11.9765 10.3698 12.2485 9.625 12.2502ZM4.53359 2.20406C4.00583 2.27191 3.52089 2.52979 3.16957 2.92943C2.81826 3.32906 2.62465 3.84305 2.625 4.37516C2.62645 6.23123 3.36441 8.01086 4.67685 9.32331C5.98929 10.6357 7.76893 11.3737 9.625 11.3752C10.1571 11.3755 10.6711 11.1819 11.0707 10.8306C11.4704 10.4793 11.7283 9.99433 11.7961 9.46656L9.23125 8.37281L7.86406 9.2861C7.73826 9.36926 7.59311 9.4185 7.44267 9.42904C7.29224 9.43958 7.14163 9.41106 7.00547 9.34625C5.98661 8.8534 5.16246 8.0331 4.66484 7.01656C4.59923 6.88086 4.56979 6.73051 4.57938 6.58008C4.58896 6.42965 4.63723 6.28425 4.71953 6.15797L5.63281 4.76891L4.53359 2.20406Z" fill="#7F65D9"/>
</svg>
