<svg width="22" height="22" viewBox="0 0 22 22" fill="none" xmlns="http://www.w3.org/2000/svg">
<path d="M11 11C12.094 11 13.1432 10.5654 13.9168 9.79182C14.6904 9.01823 15.125 7.96902 15.125 6.875C15.125 5.78098 14.6904 4.73177 13.9168 3.95818C13.1432 3.1846 12.094 2.75 11 2.75C9.90598 2.75 8.85677 3.1846 8.08318 3.95818C7.3096 4.73177 6.875 5.78098 6.875 6.875C6.875 7.96902 7.3096 9.01823 8.08318 9.79182C8.85677 10.5654 9.90598 11 11 11ZM11 12.375C9.54131 12.375 8.14236 11.7955 7.11091 10.7641C6.07946 9.73264 5.5 8.33369 5.5 6.875C5.5 5.41631 6.07946 4.01736 7.11091 2.98591C8.14236 1.95446 9.54131 1.375 11 1.375C12.4587 1.375 13.8576 1.95446 14.8891 2.98591C15.9205 4.01736 16.5 5.41631 16.5 6.875C16.5 8.33369 15.9205 9.73264 14.8891 10.7641C13.8576 11.7955 12.4587 12.375 11 12.375ZM17.875 19.25V17.1875C17.875 16.6405 17.6577 16.1159 17.2709 15.7291C16.8841 15.3423 16.3595 15.125 15.8125 15.125H6.1875C5.64049 15.125 5.11589 15.3423 4.72909 15.7291C4.3423 16.1159 4.125 16.6405 4.125 17.1875V19.25C4.125 19.4323 4.05257 19.6072 3.92364 19.7361C3.7947 19.8651 3.61984 19.9375 3.4375 19.9375C3.25516 19.9375 3.0803 19.8651 2.95136 19.7361C2.82243 19.6072 2.75 19.4323 2.75 19.25V17.1875C2.75 16.2758 3.11216 15.4015 3.75682 14.7568C4.40148 14.1122 5.27582 13.75 6.1875 13.75H15.8125C16.7242 13.75 17.5985 14.1122 18.2432 14.7568C18.8878 15.4015 19.25 16.2758 19.25 17.1875V19.25C19.25 19.4323 19.1776 19.6072 19.0486 19.7361C18.9197 19.8651 18.7448 19.9375 18.5625 19.9375C18.3802 19.9375 18.2053 19.8651 18.0764 19.7361C17.9474 19.6072 17.875 19.4323 17.875 19.25Z" fill="#919191"/>
</svg>
