<svg width="10" height="13" viewBox="0 0 10 13" fill="none" xmlns="http://www.w3.org/2000/svg">
<path fill-rule="evenodd" clip-rule="evenodd" d="M3.59106 8.20888V9.86788H4.85106C7.39206 9.86788 9.38706 7.91488 9.38706 5.39488C9.38706 2.87488 7.39206 0.921875 4.85106 0.921875C2.31006 0.921875 0.33606 2.87488 0.33606 5.39488H2.12106C2.12106 3.79888 3.23406 2.58088 4.85106 2.58088C6.44706 2.58088 7.60206 3.79888 7.60206 5.39488C7.60206 6.99088 6.44706 8.20888 4.85106 8.20888H3.59106ZM5.00006 10.9999C4.44777 10.9999 4.00006 11.4476 4.00006 11.9999C4.00006 12.5522 4.44777 12.9999 5.00006 12.9999C5.55234 12.9999 6.00006 12.5522 6.00006 11.9999C6.00006 11.4476 5.55234 10.9999 5.00006 10.9999Z" fill="url(#paint0_linear_1111_1093)" fill-opacity="0.6"/>
<defs>
<linearGradient id="paint0_linear_1111_1093" x1="0.33606" y1="6.96088" x2="9.38706" y2="6.96088" gradientUnits="userSpaceOnUse">
<stop stop-color="#7F65D9"/>
<stop offset="1" stop-color="#6A74CC"/>
</linearGradient>
</defs>
</svg>
