<svg width="22" height="22" viewBox="0 0 22 22" fill="none" xmlns="http://www.w3.org/2000/svg">
<path fill-rule="evenodd" clip-rule="evenodd" d="M11 22C17.0751 22 22 17.0751 22 11C22 4.92487 17.0751 0 11 0C4.92487 0 0 4.92487 0 11C0 17.0751 4.92487 22 11 22ZM16.7488 8.49877C17.1393 8.10825 17.1393 7.47508 16.7488 7.08456C16.3582 6.69404 15.7251 6.69404 15.3346 7.08456L9.16667 13.2525L6.66544 10.7512C6.27492 10.3607 5.64175 10.3607 5.25123 10.7512C4.8607 11.1418 4.8607 11.7749 5.25123 12.1654L8.45956 15.3738C8.6471 15.5613 8.90145 15.6667 9.16667 15.6667C9.43188 15.6667 9.68624 15.5613 9.87377 15.3738L16.7488 8.49877Z" fill="#4A9F5A"/>
</svg>
