<svg width="24" height="24" viewBox="0 0 24 24" fill="none" xmlns="http://www.w3.org/2000/svg">
<path d="M17.5556 10.25V6.16667C17.5556 5.85725 17.4385 5.5605 17.2301 5.34171C17.0217 5.12292 16.7391 5 16.4444 5H3.11111C2.81643 5 2.53381 5.12292 2.32544 5.34171C2.11706 5.5605 2 5.85725 2 6.16667V17.8333C2 18.1428 2.11706 18.4395 2.32544 18.6583C2.53381 18.8771 2.81643 19 3.11111 19H16.4444C16.7391 19 17.0217 18.8771 17.2301 18.6583C17.4385 18.4395 17.5556 18.1428 17.5556 17.8333V13.75L22 18.4167V5.58333L17.5556 10.25Z" fill="#4A8CFF"/>
</svg>
