<svg width="24" height="24" viewBox="0 0 24 24" fill="none" xmlns="http://www.w3.org/2000/svg">
<path d="M3.2652 2.46126L21.6912 11.5405C21.7917 11.59 21.8763 11.6666 21.9355 11.7617C21.9946 11.8569 22.026 11.9666 22.026 12.0787C22.026 12.1907 21.9946 12.3005 21.9355 12.3956C21.8763 12.4907 21.7917 12.5673 21.6912 12.6169L3.264 21.6961C3.16077 21.7468 3.04513 21.7667 2.93087 21.7536C2.8166 21.7405 2.70853 21.6947 2.61951 21.6219C2.53049 21.5491 2.46428 21.4522 2.42877 21.3428C2.39325 21.2334 2.38993 21.1161 2.4192 21.0049L4.782 12.0841L2.418 3.15366C2.38825 3.0422 2.39126 2.92452 2.42668 2.81473C2.4621 2.70493 2.52841 2.60768 2.61769 2.53461C2.70697 2.46154 2.81541 2.41576 2.93004 2.40275C3.04467 2.38974 3.16062 2.41006 3.264 2.46126H3.2652ZM3.9168 4.12086L5.8488 11.4193L5.9232 11.4049L6 11.4001H14.4C14.5499 11.3998 14.6945 11.4557 14.8053 11.5567C14.9161 11.6577 14.9851 11.7965 14.9987 11.9458C15.0122 12.0952 14.9693 12.2441 14.8785 12.3635C14.7877 12.4828 14.6555 12.5637 14.508 12.5905L14.4 12.6001H6C5.96298 12.6002 5.92603 12.597 5.8896 12.5905L3.918 20.0377L20.0676 12.0793L3.9168 4.12086Z" fill="#4150DE" fill-opacity="0.7"/>
</svg>
