<svg width="16" height="16" viewBox="0 0 16 16" fill="none" xmlns="http://www.w3.org/2000/svg">
<g clip-path="url(#clip0_102_422)">
<path d="M7.33398 1.3335C10.646 1.3335 13.334 4.0215 13.334 7.3335C13.334 10.6455 10.646 13.3335 7.33398 13.3335C4.02198 13.3335 1.33398 10.6455 1.33398 7.3335C1.33398 4.0215 4.02198 1.3335 7.33398 1.3335ZM7.33398 12.0002C9.91198 12.0002 12.0007 9.9115 12.0007 7.3335C12.0007 4.75483 9.91198 2.66683 7.33398 2.66683C4.75532 2.66683 2.66732 4.75483 2.66732 7.3335C2.66732 9.9115 4.75532 12.0002 7.33398 12.0002ZM12.9907 12.0475L14.8767 13.9328L13.9333 14.8762L12.048 12.9902L12.9907 12.0475Z" fill="#919191"/>
</g>
<defs>
<clipPath id="clip0_102_422">
<rect width="16" height="16" fill="white"/>
</clipPath>
</defs>
</svg>
