<svg width="34" height="34" viewBox="0 0 34 34" fill="none" xmlns="http://www.w3.org/2000/svg">
<path d="M26.356 15.9629C26.3647 15.9733 26.3737 15.9825 26.3834 15.9899C26.3732 15.9822 26.3649 15.9724 26.356 15.9629Z" fill="url(#paint0_linear_577_10669)"/>
<path d="M27.7953 18.8311C28.4691 18.358 28.8563 17.7538 28.9133 17.0482C29.0054 15.8807 28.5741 15.9394 28.3664 15.3186C29.2443 14.1418 28.9787 12.974 28.1045 12.4736L28.0028 12.4153C27.6902 12.2522 27.316 12.1784 26.8937 12.2029C26.5561 12.22 26.2253 12.2381 25.8883 12.2479C24.9123 12.2695 23.9445 12.2712 22.9767 12.2798C22.5553 12.2904 22.2517 12.2137 22.5045 11.624C22.6756 11.2338 22.7633 10.8301 22.8925 10.4327C22.952 10.2583 23.0114 10.0907 23.0987 9.92771C23.8231 8.50701 23.3799 6.80113 22.055 6.10193L22.0344 6.09151C21.8236 5.98029 21.5904 5.90052 21.3343 5.84545C20.9054 5.74881 20.5879 5.78327 20.3389 5.95587L20.3314 5.96201L20.331 5.96899C20.2724 6.00955 20.2128 6.06363 20.1602 6.12609C20.0164 6.30125 19.8968 6.537 19.7929 6.86056C19.7328 7.04181 19.6726 7.22375 19.6055 7.4039C19.4846 7.78119 19.3773 8.16053 19.2702 8.54001C19.1894 8.83173 19.102 9.11496 19.0076 9.39709C18.8733 9.76479 18.7247 10.1308 18.5282 10.4818C18.4424 10.6236 18.3566 10.7659 18.2639 10.9067L18.2555 10.9267C18.179 11.035 18.1092 11.1442 18.0324 11.2522C17.4096 12.1581 16.6706 13.0103 16.0528 13.8323C15.8238 13.7886 15.6248 13.7217 15.4311 13.6767C15.2995 13.6484 15.1607 13.6264 15.0205 13.6256C13.3247 13.6104 11.6128 13.6282 9.90953 13.6185C9.49629 13.6092 9.15004 13.7668 8.92322 14.0422C8.77937 14.2173 8.6887 14.4365 8.65249 14.6926C8.5882 15.1709 8.53842 15.6445 8.48836 16.1248C8.47287 16.2635 8.45689 16.41 8.43461 16.5481C8.40124 16.8683 8.36053 17.1875 8.32026 17.5066C8.06591 19.6111 7.80464 21.7214 7.54354 23.8245C7.50387 24.1295 7.47164 24.4291 7.43196 24.7341C7.41745 24.8593 7.42398 24.9805 7.44633 25.0761C7.48385 25.266 7.5808 25.4022 7.71536 25.4943C7.85698 25.5873 8.0432 25.6384 8.26056 25.6375C9.62045 25.6419 10.9959 25.6274 12.3639 25.6115C12.7922 25.602 13.2132 25.598 13.6411 25.5955C13.8866 25.5925 14.1092 25.5072 14.2933 25.3668L14.4124 25.2514L14.4199 25.2453C14.5331 25.1145 14.6268 24.9527 14.6807 24.7631C14.7168 24.6272 14.7954 24.491 14.8036 24.4711C15.8003 24.6862 16.7322 25.04 17.7608 25.0766C18.88 25.1204 20.016 25.1172 21.1528 25.1069C21.6157 25.1029 22.0787 25.0987 22.5349 25.0933C23.1801 25.0899 23.8185 25.0854 24.4559 25.0952C24.4766 25.0985 24.5048 25.0956 24.5258 25.0991C25.2194 25.1033 25.7774 24.9235 26.1875 24.6348C26.3995 24.4914 26.5711 24.3204 26.7085 24.1371L26.7154 24.1382C27.0509 23.6964 27.1888 23.1591 27.1253 22.7032C27.0928 22.4287 26.9676 22.1824 26.8853 21.9214C28.2044 20.864 28.4943 19.9049 27.7953 18.8311ZM13.9495 24.3276C13.9365 24.4248 13.8955 24.5243 13.8415 24.721C13.0829 24.7417 12.3375 24.7786 11.6074 24.7901C10.6392 24.7989 9.68887 24.7467 8.71128 24.7959C8.31713 24.8183 8.29298 24.6375 8.32314 24.3732C8.34863 24.186 8.36706 23.998 8.39254 23.8109C8.69521 21.254 9.01827 18.7077 9.3346 16.1533C9.3721 15.8831 9.40269 15.6119 9.44063 15.3347C9.44971 15.301 9.45221 15.2587 9.45482 15.2169C9.49026 14.982 9.51928 14.7315 9.55591 14.4753C10.9309 14.461 12.2785 14.4419 13.6184 14.4286C13.9829 14.4303 14.3294 14.4993 14.6972 14.4448C14.7399 14.4373 14.7749 14.4358 14.8032 14.4334C14.8384 14.4316 14.866 14.436 14.887 14.4395C14.9008 14.4417 14.9153 14.437 14.9291 14.4392C14.957 14.4438 14.9841 14.4547 15.0047 14.4656C15.0116 14.4667 15.0116 14.4667 15.0185 14.4677L15.025 14.4758C15.0385 14.4854 15.0589 14.4954 15.0715 14.5189C15.0784 14.52 15.0785 14.52 15.0776 14.534C15.084 14.5421 15.0905 14.5501 15.0968 14.5653C15.1093 14.5884 15.115 14.6109 15.1139 14.6315C15.1195 14.6535 15.1183 14.6749 15.1172 14.6955C15.1207 14.7528 15.1173 14.809 15.1062 14.878C14.7551 17.6537 14.4181 20.4313 14.0882 23.2033C14.0373 23.5773 13.9934 23.9525 13.9495 24.3276ZM26.8645 18.2229C26.7132 18.2908 26.5475 18.3634 26.3826 18.4221C26.1959 18.4916 26.0504 18.9284 26.2192 19.0334C26.5093 19.2211 26.8969 19.304 27.1354 19.5331C27.4345 19.8073 27.3864 20.2526 27.0856 20.7001C26.801 21.1147 26.4283 21.2466 26.0162 21.2236C25.877 21.2085 25.7225 21.2125 25.5854 21.2753C25.2167 21.4575 25.2007 21.9502 25.3474 22.0729C25.368 22.0833 25.3738 22.0982 25.3947 22.1016C25.4082 22.1112 25.4216 22.1204 25.4354 22.1226C25.4488 22.1318 25.4692 22.1418 25.4833 22.1441C25.5453 22.1611 25.6073 22.1781 25.6701 22.188C25.6907 22.1985 25.7114 22.2018 25.7321 22.2051C25.7528 22.2152 25.7735 22.2185 25.7873 22.2207C25.8148 22.2322 25.842 22.2436 25.8625 22.254C26.3176 22.4961 26.4312 22.9323 26.1725 23.4998C25.8978 24.0931 25.3621 24.2555 24.8572 24.2601C23.2156 24.2743 21.5835 24.2483 19.9415 24.2699C19.8081 24.2702 19.6751 24.27 19.5415 24.277C19.3592 24.2761 19.1696 24.2818 18.9869 24.288C17.7793 24.3152 16.6729 24.174 15.6773 23.7116C15.5544 23.6565 15.439 23.5957 15.345 23.5241C15.2513 23.4526 15.1717 23.376 15.1144 23.2818C14.9663 23.067 14.9133 22.7826 14.9722 22.3883C15.011 22.0972 15.0562 21.8145 15.0949 21.523C15.1607 21.0172 15.2331 20.5187 15.2985 20.0194C15.3304 19.7272 15.3689 19.436 15.4077 19.1449C15.4396 18.8528 15.4781 18.5616 15.5099 18.269C15.5965 17.5396 15.6758 16.8089 15.7412 16.0832C15.8126 15.3726 16.2853 14.8604 16.6903 14.3087C17.4942 13.1979 18.3993 12.1459 19.1555 11.0133C19.1861 10.9689 19.2168 10.9238 19.2475 10.8794C19.2635 10.8467 19.2865 10.8149 19.3027 10.7819C19.3033 10.7747 19.3105 10.7691 19.3111 10.7619C19.327 10.7292 19.3501 10.6974 19.3665 10.6577C19.3826 10.6248 19.399 10.5847 19.4154 10.5451C19.4397 10.4923 19.4638 10.4394 19.4886 10.3797C19.4974 10.3527 19.513 10.327 19.5215 10.2998C19.5381 10.2598 19.5549 10.2132 19.5718 10.1659C19.5875 10.14 19.5962 10.1132 19.6047 10.086C19.6142 10.0452 19.6308 10.0053 19.647 9.96554C19.6559 9.93136 19.6725 9.89145 19.6819 9.85099C19.7589 9.62244 19.8294 9.38582 19.9063 9.15754C19.9739 8.97015 20.0344 8.7815 20.0951 8.59301C20.1889 8.31743 20.2758 8.04117 20.363 7.75779C20.4504 7.47456 20.5373 7.19788 20.6247 6.91466C20.6586 6.82117 20.748 6.72907 20.8089 6.65408C22.2038 6.77687 22.7455 7.89678 22.5522 8.77185C22.4844 9.07971 22.3955 9.39098 22.2995 9.70142C22.2284 9.95214 22.1431 10.2005 22.0647 10.4495C21.9623 10.7519 21.8599 11.0543 21.7642 11.3573C21.5908 11.9033 21.3966 12.4455 21.1827 13.084C22.7191 13.0668 24.1787 13.0514 25.6372 13.0498C25.7495 13.0468 25.8684 13.0516 25.9808 13.0478C26.4579 13.0459 26.9568 13.0263 27.3926 13.124C28.0978 13.286 28.2848 14.1368 27.7312 14.707C27.7161 14.7257 27.7014 14.7375 27.6861 14.7565C27.6563 14.7869 27.6196 14.8094 27.5829 14.8388C27.5033 14.8828 27.4235 14.9266 27.3303 14.9617C27.1355 15.0511 26.9138 15.1217 26.7261 15.2123C26.4151 15.3679 26.3049 15.5701 26.2951 15.7313C26.2926 15.7735 26.2971 15.8093 26.3088 15.8468C26.3079 15.8607 26.3075 15.8677 26.3144 15.8757C26.3261 15.9131 26.3387 15.9363 26.3582 15.9609C26.3646 15.969 26.3707 15.984 26.3848 15.9864C26.5051 16.0833 26.7529 16.0451 26.9494 16.0411C27.4615 16.0378 27.9077 16.1939 28.0208 16.6435C28.0941 16.9382 28.0026 17.405 27.8018 17.7055C27.6314 17.9484 27.1888 18.0833 26.8645 18.2229Z" fill="#8D99AF"/>
<path d="M26.172 23.4974C25.8955 24.0919 25.3635 24.2542 24.8545 24.2597C23.2137 24.2767 21.5829 24.2491 19.941 24.2694C19.8081 24.27 19.675 24.2718 19.5393 24.2755C19.3559 24.2779 19.1719 24.2819 18.9876 24.2859C17.7782 24.315 16.6749 24.1721 15.6797 23.7127C15.1204 23.4559 14.8637 23.1145 14.9693 22.3907C15.0123 22.0999 15.0526 21.8104 15.0927 21.519C15.1623 21.0193 15.2303 20.519 15.2946 20.0202C15.3317 19.7285 15.3685 19.437 15.4041 19.1448C15.4411 18.8531 15.4765 18.5611 15.5086 18.2705C15.5936 17.5399 15.6724 16.8103 15.7423 16.0822C15.8116 15.371 16.2854 14.8587 16.6875 14.3058C17.493 13.1981 18.4018 12.1431 19.1576 11.0161C19.1884 10.9696 19.2174 10.9232 19.2453 10.8761C19.265 10.8445 19.2833 10.8128 19.3001 10.7806C19.3042 10.7747 19.3069 10.7682 19.3101 10.7607C19.3291 10.7273 19.3464 10.6936 19.3623 10.6598C19.3827 10.6232 19.3997 10.5864 19.4163 10.5476C19.4535 10.4676 19.4884 10.3855 19.5206 10.303C19.5397 10.258 19.5559 10.2125 19.5728 10.1659C19.5841 10.1395 19.5923 10.1129 19.6028 10.0847C19.6156 10.0469 19.6292 10.0078 19.6428 9.96871C19.6564 9.92962 19.6692 9.89187 19.6815 9.85269C19.7586 9.62023 19.8285 9.38651 19.9088 9.15801C19.9741 8.97146 20.0367 8.78476 20.0961 8.59731C20.1872 8.31766 20.2734 8.03842 20.3599 7.75794C20.4481 7.4777 20.5348 7.19695 20.6261 6.91702C20.6562 6.82431 20.7494 6.73326 20.8056 6.65268C22.2034 6.77424 22.745 7.89918 22.5496 8.77118C22.359 9.62863 22.0367 10.4953 21.7614 11.3576C21.5888 11.9022 21.3978 12.4457 21.183 13.0815C22.8377 13.0682 24.4085 13.0499 25.9758 13.0476C26.4552 13.0455 26.9533 13.0284 27.3883 13.1268C28.0957 13.2881 28.2825 14.1374 27.731 14.7114C27.7165 14.7272 27.7011 14.7414 27.6837 14.7567C27.6514 14.7846 27.6149 14.8119 27.5783 14.8359C27.5012 14.885 27.418 14.9265 27.33 14.9652C27.1313 15.0513 26.9136 15.1192 26.7225 15.2133C26.2228 15.4607 26.2449 15.831 26.3553 15.9626C26.3642 15.9721 26.3725 15.9819 26.3827 15.9896C26.5019 16.083 26.7499 16.0427 26.9449 16.0419C27.4584 16.0404 27.9066 16.1919 28.0185 16.6429C28.0926 16.9374 28.0036 17.4025 27.7988 17.7043C27.6336 17.9494 27.1904 18.0829 26.8626 18.2227C26.7102 18.2878 26.5436 18.3642 26.3857 18.42C26.1927 18.4888 26.0468 18.9268 26.2161 19.0347C26.5071 19.2228 26.8948 19.3037 27.1373 19.5322C27.4304 19.8098 27.385 20.2491 27.0822 20.6972C26.7997 21.1155 26.4287 21.247 26.0134 21.2195C25.8781 21.2114 25.7216 21.2114 25.5851 21.2774C25.2176 21.4556 25.2002 21.9472 25.3497 22.075C25.3641 22.0855 25.3768 22.0958 25.3935 22.1036C25.4069 22.1121 25.421 22.1194 25.4373 22.1253C25.4515 22.1324 25.4675 22.1384 25.4844 22.1427C25.5425 22.1632 25.6061 22.175 25.6698 22.1902C25.691 22.1952 25.7138 22.2004 25.7345 22.2069C25.7543 22.2118 25.772 22.2178 25.7896 22.2239C25.8153 22.233 25.839 22.2434 25.862 22.2553C26.3138 22.4981 26.4344 22.9321 26.172 23.4974Z" fill="url(#paint1_linear_577_10669)"/>
<path d="M9.55355 14.4752C10.9324 14.4598 12.2764 14.442 13.6183 14.432C13.9803 14.4294 14.3293 14.4976 14.6962 14.4473C15.0901 14.393 15.1489 14.5139 15.1028 14.8785C14.7044 18.0309 14.331 21.1797 13.9476 24.3299C13.9358 24.4268 13.8956 24.5282 13.8436 24.7195C13.0823 24.7441 12.3399 24.782 11.6057 24.789C10.639 24.7982 9.6878 24.7438 8.71173 24.7978C8.31815 24.8198 8.29049 24.6395 8.32271 24.3735C8.65423 21.6335 8.99504 18.8924 9.33488 16.1511C9.40155 15.6146 9.47483 15.0773 9.55355 14.4752Z" fill="url(#paint2_linear_577_10669)"/>
<defs>
<linearGradient id="paint0_linear_577_10669" x1="26.3496" y1="15.9729" x2="26.3826" y2="15.9869" gradientUnits="userSpaceOnUse">
<stop stop-color="#122535"/>
<stop offset="1" stop-color="#354249"/>
</linearGradient>
<linearGradient id="paint1_linear_577_10669" x1="27.5946" y1="12.3468" x2="8.36476" y2="22.933" gradientUnits="userSpaceOnUse">
<stop offset="0.00045606" stop-color="white"/>
<stop offset="1" stop-color="#CAD2FF"/>
</linearGradient>
<linearGradient id="paint2_linear_577_10669" x1="9.0765" y1="15.1247" x2="16.883" y2="19.6318" gradientUnits="userSpaceOnUse">
<stop stop-color="#8063D4"/>
<stop offset="1" stop-color="#7271F2"/>
</linearGradient>
</defs>
</svg>
