<svg width="10" height="10" viewBox="0 0 10 10" fill="none" xmlns="http://www.w3.org/2000/svg">
<path d="M5 10C4.34339 10 3.69321 9.87067 3.08658 9.6194C2.47995 9.36812 1.92876 8.99983 1.46447 8.53553C0.526784 7.59785 0 6.32608 0 5C0 3.67392 0.526784 2.40215 1.46447 1.46447C2.40215 0.526784 3.67392 0 5 0C5.65661 0 6.30679 0.129329 6.91342 0.380602C7.52005 0.631876 8.07124 1.00017 8.53553 1.46447C8.99983 1.92876 9.36812 2.47995 9.6194 3.08658C9.87067 3.69321 10 4.34339 10 5C10 6.32608 9.47322 7.59785 8.53553 8.53553C7.59785 9.47322 6.32608 10 5 10ZM7.5 6L5 3.5L2.5 6H7.5Z" fill="url(#paint0_linear_190_1494)"/>
<defs>
<linearGradient id="paint0_linear_190_1494" x1="0" y1="5" x2="10" y2="5" gradientUnits="userSpaceOnUse">
<stop stop-color="#7F65D9"/>
<stop offset="1" stop-color="#6A74CC"/>
</linearGradient>
</defs>
</svg>
