<svg width="24" height="24" viewBox="0 0 24 24" fill="none" xmlns="http://www.w3.org/2000/svg">
<path d="M10.7238 5.13979L10.7131 5.00105C11.0741 5.26211 11.5102 5.42188 12 5.42188C12.4898 5.42188 12.9259 5.26212 13.2869 5.00108L13.2762 5.13979L12.9219 9.74605V9V8.5H12.4219H11.5781H11.0781V9V9.74605L10.7238 5.13979ZM10.1518 4.43828C10.2097 4.51749 10.2718 4.59351 10.3379 4.66572C10.0936 4.52291 9.84395 4.36868 9.59498 4.20437C9.77813 4.2926 9.96389 4.37061 10.1518 4.43828ZM13.8482 4.43831C14.0361 4.37064 14.2218 4.29263 14.405 4.20441C14.156 4.36868 13.9064 4.52289 13.6621 4.66567C13.7282 4.59349 13.7903 4.5175 13.8482 4.43831ZM7.92188 19.6719H8.42188V19.1719V15.1719H15.5781V21.4219V21.9219H16.0781H22.3281V22.3281H1.67188V19.6719H7.92188ZM11.4219 2.625C11.4219 1.92885 11.8384 1.67188 12 1.67188C12.1616 1.67188 12.5781 1.92885 12.5781 2.625C12.5781 3.32115 12.1616 3.57812 12 3.57812C11.8384 3.57812 11.4219 3.32115 11.4219 2.625Z" stroke="#919191"/>
</svg>
