<svg width="23" height="22" viewBox="0 0 23 22" fill="none" xmlns="http://www.w3.org/2000/svg">

<defs>
<linearGradient id="paint0_linear_300_6020" x1="4.01977" y1="6.49944" x2="18.9798" y2="6.49944" gradientUnits="userSpaceOnUse">
<stop stop-color="#8063D4"/>
<stop offset="1" stop-color="#7271F2"/>
</linearGradient>
</defs>
<path d="M18.8332 20.1667H4.1665V18.3334C4.1665 17.1178 4.64939 15.9521 5.50893 15.0925C6.36847 14.233 7.53426 13.7501 8.74984 13.7501H14.2498C15.4654 13.7501 16.6312 14.233 17.4907 15.0925C18.3503 15.9521 18.8332 17.1178 18.8332 18.3334V20.1667ZM11.4998 11.9167C10.7776 11.9167 10.0624 11.7745 9.39508 11.4981C8.72779 11.2217 8.12147 10.8166 7.61075 10.3058C7.10003 9.79511 6.6949 9.1888 6.4185 8.52151C6.1421 7.85422 5.99984 7.13902 5.99984 6.41675C5.99984 5.69448 6.1421 4.97928 6.4185 4.31199C6.6949 3.6447 7.10003 3.03838 7.61075 2.52766C8.12147 2.01694 8.72779 1.61181 9.39508 1.33541C10.0624 1.05901 10.7776 0.916748 11.4998 0.916748C12.9585 0.916748 14.3575 1.49621 15.3889 2.52766C16.4204 3.55911 16.9998 4.95806 16.9998 6.41675C16.9998 7.87544 16.4204 9.27439 15.3889 10.3058C14.3575 11.3373 12.9585 11.9167 11.4998 11.9167Z" fill="url(#paint0_linear_300_6020)"/>

</svg>
