<svg width="24" height="24" viewBox="0 0 24 24" fill="none" xmlns="http://www.w3.org/2000/svg">

<defs>
<linearGradient id="paint0_linear_318_6290" x1="0.955207" y1="7.4524" x2="23.0446" y2="7.4524" gradientUnits="userSpaceOnUse">
<stop stop-color="#8063D4"/>
<stop offset="1" stop-color="#7271F2"/>
</linearGradient>
</defs>
<path d="M12 1.17188C11.4565 1.17188 10.9219 1.77187 10.9219 2.625C10.9219 3.47813 11.4565 4.07812 12 4.07812C12.5435 4.07812 13.0781 3.47813 13.0781 2.625C13.0781 1.77187 12.5435 1.17188 12 1.17188ZM7.1273 1.31133L6.3727 1.68867C7.08014 3.10359 8.78067 4.35164 10.2253 5.17814L10.8907 13.8281H11.5781V9H12.4219V13.8281H13.1093L13.7747 5.17814C15.2193 4.35164 16.9199 3.10359 17.6273 1.68867L16.8727 1.31133C15.9394 2.71289 14.7684 3.61514 13.5289 4.0193C13.1865 4.56 12.6445 4.92188 12 4.92188C11.3555 4.92188 10.8136 4.56 10.4711 4.01925C9.23156 3.61519 8.06058 2.71289 7.1273 1.31133ZM7.92188 14.6719V19.1719H1.17188V22.8281H22.8281V21.4219H16.0781V14.6719H7.92188Z" fill="url(#paint0_linear_318_6290)"/>

</svg>
