<svg width="14" height="14" viewBox="0 0 14 14" fill="none" xmlns="http://www.w3.org/2000/svg">
<g clip-path="url(#clip0_593_13349)">
<path d="M6.99999 6.61144C7.5384 6.61144 8.06471 6.45178 8.51238 6.15266C8.96005 5.85354 9.30896 5.42839 9.515 4.93097C9.72104 4.43354 9.77495 3.8862 9.66991 3.35814C9.56487 2.83008 9.3056 2.34502 8.92489 1.96431C8.54419 1.5836 8.05913 1.32434 7.53107 1.2193C7.00301 1.11426 6.45566 1.16817 5.95824 1.37421C5.46082 1.58025 5.03567 1.92916 4.73655 2.37683C4.43743 2.8245 4.27777 3.35081 4.27777 3.88922C4.27777 4.61119 4.56458 5.3036 5.07509 5.81412C5.58561 6.32463 6.27802 6.61144 6.99999 6.61144ZM6.99999 1.94477C7.38457 1.94477 7.76051 2.05881 8.08027 2.27247C8.40003 2.48613 8.64926 2.78981 8.79643 3.14511C8.9436 3.50041 8.9821 3.89137 8.90708 4.26856C8.83205 4.64574 8.64686 4.99221 8.37492 5.26415C8.10299 5.53608 7.75652 5.72127 7.37934 5.7963C7.00215 5.87133 6.61119 5.83282 6.25589 5.68565C5.90059 5.53848 5.59691 5.28925 5.38325 4.96949C5.16959 4.64973 5.05555 4.27379 5.05555 3.88922C5.05555 3.37352 5.26041 2.87894 5.62506 2.51429C5.98972 2.14963 6.48429 1.94477 6.99999 1.94477Z" fill="#7F65D9"/>
<path d="M11.8495 9.47755C11.2258 8.81839 10.4743 8.29335 9.64078 7.93452C8.8073 7.57569 7.9094 7.39062 7.00196 7.39062C6.09452 7.39062 5.19662 7.57569 4.36314 7.93452C3.52966 8.29335 2.77812 8.81839 2.15446 9.47755C2.01925 9.62197 1.94415 9.81249 1.94446 10.0103V12.0559C1.94446 12.2622 2.0264 12.46 2.17226 12.6059C2.31813 12.7517 2.51596 12.8337 2.72224 12.8337H11.2778C11.4841 12.8337 11.6819 12.7517 11.8278 12.6059C11.9736 12.46 12.0556 12.2622 12.0556 12.0559V10.0103C12.0569 9.81302 11.9833 9.62257 11.8495 9.47755ZM11.2778 12.0559H2.72224V10.0064C3.27338 9.42609 3.93685 8.96396 4.67226 8.64816C5.40768 8.33237 6.19966 8.16952 7.00001 8.16952C7.80037 8.16952 8.59235 8.33237 9.32776 8.64816C10.0632 8.96396 10.7266 9.42609 11.2778 10.0064V12.0559Z" fill="#7F65D9"/>
</g>
<defs>
<clipPath id="clip0_593_13349">
<rect width="14" height="14" fill="white"/>
</clipPath>
</defs>
</svg>
