<svg width="28" height="18" viewBox="0 0 28 18" fill="none" xmlns="http://www.w3.org/2000/svg">
<path d="M25.4262 2.8187C25.2771 2.27389 24.9862 1.7772 24.5825 1.3781C24.1787 0.979001 23.6763 0.691408 23.1252 0.543961C21.1075 0 12.987 0 12.987 0C12.987 0 4.86616 0.0164654 2.84849 0.560426C2.29735 0.707882 1.79491 0.99549 1.39119 1.39461C0.987472 1.79373 0.696569 2.29044 0.547451 2.83526C-0.0628487 6.37914 -0.299595 11.7792 0.564209 15.1813C0.713343 15.7261 1.00425 16.2228 1.40797 16.6219C1.81168 17.021 2.31412 17.3086 2.86525 17.456C4.88292 18 13.0036 18 13.0036 18C13.0036 18 21.1242 18 23.1417 17.456C23.6929 17.3086 24.1953 17.021 24.5991 16.6219C25.0028 16.2228 25.2937 15.7261 25.4429 15.1813C26.0866 11.6324 26.2849 6.23577 25.4262 2.8188V2.8187Z" fill="#FF0000"/>
<path d="M10 12.6836L17.2532 8.8418L10 5V12.6836Z" fill="white"/>
</svg>
