<svg width="21" height="21" viewBox="0 0 21 21" fill="none" xmlns="http://www.w3.org/2000/svg">
<path d="M10.5 20C15.7467 20 20 15.7467 20 10.5C20 5.25329 15.7467 1 10.5 1C5.25329 1 1 5.25329 1 10.5C1 15.7467 5.25329 20 10.5 20Z" stroke="#0AAB39" stroke-width="1.8" stroke-linecap="round" stroke-linejoin="round"/>
<path d="M1.63379 7.3335H19.3671" stroke="#0AAB39" stroke-width="1.8" stroke-linecap="round" stroke-linejoin="round"/>
<path d="M1.63379 13.6665H19.3671" stroke="#0AAB39" stroke-width="1.8" stroke-linecap="round" stroke-linejoin="round"/>
<path d="M9.97198 1C8.19373 3.84959 7.25098 7.14108 7.25098 10.5C7.25098 13.8589 8.19373 17.1504 9.97198 20" stroke="#0AAB39" stroke-width="1.8" stroke-linecap="round" stroke-linejoin="round"/>
<path d="M11.0273 1C12.8056 3.84959 13.7483 7.14108 13.7483 10.5C13.7483 13.8589 12.8056 17.1504 11.0273 20" stroke="#0AAB39" stroke-width="1.8" stroke-linecap="round" stroke-linejoin="round"/>
</svg>
