<svg width="68" height="50" viewBox="0 0 68 50" fill="none" xmlns="http://www.w3.org/2000/svg">
<path d="M42.3695 29.3003C41.932 28.7956 41.2946 28.0633 40.6586 27.3294C38.7783 25.1599 36.8995 22.986 35.0148 20.8208C34.5933 20.3365 34.3847 19.826 34.389 19.1473C34.4165 13.4189 34.402 7.68908 34.4006 1.9607C34.4006 1.35016 34.4006 0.738163 34.4006 0C34.7613 0.398811 35.0641 0.719312 35.3494 1.05286C38.0033 4.13604 40.6499 7.22356 43.3096 10.3009C43.7587 10.8216 43.9948 11.3552 43.9687 12.0789C43.9021 13.9337 43.9224 15.7915 43.918 17.6478C43.9166 17.9393 43.9673 18.2322 44.0006 18.6078C44.3729 18.5266 44.6786 18.4744 44.9755 18.3917C49.417 17.1416 53.7759 17.3505 58.0189 19.1937C62.5386 21.1573 65.6836 24.4522 67.2075 29.164C67.6609 30.5678 67.9956 32.0833 67.9999 33.548C68.0115 37.249 66.8381 40.628 64.4421 43.4719C60.1701 48.5404 54.6117 50.4895 48.1132 49.8485C44.8857 49.5294 41.9218 48.3881 39.2882 46.4608C38.9377 46.2041 38.6059 45.901 38.3264 45.5674C35.7782 42.5292 33.2417 39.4794 30.7037 36.4325C28.2555 33.4929 25.8219 30.5402 23.3491 27.6224C22.9898 27.1989 22.4784 26.8625 21.9743 26.6101C18.0181 24.6277 13.3159 25.5703 10.5114 28.916C8.84402 30.9057 8.32397 33.2377 8.96715 35.7146C9.90152 39.3213 13.1319 41.7113 16.5884 42.0246C20.0462 42.3378 22.9492 41.24 25.0686 38.3758C25.1164 38.312 25.17 38.2511 25.2265 38.1974C25.2526 38.1713 25.296 38.1626 25.4061 38.1118C25.664 38.3932 25.9479 38.6876 26.2144 38.995C28.2642 41.3618 30.3097 43.73 32.358 46.0982C32.6058 46.3839 32.8433 46.6812 33.107 46.951C33.9168 47.7761 33.53 48.7927 33.5503 49.7397C33.5517 49.8137 33.2852 49.9602 33.1417 49.9616C30.2706 49.9776 27.3994 49.9834 24.5282 49.9602C24.3573 49.9587 24.0589 49.7035 24.0444 49.5469C23.9952 49.0233 23.7865 48.9711 23.336 49.1176C20.8343 49.9297 18.2659 50.1661 15.6569 49.8891C11.6746 49.4656 8.14289 47.9821 5.18625 45.2469C2.26583 42.5466 0.528939 39.2474 0.08711 35.2462C-0.286634 31.857 0.560809 28.7695 2.27308 25.9314C5.08051 21.2806 9.35684 18.7688 14.6371 17.874C18.0196 17.3012 21.3152 17.6797 24.5065 18.9196C26.129 19.549 27.7311 20.2756 29.0161 21.4575C30.0055 22.3682 30.8095 23.482 31.683 24.5175C34.5744 27.9458 37.4644 31.3756 40.3443 34.814C41.5973 36.3107 42.8968 37.7783 44.0383 39.359C45.2768 41.0732 47.0471 41.7273 48.9621 41.9636C52.1027 42.3508 54.8754 41.4706 57.0845 39.082C60.2498 35.6595 59.7471 30.3126 56.0097 27.5252C52.743 25.0889 47.8467 24.8351 44.4439 27.6137C43.7645 28.1648 43.0851 28.7173 42.3695 29.3003ZM38.9406 38.9834C38.7015 38.7833 38.4828 38.6412 38.3177 38.4527C38.0207 38.1162 37.9483 37.7594 38.3119 37.3969C38.6668 37.043 39.1188 36.9734 39.4273 37.3055C39.7127 37.6115 39.9575 38.0901 39.9647 38.4962C39.9807 39.5621 38.8566 40.5627 37.7976 40.5497C36.4359 40.5323 35.3016 39.5461 35.1857 38.1655C34.9713 35.6015 34.8033 33.0346 34.6367 30.4677C34.5237 28.7217 33.6198 27.5078 32.0987 26.7726C30.8124 26.1504 29.5535 26.4013 28.4468 27.2584C27.4487 28.0314 27.1734 29.1016 27.4067 30.314C27.6196 31.422 28.328 32.1906 29.1957 32.833C30.217 33.5901 31.2498 34.3326 32.2798 35.0765C32.316 35.1026 32.3885 35.0794 32.5087 35.0794C32.5971 33.6988 32.148 32.5822 30.9761 31.7787C32.2711 31.0406 32.513 30.6809 32.345 29.8253C32.2291 29.2379 31.5874 28.6448 30.9543 28.5911C30.4082 28.5447 29.8968 28.6259 29.5839 29.2292C29.7679 29.3424 29.9866 29.4004 30.0518 29.5323C30.1981 29.8325 30.4053 30.2096 30.3271 30.4822C30.2633 30.7099 29.8432 30.9419 29.5564 30.9782C28.9538 31.0565 28.4699 30.3068 28.5525 29.5671C28.6829 28.4026 30.2112 27.067 31.5743 27.7544C32.5652 28.2532 33.2171 28.9421 33.3141 30.0544C33.5329 32.5778 33.7632 35.1012 33.9052 37.6289C33.9906 39.1618 34.7077 40.2669 35.913 41.095C37.2877 42.0391 39.449 41.7621 40.45 40.5584C41.4901 39.3083 41.5017 37.3824 40.269 36.2512C38.9913 35.0794 37.5412 34.0962 36.0709 32.9578C35.8594 34.4674 36.4982 35.4956 37.5325 36.402C36.7271 36.8502 35.9101 37.262 36.2041 38.3569C36.3736 38.9878 36.8401 39.3808 37.4485 39.5273C38.0106 39.6621 38.5596 39.5737 38.9406 38.9834Z" fill="url(#paint0_linear_703_10471)"/>
<path d="M38.9406 38.9826C38.5596 39.5714 38.0106 39.6613 37.4485 39.5264C36.8401 39.3814 36.3736 38.9869 36.2042 38.3561C35.9101 37.2612 36.7271 36.8493 37.5325 36.4012C36.4982 35.4963 35.8579 34.4681 36.0709 32.9569C37.5412 34.0968 38.9913 35.0786 40.269 36.2504C41.5018 37.3801 41.4902 39.3074 40.4501 40.5575C39.4491 41.7612 37.2877 42.0382 35.913 41.0941C34.7063 40.266 33.9907 39.161 33.9052 37.6281C33.7632 35.1004 33.5343 32.577 33.3142 30.0536C33.2171 28.9413 32.5652 28.2524 31.5744 27.7535C30.2112 27.0676 28.6829 28.4018 28.5525 29.5663C28.47 30.3074 28.9538 31.0557 29.5564 30.9774C29.8433 30.9397 30.2619 30.7091 30.3271 30.4814C30.4039 30.2087 30.1982 29.8331 30.0519 29.5315C29.9867 29.3981 29.7679 29.3415 29.584 29.2284C29.8969 28.6251 30.4082 28.5439 30.9543 28.5903C31.5874 28.6454 32.2291 29.2386 32.345 29.8244C32.5131 30.6786 32.2711 31.0397 30.9761 31.7779C32.148 32.5813 32.5971 33.698 32.5087 35.0786C32.3885 35.0786 32.3161 35.1018 32.2798 35.0757C31.2484 34.3317 30.217 33.5878 29.1957 32.8322C28.328 32.1898 27.6196 31.4211 27.4067 30.3132C27.1734 29.1008 27.4487 28.0305 28.4468 27.2575C29.5535 26.4005 30.8124 26.1496 32.0988 26.7717C33.6184 27.507 34.5238 28.7208 34.6367 30.4669C34.8033 33.0338 34.9714 35.6021 35.1858 38.1647C35.3017 39.5438 36.4359 40.5314 37.7976 40.5488C38.858 40.5619 39.9807 39.5627 39.9648 38.4953C39.959 38.0893 39.7127 37.6107 39.4273 37.3047C39.1188 36.9726 38.6683 37.0436 38.3119 37.3961C37.9483 37.7572 38.0193 38.1139 38.3177 38.4518C38.4843 38.6403 38.7016 38.7825 38.9406 38.9826Z" fill="white"/>
<defs>
<linearGradient id="paint0_linear_703_10471" x1="3.4" y1="50" x2="68.0781" y2="49.6913" gradientUnits="userSpaceOnUse">
<stop stop-color="#8063D4"/>
<stop offset="1" stop-color="#7271F2"/>
</linearGradient>
</defs>
</svg>
