<svg width="48" height="48" viewBox="0 0 48 48" fill="none" xmlns="http://www.w3.org/2000/svg">
<defs>
<linearGradient id="paint0_linear_400_10006" x1="12.7219" y1="25.7466" x2="25.5395" y2="19.8263" gradientUnits="userSpaceOnUse">
<stop stop-color="white"/>
<stop offset="1" stop-color="#EDEEFF"/>
</linearGradient>
<linearGradient id="paint1_linear_400_10006" x1="23.0995" y1="18.7291" x2="36.4782" y2="18.7291" gradientUnits="userSpaceOnUse">
<stop stop-color="#FFD6B8"/>
<stop offset="0.447917" stop-color="#F6AD77"/>
<stop offset="0.859375" stop-color="#EC5E0F"/>
</linearGradient>
<linearGradient id="paint2_linear_400_10006" x1="-nan" y1="-nan" x2="-nan" y2="-nan" gradientUnits="userSpaceOnUse">
<stop stop-color="#41CBB3"/>
<stop offset="1" stop-color="#2C8C7A"/>
</linearGradient>
<linearGradient id="paint3_linear_400_10006" x1="7.90055" y1="32.3167" x2="11.8501" y2="32.3167" gradientUnits="userSpaceOnUse">
<stop stop-color="#FFD6B8"/>
<stop offset="0.447917" stop-color="#F6AD77"/>
<stop offset="0.859375" stop-color="#EC5E0F"/>
</linearGradient>
<linearGradient id="paint4_linear_400_10006" x1="11.7388" y1="31.364" x2="14.9273" y2="31.364" gradientUnits="userSpaceOnUse">
<stop stop-color="#FFD6B8"/>
<stop offset="0.447917" stop-color="#F6AD77"/>
<stop offset="0.859375" stop-color="#EC5E0F"/>
</linearGradient>
<linearGradient id="paint5_linear_400_10006" x1="8.8689" y1="35.3705" x2="16.0027" y2="35.3705" gradientUnits="userSpaceOnUse">
<stop stop-color="#FFD6B8"/>
<stop offset="0.447917" stop-color="#F6AD77"/>
<stop offset="0.859375" stop-color="#EC5E0F"/>
</linearGradient>
<linearGradient id="paint6_linear_400_10006" x1="15.1027" y1="39.9429" x2="18.7452" y2="39.9429" gradientUnits="userSpaceOnUse">
<stop stop-color="#FFD6B8"/>
<stop offset="0.447917" stop-color="#F6AD77"/>
<stop offset="0.859375" stop-color="#EC5E0F"/>
</linearGradient>
<linearGradient id="paint7_linear_400_10006" x1="13.0855" y1="35.6069" x2="18.7256" y2="35.6069" gradientUnits="userSpaceOnUse">
<stop stop-color="#FFD6B8"/>
<stop offset="0.447917" stop-color="#F6AD77"/>
<stop offset="0.859375" stop-color="#EC5E0F"/>
</linearGradient>
<linearGradient id="paint8_linear_400_10006" x1="13.131" y1="21.012" x2="10.7737" y2="14.5681" gradientUnits="userSpaceOnUse">
<stop stop-color="white" stop-opacity="0.3"/>
<stop offset="1" stop-color="white" stop-opacity="0"/>
</linearGradient>
<linearGradient id="paint9_linear_400_10006" x1="35.0292" y1="16.2666" x2="28.2542" y2="19.078" gradientUnits="userSpaceOnUse">
<stop stop-color="white"/>
<stop offset="1" stop-color="#EDEEFF"/>
</linearGradient>
<linearGradient id="paint10_linear_400_10006" x1="30.0418" y1="18.3356" x2="31.9766" y2="18.2602" gradientUnits="userSpaceOnUse">
<stop stop-color="#DFDEE8"/>
<stop offset="1" stop-color="white"/>
</linearGradient>
<linearGradient id="paint11_linear_400_10006" x1="28.8393" y1="20.3716" x2="27.8289" y2="14.84" gradientUnits="userSpaceOnUse">
<stop stop-color="#C2CCED"/>
<stop offset="0.0512" stop-color="#C4CEED"/>
<stop offset="1" stop-color="#E4EBF0"/>
</linearGradient>
</defs>

<path d="M15.9455 29.03L8.11217 31.8947L7.42254 32.1479L6.12508 32.6207C6.12508 32.6207 4.55571 32.1295 2.69043 29.6589C2.19581 29.003 1.94542 28.2985 1.85068 27.618C1.58184 25.7327 2.47019 24.0274 2.47019 24.0274C2.47019 24.0274 3.04724 23.8233 3.98112 23.4846C4.19151 23.4084 4.42098 23.326 4.66522 23.2406C6.50897 22.5662 9.25337 21.5599 11.8243 20.5684C11.8151 20.6022 11.4945 21.7548 11.6139 23.2436C11.7658 25.1776 12.6603 27.682 15.9455 29.03Z" fill="#8D99AF"/>
<path d="M29.3144 28.1932C21.2202 26.1338 15.9443 29.031 15.9443 29.031C12.6616 27.6811 11.7658 25.1773 11.6127 23.2422C11.4939 21.7533 11.8144 20.6019 11.8231 20.5687C11.8231 20.5675 11.8231 20.5675 11.8231 20.5675C14.1073 19.6878 16.2537 18.8211 17.5192 18.2137C20.6327 16.7199 22.5675 12.2638 23.1138 10.8555C23.0307 12.6947 23.3174 14.9563 23.9757 17.39C24.2574 18.4332 24.6069 19.5059 25.0252 20.5921C26.2101 23.6756 27.7426 26.3207 29.3144 28.1932Z" fill="url(#paint0_linear_400_10006)"/>
<path d="M34.6039 31.0171C33.1409 31.5783 31.2 30.4441 29.3144 28.1936C27.7425 26.3212 26.2101 23.676 25.024 20.5925C23.6312 16.973 22.9957 13.4826 23.1132 10.8559C23.2165 8.55684 23.8957 6.92105 25.1446 6.44034C27.8238 5.41068 31.7635 10.1527 34.3762 16.9405C36.9878 23.727 37.2812 29.9874 34.6039 31.0171Z" fill="url(#paint1_linear_400_10006)"/>
<path d="M11.8224 20.5696C11.8224 20.5684 11.8224 20.5684 11.8224 20.5684" stroke="url(#paint2_linear_400_10006)" stroke-miterlimit="10"/>
<path d="M11.8501 30.9778L8.86948 34.0649C8.33856 34.0858 7.90054 31.9718 7.90054 31.9718L11.7394 30.5684C11.764 30.6981 11.8015 30.8352 11.8501 30.9778Z" fill="url(#paint3_linear_400_10006)"/>
<path d="M13.9486 30.592L14.9273 32.679C14.9273 32.679 14.2512 33.4449 13.0854 33.2919C12.5281 32.4564 12.0741 31.6481 11.8495 30.978C11.8015 30.8354 11.7634 30.6983 11.7388 30.5686L12.5201 30.2834L14.8923 29.416L13.9486 30.592Z" fill="url(#paint4_linear_400_10006)"/>
<path d="M16.0027 37.0553C14.8732 37.6578 13.8471 39.1214 13.4343 39.7638C11.8981 37.4899 9.93071 34.0235 9.93071 34.0235C9.93071 34.0235 9.3998 34.0444 8.86888 34.0647L11.8495 30.9775C12.0741 31.6476 12.5281 32.456 13.0855 33.2914C13.9756 34.6296 15.1255 36.0355 16.0027 37.0553Z" fill="url(#paint5_linear_400_10006)"/>
<path d="M17.4804 41.3416C17.4804 41.3416 15.8981 41.668 15.1027 41.6994C15.1027 41.6994 16.1522 39.4212 17.3248 38.5354C17.793 38.1813 18.2783 38.0479 18.7262 38.3676C18.9262 39.2958 17.4804 41.3416 17.4804 41.3416Z" fill="url(#paint6_linear_400_10006)"/>
<path d="M8.11155 31.8953L7.42192 32.1486C3.04416 28.8604 3.62737 24.8333 3.98111 23.4853C4.19151 23.409 4.42098 23.3267 4.66521 23.2412L4.68982 23.2504C4.60738 23.4514 2.78455 28.1584 8.11155 31.8953Z" fill="white"/>
<path d="M17.3242 38.5359C16.1522 39.4217 15.1021 41.6999 15.1021 41.6999C14.8486 41.7097 14.2359 40.9389 13.5155 39.8828C13.4884 39.8441 13.4613 39.8041 13.4343 39.7641C13.8477 39.1218 14.8732 37.6581 16.0027 37.0557C16.215 37.3022 16.4124 37.5272 16.5847 37.7214C17.0338 38.2267 17.3242 38.5359 17.3242 38.5359Z" fill="#9CBBF2"/>
<path d="M18.5023 38.0268C18.2304 37.8535 17.8268 37.5418 17.3906 37.1551C17.2614 37.0396 17.1273 36.9172 16.995 36.7906C16.0802 35.9183 15.1537 34.8093 15.067 34.001C14.9274 32.6787 14.9274 32.6787 14.9274 32.6787C14.9274 32.6787 14.2513 33.4447 13.0854 33.2916C13.9756 34.6299 15.1248 36.0357 16.0027 37.0556C16.215 37.3021 16.4124 37.527 16.5847 37.7213C17.0338 38.2266 17.3242 38.5352 17.3242 38.5352C17.7923 38.1811 18.2777 38.0477 18.7256 38.3674C18.6954 38.2229 18.6259 38.1055 18.5023 38.0268Z" fill="url(#paint7_linear_400_10006)"/>
<path d="M23.9744 17.39C21.3291 18.7768 16.3737 21.0802 11.612 23.2422C7.81256 24.9683 4.1349 26.6047 1.85067 27.6159C1.58183 25.7324 2.47079 24.0272 2.47079 24.0272C2.47079 24.0272 7.40038 22.274 11.823 20.5687C11.823 20.5675 11.823 20.5675 11.823 20.5675C14.1073 19.6878 16.2537 18.8211 17.5192 18.2137C20.6327 16.7199 22.5675 12.2638 23.1138 10.8555C23.0301 12.6947 23.3168 14.9563 23.9744 17.39Z" fill="url(#paint8_linear_400_10006)"/>
<path d="M34.1708 29.6259C32.4833 30.2738 29.6466 27.1203 27.3698 22.2984C26.9926 21.5011 26.6309 20.6583 26.2932 19.7786C26.0028 19.0262 25.7426 18.2812 25.5143 17.5521C23.8613 12.2864 23.809 7.85974 25.5371 7.19584C27.5026 6.43911 31.029 10.8485 33.4129 17.0419C35.798 23.2365 36.1363 28.8704 34.1708 29.6259Z" fill="url(#paint9_linear_400_10006)"/>
<path d="M31.7875 20.3119C31.7426 20.3291 31.6946 20.3328 31.6435 20.323C31.2683 20.2584 30.725 19.5312 30.3479 18.5513C29.9536 17.5241 29.8798 16.5775 30.1591 16.3303C30.1824 16.3082 30.207 16.2928 30.2353 16.2818C30.6026 16.1416 31.2461 16.9297 31.6749 18.0417C32.1025 19.155 32.1529 20.1717 31.7875 20.3119Z" fill="url(#paint10_linear_400_10006)"/>
<path d="M31.6429 20.3238L27.3697 22.2977C26.9926 21.5004 26.6309 20.6576 26.2931 19.778C26.0028 19.0255 25.7425 18.2805 25.5143 17.5514L30.1572 16.3281L30.159 16.3312C29.8797 16.5789 29.9529 17.525 30.3479 18.5522C30.725 19.5321 31.2676 20.2587 31.6429 20.3238Z" fill="url(#paint11_linear_400_10006)"/>
<path d="M31.7029 19.8682C31.9433 19.7758 31.8534 18.9611 31.5021 18.0484C31.1508 17.1358 30.6712 16.4708 30.4308 16.5632C30.1904 16.6556 30.2803 17.4703 30.6316 18.383C30.9829 19.2956 31.4625 19.9606 31.7029 19.8682Z" fill="#8D99AF"/>
<path d="M44.38 23.1075C44.3702 23.1075 44.3597 23.1069 44.3492 23.105L41.2191 22.6385C41.1065 22.6219 41.0284 22.5167 41.0456 22.4042C41.0622 22.2918 41.1662 22.2137 41.28 22.2309L44.4101 22.6975C44.5227 22.7141 44.6009 22.8192 44.5836 22.9317C44.5682 23.0337 44.4803 23.1075 44.38 23.1075Z" fill="#E1E1E7"/>
<path d="M38.8395 6.68166C38.834 6.69026 38.8278 6.69825 38.8211 6.70625L36.7491 9.0963C36.6746 9.18236 36.5442 9.19158 36.4581 9.1172C36.372 9.04281 36.3615 8.91311 36.4372 8.82643L38.5092 6.43638C38.5836 6.35032 38.714 6.3411 38.8001 6.41548C38.8789 6.4831 38.8937 6.59682 38.8395 6.68166Z" fill="#E1E1E7"/>
<path d="M41.635 13.9519C41.5513 13.9519 41.4726 13.9009 41.4418 13.8179C41.4018 13.7116 41.4559 13.5923 41.5624 13.5524L45.9211 11.9184C46.0281 11.8785 46.1468 11.9326 46.1868 12.0389C46.2268 12.1453 46.1727 12.2645 46.0662 12.3045L41.7076 13.9384C41.6836 13.9483 41.659 13.9519 41.635 13.9519Z" fill="#E1E1E7"/>
</svg>
