<svg width="19" height="21" viewBox="0 0 19 21" fill="none" xmlns="http://www.w3.org/2000/svg">
<path d="M18.5771 17.1657C16.3454 16.1578 16.2605 11.8319 16.2589 11.7227V8.82052C16.2589 6.0273 14.552 3.62543 12.1265 2.60274C12.1213 1.16667 10.9517 0 9.51457 0C8.0774 0 6.90782 1.16674 6.90257 2.60267C4.47719 3.62537 2.77031 6.02724 2.77031 8.82046V11.7227C2.76874 11.8318 2.68378 16.1578 0.452034 17.1656C0.197802 17.2804 0.0580762 17.5572 0.116856 17.8299C0.175567 18.1027 0.416759 18.2975 0.695766 18.2975H6.35344C6.46942 18.9355 6.77111 19.5291 7.23253 20.0098C7.84537 20.6484 8.65583 21 9.51447 21C10.3732 21 11.1836 20.6484 11.7964 20.0098C12.2579 19.529 12.5596 18.9354 12.6755 18.2975H18.3332C18.6122 18.2975 18.8533 18.1027 18.9121 17.8299C18.971 17.5572 18.8313 17.2805 18.5771 17.1657ZM15.6373 15.0933C15.8719 15.8045 16.2041 16.5188 16.6752 17.1132H2.35392C2.82491 16.5189 3.1571 15.8046 3.39171 15.0933H15.6373ZM9.51457 1.18434C10.1646 1.18434 10.7143 1.62116 10.8863 2.21657C10.4432 2.12468 9.98443 2.07623 9.51457 2.07623C9.04471 2.07623 8.58594 2.12465 8.14287 2.21657C8.31489 1.62119 8.86453 1.18434 9.51457 1.18434ZM3.95466 11.7263V8.82042C3.95466 5.75471 6.4488 3.26058 9.51457 3.26058C12.5803 3.26058 15.0745 5.75471 15.0745 8.82042V11.7311C15.0753 11.8202 15.0891 12.7564 15.3251 13.9089H3.70393C3.94001 12.7553 3.95394 11.8175 3.95466 11.7263ZM9.51457 19.8158C8.61071 19.8158 7.82187 19.1641 7.56867 18.2975H11.4604C11.2072 19.1641 10.4185 19.8158 9.51457 19.8158Z" fill="#0AAB39"/>
<path d="M9.51514 4.09131C6.96733 4.09131 4.89453 6.16404 4.89453 8.71181C4.89453 9.03886 5.15968 9.304 5.48672 9.304C5.81377 9.304 6.07891 9.03886 6.07891 8.71181C6.07891 6.8171 7.62039 5.27565 9.51517 5.27565C9.84222 5.27565 10.1074 5.01051 10.1074 4.68346C10.1073 4.35638 9.84218 4.09131 9.51514 4.09131Z" fill="#0AAB39"/>
</svg>
