<svg width="24" height="24" viewBox="0 0 24 24" fill="none" xmlns="http://www.w3.org/2000/svg">
<path d="M10.4157 14.906C11.5088 14.411 12.3994 13.5565 12.9391 12.4847C13.4788 11.413 13.6351 10.1887 13.3819 9.01571C13.1287 7.84276 12.4813 6.79193 11.5476 6.03824C10.6138 5.28454 9.45005 4.87347 8.25008 4.87347C7.05011 4.87347 5.88634 5.28454 4.9526 6.03824C4.01885 6.79193 3.37147 7.84276 3.11828 9.01571C2.86508 10.1887 3.02135 11.413 3.56105 12.4847C4.10076 13.5565 4.99133 14.411 6.08445 14.906C4.10409 15.4194 2.37004 16.6187 1.1907 18.2904C1.13538 18.373 1.11424 18.4739 1.13172 18.5718C1.1492 18.6697 1.20395 18.757 1.28445 18.8154C1.34763 18.8594 1.42309 18.8824 1.50008 18.881C1.56041 18.8799 1.61969 18.865 1.67333 18.8373C1.72697 18.8097 1.77355 18.7701 1.80945 18.7216C2.53621 17.6887 3.50074 16.8457 4.62168 16.2638C5.74263 15.6818 6.98709 15.3781 8.25008 15.3781C9.51307 15.3781 10.7575 15.6818 11.8785 16.2638C12.9994 16.8457 13.964 17.6887 14.6907 18.7216C14.719 18.7622 14.7551 18.7969 14.7968 18.8236C14.8385 18.8503 14.885 18.8685 14.9338 18.8772C14.9825 18.8859 15.0325 18.8849 15.0809 18.8743C15.1293 18.8637 15.1751 18.8437 15.2157 18.8154C15.2563 18.7871 15.291 18.751 15.3177 18.7093C15.3444 18.6676 15.3626 18.621 15.3713 18.5723C15.38 18.5235 15.379 18.4735 15.3684 18.4252C15.3578 18.3768 15.3378 18.331 15.3095 18.2904C14.1301 16.6187 12.3961 15.4194 10.4157 14.906ZM3.75008 10.1247C3.75008 9.23473 4.014 8.3647 4.50847 7.62468C5.00293 6.88466 5.70574 6.30788 6.528 5.96729C7.35027 5.62669 8.25507 5.53758 9.12799 5.71121C10.0009 5.88484 10.8027 6.31343 11.4321 6.94276C12.0614 7.5721 12.49 8.37392 12.6636 9.24684C12.8372 10.1198 12.7481 11.0246 12.4075 11.8468C12.0669 12.6691 11.4902 13.3719 10.7501 13.8664C10.0101 14.3608 9.1401 14.6247 8.25008 14.6247C7.05661 14.6247 5.91201 14.1506 5.0681 13.3067C4.22419 12.4628 3.75008 11.3182 3.75008 10.1247ZM22.8563 18.8154C22.7752 18.8702 22.6758 18.891 22.5794 18.8735C22.4831 18.856 22.3974 18.8015 22.3407 18.7216C21.6117 17.6885 20.6455 16.8453 19.5232 16.2629C18.4008 15.6805 17.1551 15.376 15.8907 15.3747C15.7912 15.3747 15.6959 15.3352 15.6255 15.2649C15.5552 15.1946 15.5157 15.0992 15.5157 14.9997C15.5157 14.9003 15.5552 14.8049 15.6255 14.7346C15.6959 14.6643 15.7912 14.6247 15.8907 14.6247C17.0842 14.6247 18.2288 14.1506 19.0727 13.3067C19.9166 12.4628 20.3907 11.3182 20.3907 10.1247C20.3907 8.93127 19.9166 7.78668 19.0727 6.94276C18.2288 6.09885 17.0842 5.62474 15.8907 5.62474C15.4786 5.62421 15.0684 5.681 14.672 5.79349C14.5762 5.81936 14.4742 5.80626 14.3881 5.75707C14.302 5.70788 14.2389 5.62659 14.2126 5.53099C14.1864 5.43653 14.1982 5.33556 14.2455 5.24969C14.2928 5.16383 14.3718 5.09991 14.4657 5.07162C15.7413 4.70671 17.1077 4.8383 18.2902 5.43991C19.4727 6.04152 20.3836 7.06854 20.8397 8.31443C21.2958 9.56033 21.2632 10.9327 20.7486 12.1556C20.234 13.3785 19.2754 14.3611 18.0657 14.906C20.0423 15.4222 21.7725 16.621 22.9501 18.2904C22.9787 18.3309 22.9989 18.3767 23.0097 18.4251C23.0205 18.4735 23.0215 18.5236 23.0128 18.5724C23.0041 18.6213 22.9858 18.6679 22.9589 18.7096C22.932 18.7513 22.8972 18.7872 22.8563 18.8154Z" fill="white"/>
</svg>
