<svg width="20" height="22" viewBox="0 0 20 22" fill="none" xmlns="http://www.w3.org/2000/svg">
<path d="M2.59042 9.43713C2.52049 9.5084 2.43704 9.56502 2.34496 9.60367C2.25289 9.64232 2.15403 9.66222 2.05417 9.66222C1.95432 9.66222 1.85546 9.64232 1.76339 9.60367C1.67131 9.56502 1.58786 9.5084 1.51792 9.43713C1.37557 9.2923 1.2958 9.09735 1.2958 8.89428C1.2958 8.6912 1.37557 8.49625 1.51792 8.35143L8.15202 1.65023C9.64802 0.488626 11.1528 -0.0690745 12.651 0.00682554C14.5386 0.103626 16.0082 0.823026 17.2556 2.00333C18.5272 3.20673 19.35 4.92383 19.35 7.00503C19.35 8.60223 18.8858 10.008 17.9057 11.2554L8.55242 20.8914C7.60642 21.6669 6.55482 22.042 5.42842 21.9969C3.99842 21.9375 2.93472 21.4755 2.14382 20.6934C1.21762 19.7793 0.650024 18.6562 0.650024 17.1459C0.650024 15.9447 1.06472 14.8359 1.92052 13.7953L10.1529 5.39023C10.8129 4.68623 11.4586 4.26823 12.1186 4.16703C12.5591 4.09764 13.0099 4.13704 13.4317 4.2818C13.8535 4.42655 14.2335 4.67227 14.5386 4.99753C15.1238 5.61683 15.3746 6.38903 15.2866 7.26793C15.2261 7.86743 14.9808 8.41963 14.5298 8.94873L6.96182 16.7015C6.89234 16.7731 6.80931 16.8301 6.71758 16.8692C6.62584 16.9083 6.52723 16.9288 6.42751 16.9294C6.32778 16.93 6.22893 16.9107 6.13672 16.8728C6.04451 16.8348 5.96078 16.7788 5.89042 16.7081C5.74719 16.5642 5.66623 16.3697 5.665 16.1666C5.66376 15.9636 5.74235 15.7681 5.88382 15.6224L13.4155 7.90923C13.6355 7.65073 13.751 7.39003 13.7785 7.11283C13.8225 6.67283 13.7169 6.34833 13.443 6.05903C13.3047 5.91086 13.1319 5.79919 12.94 5.73394C12.7481 5.66869 12.543 5.65188 12.343 5.68503C12.0757 5.72573 11.7017 5.96883 11.2408 6.45943L3.04252 14.8271C2.45182 15.5476 2.16582 16.3121 2.16582 17.147C2.16582 18.1964 2.54532 18.9477 3.20202 19.5956C3.72452 20.1126 4.43402 20.4206 5.49002 20.4646C6.23802 20.4943 6.93102 20.2468 7.53382 19.7584L16.7705 10.2434C17.48 9.33373 17.8342 8.26343 17.8342 7.00613C17.8342 5.37593 17.1995 4.05373 16.2194 3.12533C15.2184 2.17713 14.0744 1.61833 12.5751 1.54133C11.4663 1.48413 10.3036 1.91533 9.14642 2.80193L2.59042 9.43823V9.43713Z" fill="url(#paint0_linear_301_8086)"/>
<defs>
<linearGradient id="paint0_linear_301_8086" x1="1.97002" y1="-6.09926e-07" x2="31.6247" y2="13.9031" gradientUnits="userSpaceOnUse">
<stop stop-color="#3A3086"/>
<stop offset="1" stop-color="#1756FD"/>
</linearGradient>
</defs>
</svg>
