<svg width="24" height="24" viewBox="0 0 24 24" fill="none" xmlns="http://www.w3.org/2000/svg">
<path d="M19.5 5.4375H16.8L15.4688 3.44063C15.4176 3.36298 15.348 3.29922 15.2662 3.25505C15.1844 3.21088 15.093 3.18767 15 3.1875H9C8.90703 3.18767 8.81556 3.21088 8.73376 3.25505C8.65196 3.29922 8.58238 3.36298 8.53125 3.44063L7.2 5.4375H4.5C3.95375 5.43997 3.43058 5.65806 3.04432 6.04432C2.65806 6.43058 2.43997 6.95375 2.4375 7.5V18C2.43997 18.5462 2.65806 19.0694 3.04432 19.4557C3.43058 19.8419 3.95375 20.06 4.5 20.0625H19.5C20.0462 20.06 20.5694 19.8419 20.9557 19.4557C21.3419 19.0694 21.56 18.5462 21.5625 18V7.5C21.56 6.95375 21.3419 6.43058 20.9557 6.04432C20.5694 5.65806 20.0462 5.43997 19.5 5.4375ZM20.4375 18C20.4375 18.2486 20.3387 18.4871 20.1629 18.6629C19.9871 18.8387 19.7486 18.9375 19.5 18.9375H4.5C4.25136 18.9375 4.0129 18.8387 3.83709 18.6629C3.66127 18.4871 3.5625 18.2486 3.5625 18V7.5C3.5625 7.25136 3.66127 7.0129 3.83709 6.83709C4.0129 6.66127 4.25136 6.5625 4.5 6.5625H7.5C7.59297 6.56233 7.68444 6.53912 7.76624 6.49495C7.84804 6.45078 7.91762 6.38702 7.96875 6.30938L9.3 4.3125H14.7L16.0312 6.30938C16.0824 6.38702 16.152 6.45078 16.2338 6.49495C16.3156 6.53912 16.407 6.56233 16.5 6.5625H19.5C19.7486 6.5625 19.9871 6.66127 20.1629 6.83709C20.3387 7.0129 20.4375 7.25136 20.4375 7.5V18ZM12 8.4375C11.2212 8.4375 10.46 8.66843 9.81244 9.10109C9.16492 9.53375 8.66024 10.1487 8.36222 10.8682C8.0642 11.5877 7.98623 12.3794 8.13816 13.1432C8.29009 13.907 8.6651 14.6086 9.21577 15.1592C9.76644 15.7099 10.468 16.0849 11.2318 16.2368C11.9956 16.3888 12.7873 16.3108 13.5068 16.0128C14.2263 15.7148 14.8413 15.2101 15.2739 14.5626C15.7066 13.915 15.9375 13.1538 15.9375 12.375C15.9375 11.3307 15.5227 10.3292 14.7842 9.59077C14.0458 8.85234 13.0443 8.4375 12 8.4375ZM12 15.1875C11.4437 15.1875 10.9 15.0225 10.4375 14.7135C9.97495 14.4045 9.61446 13.9652 9.40159 13.4513C9.18872 12.9374 9.13302 12.3719 9.24154 11.8263C9.35006 11.2807 9.61793 10.7796 10.0113 10.3863C10.4046 9.99293 10.9057 9.72506 11.4513 9.61654C11.9969 9.50802 12.5624 9.56372 13.0763 9.77659C13.5902 9.98946 14.0295 10.3499 14.3385 10.8125C14.6475 11.275 14.8125 11.8187 14.8125 12.375C14.81 13.1202 14.5129 13.8341 13.986 14.361C13.4591 14.8879 12.7452 15.185 12 15.1875Z" fill="url(#paint0_linear_301_8094)"/>
<defs>
<linearGradient id="paint0_linear_301_8094" x1="3.7875" y1="3.1875" x2="30.3876" y2="19.8159" gradientUnits="userSpaceOnUse">
<stop stop-color="#3A3086"/>
<stop offset="1" stop-color="#1756FD"/>
</linearGradient>
</defs>
</svg>
