<svg width="24" height="24" viewBox="0 0 24 24" fill="none" xmlns="http://www.w3.org/2000/svg">
<path d="M21.4219 20.0629C20.6698 18.7669 19.6592 17.6395 18.4528 16.7508C17.2464 15.8622 15.8701 15.2312 14.4094 14.8973C15.7775 14.3388 16.9091 13.3224 17.6106 12.0219C18.3122 10.7213 18.5402 9.21749 18.2557 7.76745C17.9711 6.31741 17.1916 5.01127 16.0506 4.07236C14.9095 3.13346 13.4777 2.62012 12 2.62012C10.5223 2.62012 9.09049 3.13346 7.94942 4.07236C6.80835 5.01127 6.02888 6.31741 5.74432 7.76745C5.45975 9.21749 5.68775 10.7213 6.38934 12.0219C7.09093 13.3224 8.22252 14.3388 9.59061 14.8973C8.12992 15.2312 6.75357 15.8622 5.54717 16.7508C4.34077 17.6395 3.33013 18.7669 2.57811 20.0629C2.52839 20.1499 2.51527 20.2531 2.54164 20.3498C2.56801 20.4465 2.63172 20.5288 2.71874 20.5785C2.80576 20.6283 2.90898 20.6414 3.00568 20.615C3.10238 20.5886 3.18464 20.5249 3.23436 20.4379C4.12149 18.8977 5.39879 17.6184 6.93764 16.7289C8.47649 15.8394 10.2225 15.371 12 15.371C13.7774 15.371 15.5235 15.8394 17.0623 16.7289C18.6012 17.6184 19.8785 18.8977 20.7656 20.4379C20.7995 20.4948 20.8476 20.5419 20.905 20.5748C20.9625 20.6076 21.0275 20.6251 21.0937 20.6254C21.159 20.6242 21.2231 20.6081 21.2812 20.5785C21.367 20.5276 21.4296 20.4454 21.4558 20.3492C21.4821 20.2529 21.4699 20.1503 21.4219 20.0629V20.0629ZM6.37499 9.00041C6.37499 7.88789 6.70489 6.80035 7.32297 5.87532C7.94106 4.9503 8.81956 4.22933 9.84739 3.80358C10.8752 3.37784 12.0062 3.26645 13.0974 3.48349C14.1885 3.70053 15.1908 4.23626 15.9775 5.02293C16.7641 5.8096 17.2999 6.81188 17.5169 7.90302C17.7339 8.99417 17.6226 10.1252 17.1968 11.153C16.7711 12.1808 16.0501 13.0593 15.1251 13.6774C14.2 14.2955 13.1125 14.6254 12 14.6254C10.5081 14.6254 9.07741 14.0328 8.02251 12.9779C6.96762 11.923 6.37499 10.4922 6.37499 9.00041Z" fill="white"/>
</svg>
