<svg width="24" height="24" viewBox="0 0 24 24" fill="none" xmlns="http://www.w3.org/2000/svg">
<path d="M8.625 6C8.625 5.90054 8.66451 5.80516 8.73483 5.73484C8.80516 5.66451 8.90054 5.625 9 5.625H20.25C20.3495 5.625 20.4448 5.66451 20.5152 5.73484C20.5855 5.80516 20.625 5.90054 20.625 6C20.625 6.09946 20.5855 6.19484 20.5152 6.26517C20.4448 6.33549 20.3495 6.375 20.25 6.375H9C8.90054 6.375 8.80516 6.33549 8.73483 6.26517C8.66451 6.19484 8.625 6.09946 8.625 6ZM20.25 11.625H9C8.90054 11.625 8.80516 11.6645 8.73483 11.7348C8.66451 11.8052 8.625 11.9005 8.625 12C8.625 12.0995 8.66451 12.1948 8.73483 12.2652C8.80516 12.3355 8.90054 12.375 9 12.375H20.25C20.3495 12.375 20.4448 12.3355 20.5152 12.2652C20.5855 12.1948 20.625 12.0995 20.625 12C20.625 11.9005 20.5855 11.8052 20.5152 11.7348C20.4448 11.6645 20.3495 11.625 20.25 11.625ZM20.25 17.625H9C8.90054 17.625 8.80516 17.6645 8.73483 17.7348C8.66451 17.8052 8.625 17.9005 8.625 18C8.625 18.0995 8.66451 18.1948 8.73483 18.2652C8.80516 18.3355 8.90054 18.375 9 18.375H20.25C20.3495 18.375 20.4448 18.3355 20.5152 18.2652C20.5855 18.1948 20.625 18.0995 20.625 18C20.625 17.9005 20.5855 17.8052 20.5152 17.7348C20.4448 17.6645 20.3495 17.625 20.25 17.625ZM5.25 5.625H3.75C3.65054 5.625 3.55516 5.66451 3.48484 5.73484C3.41451 5.80516 3.375 5.90054 3.375 6C3.375 6.09946 3.41451 6.19484 3.48484 6.26517C3.55516 6.33549 3.65054 6.375 3.75 6.375H5.25C5.34946 6.375 5.44484 6.33549 5.51516 6.26517C5.58549 6.19484 5.625 6.09946 5.625 6C5.625 5.90054 5.58549 5.80516 5.51516 5.73484C5.44484 5.66451 5.34946 5.625 5.25 5.625ZM5.25 11.625H3.75C3.65054 11.625 3.55516 11.6645 3.48484 11.7348C3.41451 11.8052 3.375 11.9005 3.375 12C3.375 12.0995 3.41451 12.1948 3.48484 12.2652C3.55516 12.3355 3.65054 12.375 3.75 12.375H5.25C5.34946 12.375 5.44484 12.3355 5.51516 12.2652C5.58549 12.1948 5.625 12.0995 5.625 12C5.625 11.9005 5.58549 11.8052 5.51516 11.7348C5.44484 11.6645 5.34946 11.625 5.25 11.625ZM5.25 17.625H3.75C3.65054 17.625 3.55516 17.6645 3.48484 17.7348C3.41451 17.8052 3.375 17.9005 3.375 18C3.375 18.0995 3.41451 18.1948 3.48484 18.2652C3.55516 18.3355 3.65054 18.375 3.75 18.375H5.25C5.34946 18.375 5.44484 18.3355 5.51516 18.2652C5.58549 18.1948 5.625 18.0995 5.625 18C5.625 17.9005 5.58549 17.8052 5.51516 17.7348C5.44484 17.6645 5.34946 17.625 5.25 17.625Z" fill="white"/>
</svg>
