<svg width="18" height="20" viewBox="0 0 18 20" fill="none" xmlns="http://www.w3.org/2000/svg">
<path fill-rule="evenodd" clip-rule="evenodd" d="M1.79961 0.399902C2.46235 0.399902 2.99961 0.937161 2.99961 1.5999V4.12141C4.52372 2.56577 6.64823 1.5999 8.99961 1.5999C12.6589 1.5999 15.7688 3.93909 16.9213 7.20001C17.1422 7.82487 16.8147 8.51045 16.1898 8.73131C15.565 8.95217 14.8794 8.62466 14.6585 7.9998C13.8343 5.66779 11.6102 3.9999 8.99961 3.9999C7.03769 3.9999 5.29405 4.94193 4.19883 6.3999H7.79961C8.46235 6.3999 8.99961 6.93716 8.99961 7.5999C8.99961 8.26264 8.46235 8.7999 7.79961 8.7999H1.79961C1.13687 8.7999 0.599609 8.26264 0.599609 7.5999V1.5999C0.599609 0.937161 1.13687 0.399902 1.79961 0.399902ZM1.80941 11.2685C2.43427 11.0476 3.11985 11.3751 3.34071 12C4.16496 14.332 6.38905 15.9999 8.99961 15.9999C10.9615 15.9999 12.7052 15.0579 13.8004 13.5999L10.1996 13.5999C9.53687 13.5999 8.99961 13.0626 8.99961 12.3999C8.99961 11.7372 9.53687 11.1999 10.1996 11.1999H16.1996C16.5179 11.1999 16.8231 11.3263 17.0481 11.5514C17.2732 11.7764 17.3996 12.0816 17.3996 12.3999V18.3999C17.3996 19.0626 16.8624 19.5999 16.1996 19.5999C15.5369 19.5999 14.9996 19.0626 14.9996 18.3999V15.8784C13.4755 17.434 11.351 18.3999 8.99961 18.3999C5.34032 18.3999 2.23047 16.0607 1.0779 12.7998C0.857039 12.1749 1.18455 11.4894 1.80941 11.2685Z" fill="#0AAB39"/>
</svg>
