<svg width="24" height="24" viewBox="0 0 24 24" fill="none" xmlns="http://www.w3.org/2000/svg">
<path d="M21 4.875H15C14.3803 4.87493 13.7726 5.04548 13.2434 5.36795C12.7142 5.69042 12.284 6.15236 12 6.70312C11.716 6.15236 11.2858 5.69042 10.7566 5.36795C10.2274 5.04548 9.61969 4.87493 9 4.875H3C2.70163 4.875 2.41548 4.99353 2.2045 5.2045C1.99353 5.41548 1.875 5.70163 1.875 6V18C1.875 18.2984 1.99353 18.5845 2.2045 18.7955C2.41548 19.0065 2.70163 19.125 3 19.125H9C9.69543 19.1275 10.3617 19.4048 10.8534 19.8966C11.3452 20.3883 11.6225 21.0546 11.625 21.75C11.625 21.8495 11.6645 21.9448 11.7348 22.0152C11.8052 22.0855 11.9005 22.125 12 22.125C12.0995 22.125 12.1948 22.0855 12.2652 22.0152C12.3355 21.9448 12.375 21.8495 12.375 21.75C12.3775 21.0546 12.6548 20.3883 13.1466 19.8966C13.6383 19.4048 14.3046 19.1275 15 19.125H21C21.2984 19.125 21.5845 19.0065 21.7955 18.7955C22.0065 18.5845 22.125 18.2984 22.125 18V6C22.125 5.70163 22.0065 5.41548 21.7955 5.2045C21.5845 4.99353 21.2984 4.875 21 4.875V4.875ZM9 18.375H3C2.90054 18.375 2.80516 18.3355 2.73484 18.2652C2.66451 18.1948 2.625 18.0995 2.625 18V6C2.625 5.90054 2.66451 5.80516 2.73484 5.73484C2.80516 5.66451 2.90054 5.625 3 5.625H9C9.69543 5.62747 10.3617 5.90483 10.8534 6.39657C11.3452 6.88832 11.6225 7.55457 11.625 8.25V19.6312C11.3098 19.2383 10.9102 18.9213 10.4557 18.7038C10.0013 18.4864 9.50377 18.374 9 18.375V18.375ZM21.375 18C21.375 18.0995 21.3355 18.1948 21.2652 18.2652C21.1948 18.3355 21.0995 18.375 21 18.375H15C14.4962 18.374 13.9987 18.4864 13.5443 18.7038C13.0898 18.9213 12.6902 19.2383 12.375 19.6312V8.25C12.3775 7.55457 12.6548 6.88832 13.1466 6.39657C13.6383 5.90483 14.3046 5.62747 15 5.625H21C21.0995 5.625 21.1948 5.66451 21.2652 5.73484C21.3355 5.80516 21.375 5.90054 21.375 6V18Z" fill="white"/>
</svg>
