<svg width="36" height="36" viewBox="0 0 36 36" fill="none" xmlns="http://www.w3.org/2000/svg">
<path d="M18.5202 8.10945C15.1038 9.19935 9.21061 9.4158 9.21061 9.4158C9.21061 9.4158 11.403 8.57475 18.5202 8.10945Z" fill="#EC5E0F"/>
<path d="M13.3249 8.37405L13.4757 9.75915L14.9071 9.5787L14.7105 8.10945L13.3249 8.37405Z" fill="url(#paint0_linear_4_1510)"/>
<path d="M13.8195 3.3867C12.9069 3.72375 12.4749 3.4848 12.4749 3.4848C12.4749 3.4848 12.4353 2.79225 13.068 2.7333C13.7025 2.67345 13.8195 3.3867 13.8195 3.3867Z" fill="url(#paint1_linear_4_1510)"/>
<path d="M13.8654 4.29615L12.5955 4.527L12.4753 3.4848C12.4753 3.4848 12.9073 3.72375 13.8199 3.3867L13.8654 4.29615Z" fill="url(#paint2_linear_4_1510)"/>
<path d="M23.7618 20.7531C23.7618 23.9621 22.1832 26.7872 19.7887 28.4351C18.5076 29.3175 16.9924 29.8634 15.3603 29.9471C15.21 29.9552 15.0597 29.9596 14.908 29.9596C14.0035 29.9596 13.1301 29.8188 12.3079 29.5565C8.6859 28.4018 6.0525 24.8971 6.0525 20.7531C6.0525 16.5775 8.7255 13.0522 12.3903 11.9245C13.189 11.6779 14.0337 11.5465 14.908 11.5465C15.0597 11.5465 15.21 11.5515 15.3603 11.5591C16.9924 11.6428 18.5076 12.1887 19.7887 13.0711C22.1832 14.719 23.7618 17.5441 23.7618 20.7531Z" fill="url(#paint3_linear_4_1510)"/>
<path d="M19.7883 10.4274C18.9864 10.0399 18.131 9.7551 17.2355 9.58905C16.6266 9.4752 16.0002 9.4149 15.3599 9.4149C9.55845 9.4149 4.83075 14.296 4.6413 20.3913C4.63635 20.5177 4.635 20.646 4.635 20.7742C4.635 21.1743 4.6539 21.5712 4.6935 21.9604C4.7313 22.351 4.78845 22.7353 4.8645 23.112C5.0085 23.8504 5.2236 24.5642 5.4972 25.2423C5.6934 25.7279 5.9211 26.1945 6.1758 26.6423C6.3828 27.0045 6.6078 27.3541 6.85125 27.6876C8.811 30.3907 11.8935 32.1336 15.3603 32.1336C16.0007 32.1336 16.6271 32.0733 17.2359 31.9594C18.131 31.7934 18.9869 31.5085 19.7888 31.1211C23.5017 29.3359 26.0829 25.3741 26.0829 20.7747C26.0829 16.1752 23.5017 12.2134 19.7883 10.4274ZM7.18875 20.9394C7.18875 21.7206 7.2819 22.4798 7.45785 23.2061C7.7013 24.2168 8.10495 25.1658 8.63955 26.023C8.6616 26.0595 8.68365 26.0942 8.7075 26.1288C8.9244 26.469 9.1629 26.793 9.42255 27.1017C10.3433 28.2074 11.507 29.1024 12.834 29.705C12.6554 29.6622 12.4812 29.6118 12.3075 29.5565C10.922 29.1137 9.6804 28.3293 8.6778 27.2948C8.3835 26.9928 8.1099 26.6683 7.86015 26.3268C7.73685 26.1607 7.61985 25.9897 7.50915 25.8142C6.99975 25.011 6.6078 24.1187 6.3594 23.1665C6.16005 22.3961 6.0525 21.5878 6.0525 20.7526C6.0525 16.5771 8.7255 13.0518 12.3903 11.9241C13.1225 11.6977 13.8947 11.5681 14.693 11.551C10.3982 12.5154 7.18875 16.3525 7.18875 20.9394Z" fill="#FFD6B8"/>
<path d="M12.8344 29.7054C12.6558 29.6626 12.4816 29.6122 12.3079 29.5569C8.6859 28.4022 6.0525 24.8976 6.0525 20.7535C6.0525 16.578 8.7255 13.0527 12.3903 11.925C13.1225 11.6986 13.8942 11.569 14.6929 11.5519C10.3986 12.5167 7.18965 16.3539 7.18965 20.9407C7.18965 24.8355 9.5049 28.1916 12.8344 29.7054Z" fill="url(#paint4_linear_4_1510)"/>
<path d="M29.8363 20.7747C29.8363 24.3967 28.2357 27.6233 25.7413 29.7032C24.5614 30.6869 23.1822 31.4145 21.6783 31.8051C21.0676 31.9648 20.4349 32.0692 19.7883 32.112C19.5637 32.1264 19.3392 32.134 19.1115 32.134H15.3594C15.9997 32.134 16.6261 32.0737 17.235 31.9599C18.13 31.7938 18.9859 31.509 19.7878 31.1215C20.2086 30.919 20.6149 30.6895 21.0042 30.4335C22.1746 29.6649 23.1948 28.6637 24.0079 27.4901C25.3129 25.6095 26.0829 23.2875 26.0829 20.7742C26.0829 16.1748 23.5017 12.213 19.7878 10.4274C18.9859 10.0399 18.1305 9.7551 17.235 9.58905C16.6261 9.4752 15.9997 9.4149 15.3594 9.4149L18.5193 9.43245L19.7878 9.43875C25.3966 9.80775 29.8363 14.7424 29.8363 20.7747Z" fill="url(#paint5_linear_4_1510)"/>
<path d="M28.8373 20.7751C28.8373 26.8074 24.3976 31.7421 18.7893 32.1124C18.5647 32.1268 18.3402 32.1345 18.1125 32.1345H17.5572C17.7849 32.1345 18.0094 32.1264 18.2326 32.1124C23.8428 31.7425 28.2825 26.8078 28.2825 20.7751C28.2825 14.7424 23.8428 9.8082 18.2326 9.43965L16.9641 9.43335L14.6439 9.42075C14.5507 9.4176 14.4558 9.4158 14.3608 9.4158L17.5207 9.43335L18.7893 9.43965C24.3976 9.8082 28.8373 14.7429 28.8373 20.7751Z" fill="#F7AD77"/>
<path d="M19.7887 9.43965L18.5202 9.43335C18.7164 9.4221 18.9139 9.4158 19.1119 9.4158C19.3396 9.4158 19.5642 9.4239 19.7887 9.43965Z" fill="url(#paint6_linear_4_1510)"/>
<path d="M19.7888 32.1124V32.1345H19.112C19.3397 32.1345 19.5642 32.1268 19.7888 32.1124Z" fill="url(#paint7_linear_4_1510)"/>
<path d="M18.0351 32.1345L18.414 33.4269L18.986 34.5712C18.986 34.5712 18.7097 35.595 19.4504 35.595C20.1911 35.595 20.4314 35.0532 20.07 34.5411V33.0052L19.7888 31.8006L18.0351 32.1345Z" fill="url(#paint8_linear_4_1510)"/>
<path d="M7.4232 28.4148L8.5347 29.5371L7.2126 30.4457C7.2126 30.4457 7.002 31.1985 6.219 30.6563C5.436 30.1145 6.06825 29.6347 6.4296 29.6334L7.4232 28.4148Z" fill="url(#paint9_linear_4_1510)"/>
<path d="M20.9997 10.4485L21.8534 8.7246L22.1967 8.89649L21.4169 10.4485H20.9997Z" fill="url(#paint10_linear_4_1510)"/>
<path d="M20.6811 8.217L22.8636 9.1881C22.8636 9.1881 23.7623 8.95275 23.7623 8.10945L21.2045 7.1136C21.2045 7.1136 20.7923 7.19865 20.6811 7.59555C20.57 7.992 20.6811 8.217 20.6811 8.217Z" fill="url(#paint11_linear_4_1510)"/>
<path d="M23.7618 20.7531C23.7618 23.962 22.1832 26.7872 19.7888 28.4351C18.5076 29.3175 16.9925 29.8633 15.3603 29.947C15.21 29.9551 15.0597 29.9596 14.908 29.9596C14.193 29.9596 13.4986 29.8728 12.8344 29.7049C9.5049 28.1911 7.18965 24.835 7.18965 20.9394C7.18965 16.3525 10.3986 12.5154 14.6929 11.5506C14.764 11.5475 14.8369 11.5456 14.908 11.5456C15.0597 11.5456 15.21 11.5506 15.3603 11.5582C16.9925 11.6419 18.5076 12.1878 19.7888 13.0702C22.1832 14.719 23.7618 17.5442 23.7618 20.7531Z" fill="url(#paint12_linear_4_1510)"/>
<path d="M30.5109 8.76285L30.2675 9.18495C29.7869 9.24345 29.0669 8.4447 29.0228 8.39565L29.021 8.3943C29.1587 8.19495 29.5934 7.4439 30.2072 7.839C30.8205 8.23275 30.5109 8.76285 30.5109 8.76285Z" fill="url(#paint13_linear_4_1510)"/>
<path d="M20.241 10.1245C20.241 10.1245 21.5892 10.6191 22.1598 11.0551L22.3087 10.9143C22.3087 10.9143 21.0847 10.2532 20.466 10.0561L20.241 10.1245Z" fill="url(#paint14_linear_4_1510)"/>
<path d="M9.21601 9.4392C9.21601 9.4392 13.9689 8.32725 18.5058 8.13555C18.5058 8.13555 18.1814 3.5973 12.9942 4.50135C7.80706 5.4054 9.21601 9.4392 9.21601 9.4392Z" fill="url(#paint15_linear_4_1510)"/>
<path d="M22.3992 9.4392C22.3992 9.4392 22.7061 13.4996 30.0159 16.1001C30.0159 16.1001 33.606 12.7566 29.2563 9.25155C25.2081 5.98995 22.3992 9.4392 22.3992 9.4392Z" fill="url(#paint16_linear_4_1510)"/>
<path d="M15.9579 25.1676C15.9039 25.1676 15.8503 25.1667 15.7968 25.1645C15.7531 25.1627 15.7194 25.1258 15.7207 25.0821C15.7225 25.0385 15.7612 25.0029 15.8031 25.0061C15.8544 25.0079 15.9061 25.0092 15.9579 25.0092C16.0015 25.0092 16.0371 25.0448 16.0371 25.0884C16.0371 25.1321 16.0015 25.1676 15.9579 25.1676ZM16.7431 25.0902C16.7062 25.0902 16.6734 25.0641 16.6657 25.0268C16.6572 24.984 16.6851 24.9422 16.7278 24.9336C16.7787 24.9237 16.8291 24.9125 16.879 24.9003C16.9218 24.89 16.9641 24.9161 16.9744 24.9584C16.9848 25.0007 16.9587 25.0434 16.9164 25.0538C16.8642 25.0664 16.8115 25.0781 16.7589 25.0884C16.7535 25.0898 16.7485 25.0902 16.7431 25.0902ZM15.0183 25.0556C15.012 25.0556 15.0057 25.0547 14.9998 25.0533C14.9472 25.0407 14.895 25.0268 14.8432 25.0119C14.8014 24.9998 14.7771 24.9561 14.7892 24.9143C14.8009 24.8724 14.8446 24.8481 14.8869 24.8603C14.9364 24.8747 14.9868 24.8877 15.0372 24.8999C15.0795 24.9102 15.1056 24.953 15.0957 24.9953C15.0862 25.0313 15.0538 25.0556 15.0183 25.0556ZM17.6427 24.7959C17.613 24.7959 17.5842 24.7788 17.5707 24.75C17.5522 24.7104 17.5693 24.6632 17.6089 24.6452C17.6557 24.6236 17.7021 24.6006 17.748 24.5772C17.7867 24.557 17.8348 24.5727 17.8546 24.6114C17.8744 24.6501 17.8591 24.6978 17.8204 24.7181C17.7727 24.7424 17.7246 24.7662 17.6755 24.7887C17.6652 24.7937 17.6539 24.7959 17.6427 24.7959ZM14.1309 24.7248C14.1187 24.7248 14.1066 24.7221 14.0949 24.7163C14.0472 24.6915 13.9995 24.6663 13.9527 24.6398C13.9149 24.6182 13.9014 24.57 13.9225 24.5318C13.9441 24.494 13.9923 24.4805 14.0305 24.5016C14.0755 24.5273 14.121 24.5516 14.1669 24.5754C14.2056 24.5952 14.2209 24.6429 14.2011 24.6821C14.1871 24.7095 14.1592 24.7248 14.1309 24.7248ZM18.4491 24.3005C18.4257 24.3005 18.4023 24.2901 18.387 24.2703C18.36 24.2361 18.3658 24.1862 18.4005 24.1592C18.441 24.1272 18.481 24.0944 18.5206 24.0611C18.5539 24.0327 18.6039 24.0368 18.6322 24.0701C18.6606 24.1034 18.6565 24.1533 18.6232 24.1817C18.5823 24.2163 18.5409 24.2505 18.4986 24.2838C18.4837 24.2951 18.4662 24.3005 18.4491 24.3005ZM13.3443 24.1979C13.3263 24.1979 13.3078 24.1916 13.293 24.179C13.252 24.1443 13.212 24.1088 13.1724 24.0723C13.14 24.0426 13.1382 23.9927 13.1674 23.9607C13.1971 23.9288 13.2471 23.9265 13.279 23.9558C13.3173 23.9909 13.356 24.0251 13.3951 24.0584C13.4284 24.0867 13.4325 24.1367 13.4041 24.17C13.3888 24.1884 13.3663 24.1979 13.3443 24.1979ZM19.1232 23.6358C19.1056 23.6358 19.0881 23.63 19.0737 23.6183C19.0395 23.5908 19.0345 23.5409 19.062 23.5071C19.0944 23.4666 19.1263 23.4261 19.1578 23.3843C19.1839 23.3492 19.2339 23.3424 19.2685 23.3685C19.3036 23.3946 19.3104 23.4446 19.2843 23.4792C19.2519 23.5224 19.219 23.5647 19.1848 23.6061C19.1691 23.6255 19.1466 23.6358 19.1232 23.6358ZM12.6958 23.508C12.6715 23.508 12.6481 23.4972 12.6324 23.4765C12.6004 23.4338 12.5689 23.3906 12.5383 23.3465C12.5136 23.3105 12.5221 23.2614 12.5581 23.2362C12.5941 23.211 12.6432 23.22 12.6684 23.256C12.6981 23.2988 12.7282 23.3406 12.7593 23.3816C12.7854 23.4167 12.7786 23.4662 12.7435 23.4923C12.7287 23.5031 12.7125 23.508 12.6958 23.508ZM19.6357 22.8389C19.624 22.8389 19.6119 22.8362 19.6006 22.8303C19.5615 22.811 19.5457 22.7633 19.5651 22.7241C19.588 22.6778 19.6105 22.631 19.6317 22.5837C19.6497 22.5437 19.6965 22.5261 19.7365 22.5441C19.7766 22.5621 19.7941 22.6089 19.7761 22.649C19.7541 22.698 19.7307 22.7466 19.7068 22.7948C19.6929 22.8227 19.665 22.8389 19.6357 22.8389ZM12.2139 22.6935C12.1837 22.6935 12.1549 22.6764 12.1419 22.6472C12.1198 22.5986 12.0987 22.5491 12.078 22.4996C12.0613 22.4591 12.0807 22.4132 12.1212 22.3965C12.1617 22.3794 12.2076 22.3992 12.2242 22.4397C12.244 22.4879 12.2647 22.5351 12.2859 22.5824C12.3039 22.622 12.2863 22.6692 12.2463 22.6872C12.2359 22.6913 12.2247 22.6935 12.2139 22.6935ZM19.9642 21.9501C19.9579 21.9501 19.9512 21.9492 19.9449 21.9479C19.9026 21.9371 19.8769 21.8943 19.8873 21.852C19.8999 21.8021 19.9116 21.7517 19.9224 21.7008C19.9314 21.6581 19.9732 21.6302 20.0164 21.6401C20.0592 21.6491 20.0862 21.6914 20.0772 21.7341C20.0659 21.7868 20.0538 21.839 20.0407 21.8907C20.0317 21.9263 19.9993 21.9501 19.9642 21.9501ZM11.9178 21.794C11.8813 21.794 11.8485 21.7688 11.8404 21.7314C11.8291 21.6792 11.8188 21.6266 11.8098 21.5735C11.8021 21.5303 11.8309 21.4893 11.8737 21.4817C11.9164 21.474 11.9578 21.5028 11.9655 21.5456C11.9745 21.5969 11.9844 21.6477 11.9952 21.6981C12.0042 21.7409 11.9772 21.7827 11.9344 21.7922C11.929 21.7935 11.9236 21.794 11.9178 21.794ZM20.0961 21.0123C20.0952 21.0123 20.0943 21.0123 20.0934 21.0123C20.0497 21.011 20.0155 20.9741 20.0173 20.9304C20.0191 20.8787 20.02 20.8269 20.02 20.7752C20.02 20.7315 20.0556 20.696 20.0992 20.696C20.1429 20.696 20.1784 20.7315 20.1784 20.7752C20.1784 20.8292 20.1775 20.8827 20.1757 20.9358C20.1735 20.979 20.1384 21.0123 20.0961 21.0123ZM11.8197 20.8521C11.776 20.8521 11.7405 20.8166 11.7405 20.7729C11.7405 20.7189 11.7414 20.6654 11.7436 20.6118C11.745 20.5682 11.781 20.534 11.8255 20.5358C11.8692 20.5371 11.9034 20.574 11.9016 20.6177C11.8998 20.669 11.8989 20.7207 11.8989 20.7729C11.8984 20.817 11.8633 20.8521 11.8197 20.8521ZM20.0308 20.0718C19.993 20.0718 19.9597 20.0448 19.953 20.0066C19.944 19.9553 19.9341 19.9044 19.9233 19.854C19.9143 19.8113 19.9413 19.7694 19.984 19.76C20.0263 19.7501 20.0686 19.778 20.0781 19.8207C20.0893 19.8729 20.0997 19.9256 20.1087 19.9787C20.1163 20.0219 20.0875 20.0628 20.0448 20.0705C20.0403 20.0714 20.0353 20.0718 20.0308 20.0718ZM11.9191 19.9107C11.9137 19.9107 11.9079 19.9103 11.9025 19.9089C11.8597 19.8999 11.8327 19.8576 11.8417 19.8149C11.853 19.7622 11.8651 19.71 11.8782 19.6578C11.889 19.6155 11.9317 19.5899 11.974 19.6007C12.0163 19.6115 12.042 19.6542 12.0312 19.6965C12.0186 19.7465 12.0069 19.7969 11.9961 19.8477C11.9884 19.8851 11.9556 19.9107 11.9191 19.9107ZM19.768 19.1624C19.737 19.1624 19.7073 19.1439 19.6947 19.1133C19.6749 19.0652 19.6546 19.0179 19.633 18.9707C19.615 18.9311 19.6326 18.8838 19.6726 18.8658C19.7122 18.8478 19.7595 18.8654 19.7775 18.9054C19.7995 18.954 19.8207 19.0035 19.8414 19.053C19.858 19.0935 19.8387 19.1394 19.7982 19.1561C19.7883 19.1606 19.7784 19.1624 19.768 19.1624ZM12.2152 19.0112C12.2044 19.0112 12.1932 19.0089 12.1824 19.004C12.1428 18.986 12.1252 18.9392 12.1432 18.8991C12.1657 18.8501 12.1887 18.8015 12.2125 18.7533C12.2323 18.7142 12.2796 18.6984 12.3187 18.7178C12.3579 18.7371 12.3736 18.7848 12.3543 18.824C12.3313 18.8703 12.3088 18.9171 12.2872 18.9648C12.2742 18.9941 12.2454 19.0112 12.2152 19.0112ZM19.3167 18.3303C19.2915 18.3303 19.2672 18.3186 19.2514 18.2961C19.2217 18.2538 19.1916 18.2115 19.161 18.1706C19.1349 18.1355 19.1416 18.086 19.1767 18.0599C19.2114 18.0333 19.2613 18.0405 19.2874 18.0756C19.3194 18.1184 19.3509 18.162 19.3815 18.2061C19.4062 18.2421 19.3977 18.2912 19.3617 18.3164C19.3477 18.3258 19.332 18.3303 19.3167 18.3303ZM12.699 18.1962C12.6823 18.1962 12.6657 18.1913 12.6517 18.1805C12.6166 18.1544 12.6099 18.1044 12.636 18.0698C12.6684 18.0266 12.7017 17.9843 12.7354 17.9424C12.7629 17.9087 12.8128 17.9033 12.8466 17.9312C12.8803 17.9586 12.8857 18.0086 12.8578 18.0423C12.8254 18.0824 12.7935 18.1233 12.7624 18.1647C12.7467 18.1854 12.7228 18.1962 12.699 18.1962ZM18.6943 17.6166C18.6754 17.6166 18.6561 17.6099 18.6408 17.5959C18.6025 17.5608 18.5638 17.5266 18.5247 17.4933C18.4914 17.465 18.4873 17.415 18.5157 17.3817C18.544 17.3484 18.594 17.3444 18.6273 17.3727C18.6682 17.4074 18.7083 17.4429 18.7479 17.4794C18.7803 17.5091 18.7821 17.559 18.7528 17.591C18.7371 17.6081 18.7159 17.6166 18.6943 17.6166ZM13.3483 17.5073C13.3258 17.5073 13.3038 17.4978 13.288 17.4794C13.2597 17.4461 13.2637 17.3961 13.297 17.3678C13.338 17.3331 13.3798 17.2989 13.4221 17.2656C13.4568 17.2386 13.5063 17.2449 13.5333 17.2791C13.5603 17.3133 13.5544 17.3633 13.5198 17.3903C13.4793 17.4222 13.4388 17.4546 13.3996 17.4884C13.3848 17.501 13.3668 17.5073 13.3483 17.5073ZM17.9289 17.06C17.9158 17.06 17.9023 17.0568 17.8902 17.0496C17.8452 17.0244 17.7997 16.9997 17.7538 16.9758C17.7151 16.956 17.6998 16.9083 17.7196 16.8692C17.7394 16.8305 17.7876 16.8152 17.8263 16.835C17.874 16.8597 17.9212 16.8849 17.968 16.9115C18.0058 16.9331 18.0193 16.9812 17.9977 17.019C17.9833 17.0456 17.9563 17.06 17.9289 17.06ZM14.1358 16.9812C14.107 16.9812 14.0796 16.9655 14.0652 16.938C14.0454 16.8993 14.0607 16.8516 14.0998 16.8318C14.1475 16.8075 14.1957 16.7841 14.2443 16.7612C14.2839 16.7427 14.3311 16.7598 14.3491 16.7994C14.3671 16.839 14.3505 16.8863 14.3109 16.9043C14.2641 16.9259 14.2177 16.9488 14.1718 16.9722C14.1601 16.9785 14.148 16.9812 14.1358 16.9812ZM17.0559 16.6941C17.0487 16.6941 17.0415 16.6932 17.0343 16.691C16.9848 16.6766 16.9344 16.6635 16.884 16.6514C16.8417 16.641 16.8156 16.5983 16.8259 16.556C16.8363 16.5137 16.8786 16.4876 16.9213 16.4979C16.974 16.5105 17.0262 16.5245 17.0779 16.5393C17.1198 16.5515 17.1441 16.5951 17.1319 16.637C17.1216 16.6716 17.0901 16.6941 17.0559 16.6941ZM15.0228 16.6523C14.9872 16.6523 14.9548 16.628 14.9458 16.5915C14.9355 16.5492 14.962 16.5065 15.0043 16.4961C15.0565 16.4835 15.1092 16.4718 15.1618 16.4615C15.205 16.4525 15.2464 16.4808 15.255 16.5236C15.2635 16.5663 15.2356 16.6082 15.1929 16.6167C15.142 16.6271 15.0916 16.6379 15.0412 16.65C15.0354 16.6514 15.0291 16.6523 15.0228 16.6523ZM16.1208 16.5447C16.1199 16.5447 16.1185 16.5447 16.1176 16.5447C16.0663 16.5429 16.0146 16.5416 15.9628 16.5416C15.9192 16.5416 15.8836 16.506 15.8836 16.4624C15.8836 16.4187 15.9192 16.3832 15.9628 16.3832C16.0168 16.3832 16.0704 16.3845 16.1239 16.3863C16.1676 16.3881 16.2013 16.425 16.2 16.4687C16.1982 16.511 16.1631 16.5447 16.1208 16.5447Z" fill="#F7AD77"/>
<path d="M15.5574 21.4965C16.0932 21.4965 16.5276 21.0621 16.5276 20.5263C16.5276 19.9905 16.0932 19.5561 15.5574 19.5561C15.0215 19.5561 14.5872 19.9905 14.5872 20.5263C14.5872 21.0621 15.0215 21.4965 15.5574 21.4965Z" fill="url(#paint17_linear_4_1510)"/>
<path d="M14.4904 22.6022L16.5073 16.9025C16.5073 16.9025 16.2441 16.4831 16.6203 16.0911C16.9965 15.6992 17.6917 13.5747 17.6917 13.5747C17.6917 13.5747 17.2404 15.9435 17.2782 16.1879C17.316 16.4322 17.2278 16.9367 16.8268 17.0339L15.5542 20.5398L14.7591 22.7304L14.4904 22.6022Z" fill="url(#paint18_linear_4_1510)"/>
<path d="M13.4239 19.76L15.5542 20.5398L15.4408 20.8526L13.3303 20.061C13.3303 20.061 12.8326 20.4053 12.4092 19.9859C11.9857 19.5665 10.7734 18.9144 10.7734 18.9144C10.7734 18.9144 12.2773 19.2339 12.7287 19.1588C13.1796 19.0832 13.518 19.4589 13.4239 19.76Z" fill="url(#paint19_linear_4_1510)"/>
<defs>
<linearGradient id="paint0_linear_4_1510" x1="13.3249" y1="8.9343" x2="14.9071" y2="8.9343" gradientUnits="userSpaceOnUse">
<stop stop-color="#686A80"/>
<stop offset="0.2201" stop-color="#6B6E84"/>
<stop offset="0.4558" stop-color="#767B91"/>
<stop offset="0.6988" stop-color="#8691A6"/>
<stop offset="0.9453" stop-color="#9EAEC3"/>
<stop offset="1" stop-color="#A4B6CB"/>
</linearGradient>
<linearGradient id="paint1_linear_4_1510" x1="12.5454" y1="3.90986" x2="13.7859" y2="2.56058" gradientUnits="userSpaceOnUse">
<stop stop-color="#7C879C"/>
<stop offset="0.3223" stop-color="#9FAABA"/>
<stop offset="0.7726" stop-color="#D5E0E8"/>
</linearGradient>
<linearGradient id="paint2_linear_4_1510" x1="11.6943" y1="4.27662" x2="16.852" y2="2.92734" gradientUnits="userSpaceOnUse">
<stop stop-color="#7C879C"/>
<stop offset="0.3223" stop-color="#9FAABA"/>
<stop offset="0.7726" stop-color="#D5E0E8"/>
</linearGradient>
<linearGradient id="paint3_linear_4_1510" x1="6.0525" y1="20.7531" x2="23.7618" y2="20.7531" gradientUnits="userSpaceOnUse">
<stop offset="0.2156" stop-color="#5069BE"/>
<stop offset="1" stop-color="#25375E"/>
</linearGradient>
<linearGradient id="paint4_linear_4_1510" x1="6.05252" y1="20.6284" x2="14.693" y2="20.6284" gradientUnits="userSpaceOnUse">
<stop stop-color="#FFD6B8"/>
<stop offset="0.447917" stop-color="#F6AD77"/>
<stop offset="0.859375" stop-color="#EC5E0F"/>
</linearGradient>
<linearGradient id="paint5_linear_4_1510" x1="15.3594" y1="20.7741" x2="29.8364" y2="20.7741" gradientUnits="userSpaceOnUse">
<stop stop-color="#FFD6B8"/>
<stop offset="0.447917" stop-color="#F6AD77"/>
<stop offset="0.859375" stop-color="#EC5E0F"/>
</linearGradient>
<linearGradient id="paint6_linear_4_1510" x1="18.5202" y1="9.42773" x2="19.7887" y2="9.42773" gradientUnits="userSpaceOnUse">
<stop offset="0.2156" stop-color="#5069BE"/>
<stop offset="1" stop-color="#25375E"/>
</linearGradient>
<linearGradient id="paint7_linear_4_1510" x1="19.112" y1="32.1235" x2="19.7888" y2="32.1235" gradientUnits="userSpaceOnUse">
<stop offset="0.2156" stop-color="#5069BE"/>
<stop offset="1" stop-color="#25375E"/>
</linearGradient>
<linearGradient id="paint8_linear_4_1510" x1="18.0351" y1="33.6978" x2="20.2356" y2="33.6978" gradientUnits="userSpaceOnUse">
<stop stop-color="#686A80"/>
<stop offset="0.2201" stop-color="#6B6E84"/>
<stop offset="0.4558" stop-color="#767B91"/>
<stop offset="0.6988" stop-color="#8691A6"/>
<stop offset="0.9453" stop-color="#9EAEC3"/>
<stop offset="1" stop-color="#A4B6CB"/>
</linearGradient>
<linearGradient id="paint9_linear_4_1510" x1="5.84466" y1="29.6337" x2="8.5347" y2="29.6337" gradientUnits="userSpaceOnUse">
<stop stop-color="#686A80"/>
<stop offset="0.2201" stop-color="#6B6E84"/>
<stop offset="0.4558" stop-color="#767B91"/>
<stop offset="0.6988" stop-color="#8691A6"/>
<stop offset="0.9453" stop-color="#9EAEC3"/>
<stop offset="1" stop-color="#A4B6CB"/>
</linearGradient>
<linearGradient id="paint10_linear_4_1510" x1="20.9997" y1="9.58657" x2="22.1967" y2="9.58657" gradientUnits="userSpaceOnUse">
<stop stop-color="#686A80"/>
<stop offset="0.2201" stop-color="#6B6E84"/>
<stop offset="0.4558" stop-color="#767B91"/>
<stop offset="0.6988" stop-color="#8691A6"/>
<stop offset="0.9453" stop-color="#9EAEC3"/>
<stop offset="1" stop-color="#A4B6CB"/>
</linearGradient>
<linearGradient id="paint11_linear_4_1510" x1="21.933" y1="8.69134" x2="22.3943" y2="7.50493" gradientUnits="userSpaceOnUse">
<stop stop-color="#7C879C"/>
<stop offset="0.3223" stop-color="#9FAABA"/>
<stop offset="0.7726" stop-color="#D5E0E8"/>
</linearGradient>
<linearGradient id="paint12_linear_4_1510" x1="25.686" y1="32.0141" x2="8.86437" y2="13.6632" gradientUnits="userSpaceOnUse">
<stop stop-color="#C0D1E0"/>
<stop offset="0.0382" stop-color="#C5D5E3"/>
<stop offset="0.2586" stop-color="#DFE7EF"/>
<stop offset="0.4874" stop-color="#F1F5F8"/>
<stop offset="0.7277" stop-color="#FBFCFD"/>
<stop offset="0.9987" stop-color="white"/>
</linearGradient>
<linearGradient id="paint13_linear_4_1510" x1="29.021" y1="8.45694" x2="30.589" y2="8.45694" gradientUnits="userSpaceOnUse">
<stop stop-color="#7C879C"/>
<stop offset="0.3223" stop-color="#9FAABA"/>
<stop offset="0.7726" stop-color="#D5E0E8"/>
</linearGradient>
<linearGradient id="paint14_linear_4_1510" x1="20.241" y1="10.5556" x2="22.3087" y2="10.5556" gradientUnits="userSpaceOnUse">
<stop stop-color="#21313E"/>
<stop offset="0.1912" stop-color="#293643"/>
<stop offset="0.3674" stop-color="#676771"/>
<stop offset="0.5849" stop-color="#394450"/>
<stop offset="0.6915" stop-color="#21313E"/>
<stop offset="0.9971" stop-color="#3D4653"/>
</linearGradient>
<linearGradient id="paint15_linear_4_1510" x1="9.04144" y1="6.91064" x2="18.5058" y2="6.91064" gradientUnits="userSpaceOnUse">
<stop stop-color="#FFD6B8"/>
<stop offset="0.447917" stop-color="#F6AD77"/>
<stop offset="0.859375" stop-color="#EC5E0F"/>
</linearGradient>
<linearGradient id="paint16_linear_4_1510" x1="22.3992" y1="11.9745" x2="31.4082" y2="11.9745" gradientUnits="userSpaceOnUse">
<stop stop-color="#FFD6B8"/>
<stop offset="0.447917" stop-color="#F6AD77"/>
<stop offset="0.859375" stop-color="#EC5E0F"/>
</linearGradient>
<linearGradient id="paint17_linear_4_1510" x1="15.1516" y1="23.3665" x2="15.66" y2="19.8078" gradientUnits="userSpaceOnUse">
<stop stop-color="#686A80"/>
<stop offset="0.2201" stop-color="#6B6E84"/>
<stop offset="0.4558" stop-color="#767B91"/>
<stop offset="0.6988" stop-color="#8691A6"/>
<stop offset="0.9453" stop-color="#9EAEC3"/>
<stop offset="1" stop-color="#A4B6CB"/>
</linearGradient>
<linearGradient id="paint18_linear_4_1510" x1="14.4904" y1="18.1526" x2="17.6917" y2="18.1526" gradientUnits="userSpaceOnUse">
<stop stop-color="#21313E"/>
<stop offset="0.1912" stop-color="#293643"/>
<stop offset="0.3674" stop-color="#676771"/>
<stop offset="0.5849" stop-color="#394450"/>
<stop offset="0.6915" stop-color="#21313E"/>
<stop offset="0.9971" stop-color="#3D4653"/>
</linearGradient>
<linearGradient id="paint19_linear_4_1510" x1="10.7734" y1="19.8835" x2="15.5542" y2="19.8835" gradientUnits="userSpaceOnUse">
<stop stop-color="#21313E"/>
<stop offset="0.1912" stop-color="#293643"/>
<stop offset="0.3674" stop-color="#676771"/>
<stop offset="0.5849" stop-color="#394450"/>
<stop offset="0.6915" stop-color="#21313E"/>
<stop offset="0.9971" stop-color="#3D4653"/>
</linearGradient>
</defs>
</svg>
