<svg width="24" height="24" viewBox="0 0 24 24" fill="none" xmlns="http://www.w3.org/2000/svg">
<path d="M14.25 2.25L19.75 7.75M12.185 11.26H17.79M12.185 17.42H17.79M6.585 17.375L8.135 18.925M8.135 18.925L11.15 15.91M6.585 11.215L8.135 12.765M8.135 12.765L11.15 9.755M19.75 7.75H15.25C14.9848 7.75 14.7304 7.64464 14.5429 7.45711C14.3554 7.26957 14.25 7.01522 14.25 6.75V2.25H5.25C4.98478 2.25 4.73043 2.35536 4.54289 2.54289C4.35536 2.73043 4.25 2.98478 4.25 3.25V20.75C4.25 21.0152 4.35536 21.2696 4.54289 21.4571C4.73043 21.6446 4.98478 21.75 5.25 21.75H18.75C19.0152 21.75 19.2696 21.6446 19.4571 21.4571C19.6446 21.2696 19.75 21.0152 19.75 20.75V7.75Z" stroke="white" stroke-width="0.5" stroke-linecap="round" stroke-linejoin="round"/>
</svg>
