<svg width="12" height="12" viewBox="0 0 12 12" fill="none" xmlns="http://www.w3.org/2000/svg">
<g clip-path="url(#clip0_471_10788)">
<path d="M9.1 2.1H9.3H9.6H10.8C10.9857 2.1 11.1637 2.17375 11.295 2.30503L11.6363 1.96366L11.295 2.30503C11.4263 2.4363 11.5 2.61435 11.5 2.8V10.8C11.5 10.9857 11.4263 11.1637 11.295 11.295C11.1637 11.4263 10.9857 11.5 10.8 11.5H1.2C1.01435 11.5 0.836301 11.4263 0.705026 11.295L0.352422 11.6476L0.705025 11.295C0.57375 11.1637 0.5 10.9857 0.5 10.8V2.8C0.5 2.61435 0.57375 2.4363 0.705025 2.30503C0.836301 2.17375 1.01435 2.1 1.2 2.1H2.4H2.7H2.9H3.2H8.8H9.1Z" stroke="#9F75C9" stroke-opacity="0.5"/>
</g>
<defs>
<clipPath id="clip0_471_10788">
<rect width="12" height="12" fill="white"/>
</clipPath>
</defs>
</svg>
